SolveigDemiBold.ufo
<glyph name="exclam" format="1">
  <advance width="225"/>
  <unicode hex="0021"/>
  <outline>
    <contour>
      <point x="129" y="158" type="curve"/>
      <point x="95" y="154" type="line"/>
      <point x="93" y="294"/>
      <point x="72" y="530"/>
      <point x="66" y="578" type="curve"/>
      <point x="92" y="580"/>
      <point x="139" y="583"/>
      <point x="169" y="588" type="curve"/>
      <point x="157" y="505"/>
      <point x="132" y="229"/>
    </contour>
    <contour>
      <point x="121" y="75" type="curve" smooth="yes"/>
      <point x="161" y="75"/>
      <point x="169" y="51"/>
      <point x="169" y="37" type="curve" smooth="yes"/>
      <point x="169" y="16"/>
      <point x="139" y="-10"/>
      <point x="103" y="-10" type="curve" smooth="yes"/>
      <point x="76" y="-10"/>
      <point x="56" y="2"/>
      <point x="56" y="28" type="curve" smooth="yes"/>
      <point x="56" y="48"/>
      <point x="79" y="75"/>
    </contour>
  </outline>
</glyph>
<glyph name="quotedbl" format="1">
  <advance width="340"/>
  <unicode hex="0022"/>
  <outline>
    <contour>
      <point x="111" y="350" type="curve"/>
      <point x="81" y="348" type="line"/>
      <point x="77" y="424"/>
      <point x="57" y="551"/>
      <point x="50" y="578" type="curve"/>
      <point x="77" y="578"/>
      <point x="123" y="583"/>
      <point x="153" y="588" type="curve"/>
      <point x="141" y="543"/>
      <point x="117" y="415"/>
    </contour>
    <contour>
      <point x="261" y="350" type="curve"/>
      <point x="231" y="348" type="line"/>
      <point x="227" y="424"/>
      <point x="206" y="551"/>
      <point x="200" y="578" type="curve"/>
      <point x="226" y="578"/>
      <point x="273" y="583"/>
      <point x="303" y="588" type="curve"/>
      <point x="291" y="543"/>
      <point x="267" y="415"/>
    </contour>
  </outline>
</glyph>
<glyph name="numbersign" format="1">
  <advance width="416"/>
  <unicode hex="0023"/>
  <outline>
    <contour>
      <point x="285" y="582" type="curve"/>
      <point x="284" y="524"/>
      <point x="283" y="475"/>
      <point x="283" y="427" type="curve"/>
      <point x="308" y="427"/>
      <point x="335" y="428"/>
      <point x="354" y="428" type="curve"/>
      <point x="355" y="417"/>
      <point x="353" y="394"/>
      <point x="348" y="384" type="curve"/>
      <point x="326" y="384"/>
      <point x="305" y="385"/>
      <point x="283" y="385" type="curve"/>
      <point x="282" y="322"/>
      <point x="282" y="274"/>
      <point x="282" y="211" type="curve"/>
      <point x="307" y="211"/>
      <point x="335" y="212"/>
      <point x="354" y="212" type="curve"/>
      <point x="355" y="201"/>
      <point x="353" y="179"/>
      <point x="348" y="169" type="curve"/>
      <point x="325" y="169"/>
      <point x="304" y="170"/>
      <point x="282" y="171" type="curve"/>
      <point x="282" y="117"/>
      <point x="282" y="67"/>
      <point x="283" y="2" type="curve"/>
      <point x="272" y="-2"/>
      <point x="251" y="-6"/>
      <point x="240" y="-3" type="curve"/>
      <point x="240" y="62"/>
      <point x="241" y="117"/>
      <point x="241" y="171" type="curve"/>
      <point x="141" y="171" type="line"/>
      <point x="141" y="117"/>
      <point x="141" y="67"/>
      <point x="142" y="2" type="curve"/>
      <point x="132" y="-2"/>
      <point x="112" y="-6"/>
      <point x="101" y="-3" type="curve"/>
      <point x="101" y="62"/>
      <point x="102" y="117"/>
      <point x="102" y="171" type="curve"/>
      <point x="35" y="171" type="line"/>
      <point x="32" y="180"/>
      <point x="36" y="208"/>
      <point x="38" y="214" type="curve"/>
      <point x="102" y="212" type="line"/>
      <point x="102" y="276"/>
      <point x="103" y="322"/>
      <point x="103" y="386" type="curve"/>
      <point x="35" y="386" type="line"/>
      <point x="32" y="395"/>
      <point x="36" y="424"/>
      <point x="38" y="429" type="curve"/>
      <point x="58" y="429"/>
      <point x="81" y="429"/>
      <point x="103" y="428" type="curve"/>
      <point x="103" y="581" type="line"/>
      <point x="112" y="584"/>
      <point x="138" y="584"/>
      <point x="144" y="582" type="curve"/>
      <point x="143" y="524"/>
      <point x="142" y="476"/>
      <point x="142" y="428" type="curve"/>
      <point x="185" y="427"/>
      <point x="203" y="427"/>
      <point x="242" y="427" type="curve"/>
      <point x="242" y="581" type="line"/>
      <point x="251" y="584"/>
      <point x="279" y="584"/>
    </contour>
    <contour>
      <point x="141" y="212" type="curve"/>
      <point x="184" y="211"/>
      <point x="201" y="211"/>
      <point x="241" y="211" type="curve"/>
      <point x="241" y="275"/>
      <point x="242" y="321"/>
      <point x="242" y="385" type="curve"/>
      <point x="205" y="386"/>
      <point x="185" y="386"/>
      <point x="142" y="386" type="curve"/>
      <point x="141" y="323"/>
      <point x="141" y="275"/>
    </contour>
  </outline>
</glyph>
<glyph name="dollar" format="1">
  <advance width="338"/>
  <unicode hex="0024"/>
  <outline>
    <contour>
      <point x="148" y="-16" type="curve"/>
      <point x="147" y="20"/>
      <point x="145" y="60"/>
      <point x="144" y="71" type="curve"/>
      <point x="112" y="72"/>
      <point x="62" y="74"/>
      <point x="38" y="82" type="curve"/>
      <point x="37" y="92"/>
      <point x="39" y="112"/>
      <point x="42" y="119" type="curve"/>
      <point x="140" y="104"/>
      <point x="220" y="107"/>
      <point x="222" y="175" type="curve" smooth="yes"/>
      <point x="224" y="218"/>
      <point x="172" y="250"/>
      <point x="130" y="278" type="curve" smooth="yes"/>
      <point x="75" y="315"/>
      <point x="43" y="353"/>
      <point x="43" y="390" type="curve" smooth="yes"/>
      <point x="43" y="448"/>
      <point x="86" y="487"/>
      <point x="151" y="510" type="curve"/>
      <point x="152" y="536"/>
      <point x="153" y="574"/>
      <point x="153" y="593" type="curve"/>
      <point x="163" y="597"/>
      <point x="181" y="595"/>
      <point x="188" y="594" type="curve"/>
      <point x="187" y="574"/>
      <point x="190" y="531"/>
      <point x="191" y="517" type="curve"/>
      <point x="206" y="519"/>
      <point x="242" y="521"/>
      <point x="269" y="521" type="curve"/>
      <point x="270" y="511"/>
      <point x="270" y="495"/>
      <point x="269" y="485" type="curve"/>
      <point x="201" y="488"/>
      <point x="117" y="471"/>
      <point x="117" y="409" type="curve" smooth="yes"/>
      <point x="117" y="382"/>
      <point x="153" y="359"/>
      <point x="198" y="333" type="curve" smooth="yes"/>
      <point x="270" y="293"/>
      <point x="300" y="258"/>
      <point x="300" y="204" type="curve" smooth="yes"/>
      <point x="300" y="159"/>
      <point x="273" y="98"/>
      <point x="186" y="76" type="curve"/>
      <point x="183" y="64"/>
      <point x="181" y="3"/>
      <point x="181" y="-16" type="curve"/>
      <point x="175" y="-18"/>
      <point x="156" y="-18"/>
    </contour>
  </outline>
</glyph>
<glyph name="ampersand" format="1">
  <advance width="638"/>
  <unicode hex="0026"/>
  <outline>
    <contour>
      <point x="390" y="570" type="curve"/>
      <point x="385" y="561"/>
      <point x="380" y="543"/>
      <point x="375" y="538" type="curve"/>
      <point x="353" y="547"/>
      <point x="310" y="553"/>
      <point x="294" y="548" type="curve" smooth="yes"/>
      <point x="254" y="533"/>
      <point x="235" y="504"/>
      <point x="235" y="476" type="curve" smooth="yes"/>
      <point x="235" y="448"/>
      <point x="251" y="425"/>
      <point x="272" y="395" type="curve"/>
      <point x="279" y="383"/>
      <point x="381" y="248"/>
      <point x="446" y="183" type="curve"/>
      <point x="466" y="200"/>
      <point x="500" y="249"/>
      <point x="511" y="288" type="curve"/>
      <point x="543" y="293"/>
      <point x="582" y="304"/>
      <point x="625" y="322" type="curve"/>
      <point x="593" y="281"/>
      <point x="531" y="210"/>
      <point x="471" y="154" type="curve"/>
      <point x="513" y="103"/>
      <point x="586" y="30"/>
      <point x="631" y="0" type="curve"/>
      <point x="584" y="4"/>
      <point x="503" y="0"/>
      <point x="484" y="-4" type="curve"/>
      <point x="403" y="96" type="line"/>
      <point x="326" y="37"/>
      <point x="242" y="-12"/>
      <point x="172" y="-12" type="curve" smooth="yes"/>
      <point x="81" y="-12"/>
      <point x="35" y="60"/>
      <point x="35" y="126" type="curve" smooth="yes"/>
      <point x="35" y="217"/>
      <point x="107" y="280"/>
      <point x="195" y="345" type="curve"/>
      <point x="172" y="378"/>
      <point x="141" y="421"/>
      <point x="141" y="459" type="curve"/>
      <point x="143" y="525"/>
      <point x="218" y="592"/>
      <point x="308" y="592" type="curve" smooth="yes"/>
      <point x="324" y="592"/>
      <point x="365" y="582"/>
    </contour>
    <contour>
      <point x="219" y="315" type="curve"/>
      <point x="171" y="281"/>
      <point x="132" y="244"/>
      <point x="122" y="194" type="curve"/>
      <point x="107" y="132"/>
      <point x="136" y="64"/>
      <point x="227" y="64" type="curve" smooth="yes"/>
      <point x="275" y="64"/>
      <point x="336" y="95"/>
      <point x="377" y="127" type="curve"/>
      <point x="315" y="197"/>
      <point x="256" y="268"/>
    </contour>
  </outline>
</glyph>
<glyph name="quotesingle" format="1">
  <advance width="190"/>
  <unicode hex="0027"/>
  <outline>
    <contour>
      <point x="111" y="350" type="curve"/>
      <point x="81" y="348" type="line"/>
      <point x="77" y="424"/>
      <point x="57" y="551"/>
      <point x="50" y="578" type="curve"/>
      <point x="77" y="578"/>
      <point x="123" y="583"/>
      <point x="153" y="588" type="curve"/>
      <point x="141" y="543"/>
      <point x="117" y="415"/>
    </contour>
  </outline>
</glyph>
<glyph name="parenleft" format="1">
  <advance width="244"/>
  <unicode hex="0028"/>
  <outline>
    <contour>
      <point x="181" y="-88" type="curve"/>
      <point x="114" y="16"/>
      <point x="55" y="132"/>
      <point x="56" y="271" type="curve" smooth="yes"/>
      <point x="57" y="400"/>
      <point x="120" y="503"/>
      <point x="186" y="603" type="curve"/>
      <point x="195" y="603"/>
      <point x="205" y="599"/>
      <point x="214" y="594" type="curve"/>
      <point x="181" y="524"/>
      <point x="144" y="410"/>
      <point x="144" y="273" type="curve" smooth="yes"/>
      <point x="144" y="163"/>
      <point x="161" y="44"/>
      <point x="211" y="-80" type="curve"/>
      <point x="201" y="-86"/>
      <point x="191" y="-87"/>
    </contour>
  </outline>
</glyph>
<glyph name="parenright" format="1">
  <advance width="244"/>
  <unicode hex="0029"/>
  <outline>
    <contour>
      <point x="62" y="603" type="line"/>
      <point x="123" y="509"/>
      <point x="189" y="410"/>
      <point x="188" y="271" type="curve" smooth="yes"/>
      <point x="187" y="143"/>
      <point x="119" y="10"/>
      <point x="59" y="-89" type="curve"/>
      <point x="52" y="-87"/>
      <point x="37" y="-84"/>
      <point x="30" y="-80" type="curve"/>
      <point x="68" y="21"/>
      <point x="100" y="132"/>
      <point x="100" y="269" type="curve" smooth="yes"/>
      <point x="100" y="379"/>
      <point x="84" y="472"/>
      <point x="33" y="594" type="curve"/>
    </contour>
  </outline>
</glyph>
<glyph name="asterisk" format="1">
  <advance width="416"/>
  <unicode hex="002A"/>
  <outline>
    <contour>
      <point x="326" y="517" type="curve"/>
      <point x="333" y="509"/>
      <point x="336" y="493"/>
      <point x="336" y="486" type="curve"/>
      <point x="320" y="482"/>
      <point x="260" y="461"/>
      <point x="236" y="452" type="curve"/>
      <point x="252" y="425"/>
      <point x="293" y="365"/>
      <point x="304" y="351" type="curve"/>
      <point x="298" y="343"/>
      <point x="282" y="335"/>
      <point x="275" y="334" type="curve"/>
      <point x="267" y="347"/>
      <point x="221" y="407"/>
      <point x="206" y="427" type="curve"/>
      <point x="186" y="404"/>
      <point x="141" y="346"/>
      <point x="132" y="333" type="curve"/>
      <point x="122" y="336"/>
      <point x="111" y="345"/>
      <point x="107" y="350" type="curve"/>
      <point x="117" y="363"/>
      <point x="159" y="429"/>
      <point x="172" y="449" type="curve"/>
      <point x="144" y="463"/>
      <point x="92" y="483"/>
      <point x="76" y="488" type="curve"/>
      <point x="77" y="499"/>
      <point x="81" y="514"/>
      <point x="85" y="519" type="curve"/>
      <point x="99" y="513"/>
      <point x="162" y="494"/>
      <point x="186" y="488" type="curve"/>
      <point x="187" y="518"/>
      <point x="190" y="584"/>
      <point x="190" y="601" type="curve"/>
      <point x="200" y="604"/>
      <point x="215" y="603"/>
      <point x="221" y="602" type="curve"/>
      <point x="221" y="585"/>
      <point x="224" y="511"/>
      <point x="225" y="488" type="curve"/>
      <point x="254" y="494"/>
      <point x="310" y="511"/>
    </contour>
  </outline>
</glyph>
<glyph name="comma" format="1">
  <advance width="181"/>
  <unicode hex="002C"/>
  <outline>
    <contour>
      <point x="96" y="96" type="curve" smooth="yes"/>
      <point x="118" y="96"/>
      <point x="142" y="78"/>
      <point x="142" y="29" type="curve" smooth="yes"/>
      <point x="142" y="-19"/>
      <point x="91" y="-116"/>
      <point x="50" y="-186" type="curve"/>
      <point x="41" y="-182"/>
      <point x="31" y="-176"/>
      <point x="22" y="-170" type="curve"/>
      <point x="51" y="-111"/>
      <point x="61" y="-72"/>
      <point x="61" y="-32" type="curve" smooth="yes"/>
      <point x="61" y="-2"/>
      <point x="44" y="17"/>
      <point x="44" y="46" type="curve" smooth="yes"/>
      <point x="44" y="75"/>
      <point x="69" y="96"/>
    </contour>
  </outline>
</glyph>
<glyph name="hyphen" format="1">
  <advance width="266"/>
  <unicode hex="002D"/>
  <outline>
    <contour>
      <point x="47" y="271" type="curve"/>
      <point x="77" y="274"/>
      <point x="195" y="292"/>
      <point x="216" y="297" type="curve"/>
      <point x="219" y="285"/>
      <point x="222" y="263"/>
      <point x="216" y="244" type="curve"/>
      <point x="192" y="242"/>
      <point x="77" y="226"/>
      <point x="49" y="220" type="curve"/>
      <point x="46" y="230"/>
      <point x="46" y="260"/>
    </contour>
  </outline>
</glyph>
<glyph name="period" format="1">
  <advance width="216"/>
  <unicode hex="002E"/>
  <outline>
    <contour>
      <point x="117" y="75" type="curve" smooth="yes"/>
      <point x="156" y="75"/>
      <point x="164" y="50"/>
      <point x="164" y="36" type="curve" smooth="yes"/>
      <point x="164" y="22"/>
      <point x="147" y="-10"/>
      <point x="98" y="-10" type="curve" smooth="yes"/>
      <point x="72" y="-10"/>
      <point x="52" y="2"/>
      <point x="52" y="28" type="curve" smooth="yes"/>
      <point x="52" y="48"/>
      <point x="75" y="75"/>
    </contour>
  </outline>
</glyph>
<glyph name="slash" format="1">
  <advance width="299"/>
  <unicode hex="002F"/>
  <outline>
    <contour>
      <point x="276" y="600" type="curve"/>
      <point x="63" y="-46" type="line"/>
      <point x="52" y="-46"/>
      <point x="31" y="-47"/>
      <point x="20" y="-42" type="curve"/>
      <point x="234" y="605" type="line"/>
      <point x="243" y="606"/>
      <point x="271" y="604"/>
    </contour>
  </outline>
</glyph>
<glyph name="one" format="1">
  <advance width="340"/>
  <unicode hex="0031"/>
  <outline>
    <contour>
      <point x="230" y="588" type="curve"/>
      <point x="237" y="584"/>
      <point x="241" y="583"/>
      <point x="247" y="578" type="curve"/>
      <point x="231" y="503"/>
      <point x="237" y="102"/>
      <point x="246" y="-3" type="curve"/>
      <point x="219" y="2"/>
      <point x="166" y="2"/>
      <point x="135" y="-2" type="curve"/>
      <point x="151" y="91"/>
      <point x="157" y="424"/>
      <point x="149" y="506" type="curve"/>
      <point x="104" y="504"/>
      <point x="82" y="500"/>
      <point x="37" y="493" type="curve"/>
      <point x="35" y="499"/>
      <point x="33" y="518"/>
      <point x="32" y="525" type="curve"/>
      <point x="107" y="545"/>
      <point x="172" y="563"/>
    </contour>
  </outline>
</glyph>
<glyph name="two" format="1">
  <advance width="422"/>
  <unicode hex="0032"/>
  <outline>
    <contour>
      <point x="62" y="529" type="curve"/>
      <point x="123" y="558"/>
      <point x="185" y="591"/>
      <point x="261" y="591" type="curve" smooth="yes"/>
      <point x="340" y="591"/>
      <point x="358" y="527"/>
      <point x="358" y="468" type="curve" smooth="yes"/>
      <point x="358" y="393"/>
      <point x="300" y="300"/>
      <point x="261" y="245" type="curve"/>
      <point x="136" y="89" type="line"/>
      <point x="189" y="80"/>
      <point x="365" y="88"/>
      <point x="392" y="92" type="curve"/>
      <point x="381" y="57"/>
      <point x="377" y="25"/>
      <point x="372" y="-7" type="curve"/>
      <point x="295" y="7"/>
      <point x="147" y="4"/>
      <point x="37" y="-3" type="curve"/>
      <point x="30" y="6"/>
      <point x="30" y="17"/>
      <point x="28" y="25" type="curve"/>
      <point x="134" y="127"/>
      <point x="273" y="330"/>
      <point x="273" y="449" type="curve" smooth="yes"/>
      <point x="273" y="501"/>
      <point x="255" y="527"/>
      <point x="207" y="527" type="curve" smooth="yes"/>
      <point x="170" y="527"/>
      <point x="107" y="512"/>
      <point x="77" y="499" type="curve"/>
      <point x="68" y="506"/>
      <point x="64" y="519"/>
    </contour>
  </outline>
</glyph>
<glyph name="three" format="1">
  <advance width="370"/>
  <unicode hex="0033"/>
  <outline>
    <contour>
      <point x="35" y="553" type="curve"/>
      <point x="56" y="566"/>
      <point x="137" y="593"/>
      <point x="183" y="593" type="curve" smooth="yes"/>
      <point x="264" y="593"/>
      <point x="287" y="540"/>
      <point x="287" y="493" type="curve" smooth="yes"/>
      <point x="287" y="450"/>
      <point x="246" y="395"/>
      <point x="193" y="363" type="curve"/>
      <point x="274" y="364"/>
      <point x="333" y="310"/>
      <point x="333" y="226" type="curve" smooth="yes"/>
      <point x="333" y="57"/>
      <point x="151" y="-11"/>
      <point x="15" y="-8" type="curve"/>
      <point x="14" y="0"/>
      <point x="14" y="20"/>
      <point x="17" y="30" type="curve"/>
      <point x="126" y="26"/>
      <point x="241" y="93"/>
      <point x="241" y="223" type="curve" smooth="yes"/>
      <point x="241" y="290"/>
      <point x="203" y="326"/>
      <point x="155" y="326" type="curve" smooth="yes"/>
      <point x="141" y="326"/>
      <point x="114" y="323"/>
      <point x="101" y="319" type="curve"/>
      <point x="92" y="327"/>
      <point x="92" y="342"/>
      <point x="90" y="350" type="curve"/>
      <point x="156" y="373"/>
      <point x="201" y="408"/>
      <point x="201" y="471" type="curve" smooth="yes"/>
      <point x="201" y="509"/>
      <point x="175" y="537"/>
      <point x="133" y="537" type="curve" smooth="yes"/>
      <point x="103" y="537"/>
      <point x="67" y="529"/>
      <point x="48" y="522" type="curve"/>
      <point x="42" y="527"/>
      <point x="37" y="543"/>
    </contour>
  </outline>
</glyph>
<glyph name="four" format="1">
  <advance width="416"/>
  <unicode hex="0034"/>
  <outline>
    <contour>
      <point x="244" y="-2" type="curve"/>
      <point x="255" y="43"/>
      <point x="255" y="102"/>
      <point x="255" y="174" type="curve"/>
      <point x="252" y="174"/>
      <point x="94" y="176"/>
      <point x="37" y="174" type="curve"/>
      <point x="30" y="178"/>
      <point x="27" y="186"/>
      <point x="22" y="193" type="curve"/>
      <point x="302" y="601" type="line"/>
      <point x="308" y="598"/>
      <point x="323" y="585"/>
      <point x="329" y="579" type="curve"/>
      <point x="260" y="476"/>
      <point x="162" y="326"/>
      <point x="99" y="218" type="curve"/>
      <point x="162" y="215"/>
      <point x="204" y="218"/>
      <point x="255" y="217" type="curve"/>
      <point x="255" y="245"/>
      <point x="256" y="304"/>
      <point x="253" y="387" type="curve"/>
      <point x="279" y="390"/>
      <point x="325" y="402"/>
      <point x="351" y="416" type="curve"/>
      <point x="342" y="349"/>
      <point x="340" y="318"/>
      <point x="340" y="218" type="curve"/>
      <point x="354" y="218"/>
      <point x="364" y="218"/>
      <point x="381" y="220" type="curve"/>
      <point x="384" y="204"/>
      <point x="384" y="186"/>
      <point x="380" y="171" type="curve"/>
      <point x="356" y="172"/>
      <point x="348" y="173"/>
      <point x="339" y="172" type="curve"/>
      <point x="338" y="138"/>
      <point x="341" y="50"/>
      <point x="350" y="-1" type="curve"/>
      <point x="325" y="2"/>
      <point x="274" y="6"/>
    </contour>
  </outline>
</glyph>
<glyph name="five" format="1">
  <advance width="350"/>
  <unicode hex="0035"/>
  <outline>
    <contour>
      <point x="296" y="586" type="curve"/>
      <point x="282" y="557"/>
      <point x="271" y="516"/>
      <point x="264" y="496" type="curve"/>
      <point x="224" y="503"/>
      <point x="153" y="503"/>
      <point x="120" y="499" type="curve"/>
      <point x="113" y="479"/>
      <point x="105" y="452"/>
      <point x="97" y="416" type="curve"/>
      <point x="221" y="427"/>
      <point x="310" y="394"/>
      <point x="310" y="257" type="curve" smooth="yes"/>
      <point x="310" y="163"/>
      <point x="220" y="56"/>
      <point x="114" y="-22" type="curve"/>
      <point x="107" y="-17"/>
      <point x="96" y="-7"/>
      <point x="93" y="5" type="curve"/>
      <point x="161" y="65"/>
      <point x="230" y="144"/>
      <point x="230" y="238" type="curve"/>
      <point x="229" y="321"/>
      <point x="171" y="355"/>
      <point x="50" y="343" type="curve"/>
      <point x="45" y="345"/>
      <point x="37" y="351"/>
      <point x="37" y="351" type="curve"/>
      <point x="60" y="412"/>
      <point x="93" y="533"/>
      <point x="104" y="584" type="curve"/>
      <point x="154" y="580"/>
      <point x="249" y="578"/>
    </contour>
  </outline>
</glyph>
<glyph name="six" format="1">
  <advance width="438"/>
  <unicode hex="0036"/>
  <outline>
    <contour>
      <point x="257" y="602" type="curve"/>
      <point x="268" y="599"/>
      <point x="282" y="592"/>
      <point x="289" y="584" type="curve"/>
      <point x="201" y="470"/>
      <point x="127" y="344"/>
      <point x="127" y="214" type="curve" smooth="yes"/>
      <point x="127" y="74"/>
      <point x="176" y="35"/>
      <point x="214" y="35" type="curve" smooth="yes"/>
      <point x="268" y="35"/>
      <point x="312" y="69"/>
      <point x="312" y="140" type="curve" smooth="yes"/>
      <point x="312" y="213"/>
      <point x="273" y="238"/>
      <point x="244" y="238" type="curve" smooth="yes"/>
      <point x="221" y="238"/>
      <point x="203" y="235"/>
      <point x="180" y="226" type="curve"/>
      <point x="170" y="235"/>
      <point x="170" y="249"/>
      <point x="170" y="256" type="curve"/>
      <point x="199" y="274"/>
      <point x="246" y="292"/>
      <point x="278" y="292" type="curve" smooth="yes"/>
      <point x="353" y="292"/>
      <point x="403" y="256"/>
      <point x="403" y="156" type="curve" smooth="yes"/>
      <point x="403" y="69"/>
      <point x="304" y="-16"/>
      <point x="191" y="-16" type="curve" smooth="yes"/>
      <point x="60" y="-16"/>
      <point x="37" y="107"/>
      <point x="37" y="183" type="curve" smooth="yes"/>
      <point x="37" y="317"/>
      <point x="138" y="465"/>
    </contour>
  </outline>
</glyph>
<glyph name="seven" format="1">
  <advance width="419"/>
  <unicode hex="0037"/>
  <outline>
    <contour>
      <point x="62" y="-32" type="curve"/>
      <point x="115" y="118"/>
      <point x="205" y="327"/>
      <point x="322" y="493" type="curve"/>
      <point x="245" y="500"/>
      <point x="94" y="493"/>
      <point x="41" y="485" type="curve"/>
      <point x="54" y="521"/>
      <point x="62" y="566"/>
      <point x="65" y="591" type="curve"/>
      <point x="139" y="578"/>
      <point x="334" y="580"/>
      <point x="403" y="586" type="curve"/>
      <point x="410" y="580"/>
      <point x="414" y="572"/>
      <point x="417" y="563" type="curve"/>
      <point x="280" y="394"/>
      <point x="175" y="134"/>
      <point x="164" y="7" type="curve"/>
      <point x="137" y="-2"/>
      <point x="95" y="-15"/>
    </contour>
  </outline>
</glyph>
<glyph name="eight" format="1">
  <advance width="415"/>
  <unicode hex="0038"/>
  <outline>
    <contour>
      <point x="275" y="578" type="curve"/>
      <point x="274" y="569"/>
      <point x="270" y="553"/>
      <point x="263" y="548" type="curve"/>
      <point x="254" y="552"/>
      <point x="237" y="557"/>
      <point x="217" y="557" type="curve" smooth="yes"/>
      <point x="187" y="557"/>
      <point x="149" y="538"/>
      <point x="149" y="493" type="curve" smooth="yes"/>
      <point x="149" y="458"/>
      <point x="189" y="427"/>
      <point x="224" y="405" type="curve"/>
      <point x="275" y="456"/>
      <point x="315" y="514"/>
      <point x="342" y="600" type="curve"/>
      <point x="350" y="602"/>
      <point x="366" y="600"/>
      <point x="373" y="597" type="curve"/>
      <point x="358" y="490"/>
      <point x="336" y="455"/>
      <point x="256" y="383" type="curve"/>
      <point x="269" y="374"/>
      <point x="278" y="368"/>
      <point x="290" y="358" type="curve" smooth="yes"/>
      <point x="337" y="320"/>
      <point x="382" y="270"/>
      <point x="381" y="184" type="curve" smooth="yes"/>
      <point x="380" y="77"/>
      <point x="275" y="-13"/>
      <point x="176" y="-13" type="curve" smooth="yes"/>
      <point x="92" y="-13"/>
      <point x="33" y="35"/>
      <point x="33" y="136" type="curve" smooth="yes"/>
      <point x="33" y="226"/>
      <point x="77" y="278"/>
      <point x="155" y="344" type="curve"/>
      <point x="127" y="364"/>
      <point x="114" y="378"/>
      <point x="99" y="395" type="curve" smooth="yes"/>
      <point x="62" y="439"/>
      <point x="64" y="496"/>
      <point x="115" y="553" type="curve" smooth="yes"/>
      <point x="139" y="579"/>
      <point x="168" y="593"/>
      <point x="220" y="593" type="curve" smooth="yes"/>
      <point x="239" y="593"/>
      <point x="261" y="590"/>
    </contour>
    <contour>
      <point x="190" y="323" type="curve"/>
      <point x="134" y="269"/>
      <point x="116" y="215"/>
      <point x="115" y="161" type="curve"/>
      <point x="115" y="84"/>
      <point x="149" y="44"/>
      <point x="197" y="44" type="curve" smooth="yes"/>
      <point x="277" y="44"/>
      <point x="300" y="110"/>
      <point x="300" y="138" type="curve" smooth="yes"/>
      <point x="300" y="221"/>
      <point x="271" y="265"/>
    </contour>
  </outline>
</glyph>
<glyph name="nine" format="1">
  <advance width="424"/>
  <unicode hex="0039"/>
  <outline>
    <contour>
      <point x="167" y="-21" type="curve"/>
      <point x="155" y="-20"/>
      <point x="140" y="-10"/>
      <point x="133" y="0" type="curve"/>
      <point x="230" y="124"/>
      <point x="297" y="237"/>
      <point x="297" y="367" type="curve" smooth="yes"/>
      <point x="297" y="538"/>
      <point x="238" y="552"/>
      <point x="213" y="552" type="curve" smooth="yes"/>
      <point x="143" y="552"/>
      <point x="125" y="488"/>
      <point x="125" y="445" type="curve" smooth="yes"/>
      <point x="125" y="376"/>
      <point x="154" y="345"/>
      <point x="182" y="345" type="curve" smooth="yes"/>
      <point x="203" y="345"/>
      <point x="222" y="349"/>
      <point x="238" y="354" type="curve"/>
      <point x="246" y="346"/>
      <point x="247" y="333"/>
      <point x="249" y="326" type="curve"/>
      <point x="219" y="309"/>
      <point x="181" y="297"/>
      <point x="146" y="297" type="curve" smooth="yes"/>
      <point x="91" y="297"/>
      <point x="37" y="340"/>
      <point x="37" y="434" type="curve" smooth="yes"/>
      <point x="37" y="498"/>
      <point x="97" y="599"/>
      <point x="234" y="599" type="curve" smooth="yes"/>
      <point x="365" y="599"/>
      <point x="386" y="479"/>
      <point x="386" y="403" type="curve" smooth="yes"/>
      <point x="386" y="269"/>
      <point x="270" y="102"/>
    </contour>
  </outline>
</glyph>
<glyph name="colon" format="1">
  <advance width="180"/>
  <unicode hex="003A"/>
  <outline>
    <contour>
      <point x="107" y="75" type="curve" smooth="yes"/>
      <point x="146" y="75"/>
      <point x="154" y="50"/>
      <point x="154" y="36" type="curve" smooth="yes"/>
      <point x="154" y="22"/>
      <point x="137" y="-10"/>
      <point x="88" y="-10" type="curve" smooth="yes"/>
      <point x="62" y="-10"/>
      <point x="42" y="2"/>
      <point x="42" y="28" type="curve" smooth="yes"/>
      <point x="42" y="48"/>
      <point x="65" y="75"/>
    </contour>
    <contour>
      <point x="107" y="362" type="curve" smooth="yes"/>
      <point x="146" y="362"/>
      <point x="154" y="337"/>
      <point x="154" y="323" type="curve" smooth="yes"/>
      <point x="154" y="309"/>
      <point x="137" y="277"/>
      <point x="88" y="277" type="curve" smooth="yes"/>
      <point x="62" y="277"/>
      <point x="42" y="289"/>
      <point x="42" y="315" type="curve" smooth="yes"/>
      <point x="42" y="335"/>
      <point x="65" y="362"/>
    </contour>
  </outline>
</glyph>
<glyph name="semicolon" format="1">
  <advance width="184"/>
  <unicode hex="003B"/>
  <outline>
    <contour>
      <point x="107" y="362" type="curve" smooth="yes"/>
      <point x="146" y="362"/>
      <point x="154" y="337"/>
      <point x="154" y="323" type="curve" smooth="yes"/>
      <point x="154" y="309"/>
      <point x="137" y="277"/>
      <point x="88" y="277" type="curve" smooth="yes"/>
      <point x="62" y="277"/>
      <point x="42" y="289"/>
      <point x="42" y="315" type="curve" smooth="yes"/>
      <point x="42" y="335"/>
      <point x="65" y="362"/>
    </contour>
    <contour>
      <point x="96" y="96" type="curve" smooth="yes"/>
      <point x="118" y="96"/>
      <point x="142" y="78"/>
      <point x="142" y="29" type="curve" smooth="yes"/>
      <point x="142" y="-19"/>
      <point x="91" y="-116"/>
      <point x="50" y="-186" type="curve"/>
      <point x="41" y="-182"/>
      <point x="31" y="-176"/>
      <point x="22" y="-170" type="curve"/>
      <point x="51" y="-111"/>
      <point x="61" y="-72"/>
      <point x="61" y="-32" type="curve" smooth="yes"/>
      <point x="61" y="-2"/>
      <point x="44" y="17"/>
      <point x="44" y="46" type="curve" smooth="yes"/>
      <point x="44" y="75"/>
      <point x="69" y="96"/>
    </contour>
  </outline>
</glyph>
<glyph name="equal" format="1">
  <advance width="416"/>
  <unicode hex="003D"/>
  <outline>
    <contour>
      <point x="52" y="302" type="curve"/>
      <point x="153" y="300"/>
      <point x="293" y="300"/>
      <point x="368" y="300" type="curve"/>
      <point x="369" y="290"/>
      <point x="367" y="269"/>
      <point x="362" y="259" type="curve"/>
      <point x="266" y="261"/>
      <point x="174" y="262"/>
      <point x="49" y="261" type="curve"/>
      <point x="46" y="270"/>
      <point x="50" y="296"/>
    </contour>
    <contour>
      <point x="52" y="185" type="curve"/>
      <point x="153" y="182"/>
      <point x="293" y="182"/>
      <point x="368" y="183" type="curve"/>
      <point x="369" y="172"/>
      <point x="367" y="152"/>
      <point x="362" y="142" type="curve"/>
      <point x="266" y="145"/>
      <point x="174" y="146"/>
      <point x="49" y="145" type="curve"/>
      <point x="46" y="153"/>
      <point x="50" y="179"/>
    </contour>
  </outline>
</glyph>
<glyph name="greater" format="1">
  <advance width="416"/>
  <unicode hex="003E"/>
  <outline>
    <contour>
      <point x="364" y="185" type="curve"/>
      <point x="256" y="129"/>
      <point x="112" y="47"/>
      <point x="68" y="20" type="curve"/>
      <point x="58" y="29"/>
      <point x="55" y="49"/>
      <point x="52" y="60" type="curve"/>
      <point x="112" y="93"/>
      <point x="236" y="157"/>
      <point x="297" y="193" type="curve"/>
      <point x="56" y="337" type="line"/>
      <point x="60" y="349"/>
      <point x="64" y="368"/>
      <point x="77" y="375" type="curve"/>
      <point x="136" y="337"/>
      <point x="263" y="259"/>
      <point x="364" y="202" type="curve"/>
      <point x="365" y="196"/>
      <point x="365" y="191"/>
    </contour>
  </outline>
</glyph>
<glyph name="question" format="1">
  <advance width="262"/>
  <unicode hex="003F"/>
  <outline>
    <contour>
      <point x="98" y="151" type="curve"/>
      <point x="79" y="194"/>
      <point x="65" y="226"/>
      <point x="66" y="263" type="curve" smooth="yes"/>
      <point x="68" y="332"/>
      <point x="139" y="381"/>
      <point x="139" y="452" type="curve" smooth="yes"/>
      <point x="139" y="502"/>
      <point x="109" y="538"/>
      <point x="66" y="573" type="curve"/>
      <point x="72" y="583"/>
      <point x="77" y="593"/>
      <point x="87" y="601" type="curve"/>
      <point x="163" y="544"/>
      <point x="222" y="485"/>
      <point x="222" y="421" type="curve" smooth="yes"/>
      <point x="222" y="336"/>
      <point x="124" y="277"/>
      <point x="123" y="201" type="curve" smooth="yes"/>
      <point x="123" y="190"/>
      <point x="126" y="175"/>
      <point x="131" y="159" type="curve"/>
      <point x="121" y="155"/>
      <point x="108" y="152"/>
    </contour>
    <contour>
      <point x="126" y="75" type="curve" smooth="yes"/>
      <point x="166" y="75"/>
      <point x="174" y="50"/>
      <point x="174" y="36" type="curve" smooth="yes"/>
      <point x="174" y="22"/>
      <point x="156" y="-10"/>
      <point x="107" y="-10" type="curve" smooth="yes"/>
      <point x="81" y="-10"/>
      <point x="61" y="2"/>
      <point x="61" y="28" type="curve" smooth="yes"/>
      <point x="61" y="48"/>
      <point x="84" y="75"/>
    </contour>
  </outline>
</glyph>
<glyph name="at" format="1">
  <advance width="749"/>
  <unicode hex="0040"/>
  <outline>
    <contour>
      <point x="413" y="144" type="curve"/>
      <point x="351" y="89"/>
      <point x="305" y="52"/>
      <point x="223" y="-12" type="curve"/>
      <point x="199" y="8"/>
      <point x="180" y="60"/>
      <point x="180" y="107" type="curve" smooth="yes"/>
      <point x="180" y="256"/>
      <point x="313" y="387"/>
      <point x="436" y="391" type="curve" smooth="yes"/>
      <point x="479" y="392"/>
      <point x="532" y="391"/>
      <point x="567" y="389" type="curve"/>
      <point x="546" y="367"/>
      <point x="521" y="269"/>
      <point x="503" y="174" type="curve" smooth="yes"/>
      <point x="496" y="137"/>
      <point x="490" y="101"/>
      <point x="510" y="68" type="curve"/>
      <point x="596" y="130"/>
      <point x="670" y="209"/>
      <point x="670" y="341" type="curve" smooth="yes"/>
      <point x="670" y="474"/>
      <point x="572" y="522"/>
      <point x="474" y="522" type="curve" smooth="yes"/>
      <point x="281" y="522"/>
      <point x="85" y="358"/>
      <point x="85" y="117" type="curve" smooth="yes"/>
      <point x="85" y="-49"/>
      <point x="163" y="-140"/>
      <point x="313" y="-140" type="curve" smooth="yes"/>
      <point x="351" y="-140"/>
      <point x="434" y="-121"/>
      <point x="459" y="-113" type="curve"/>
      <point x="470" y="-146" type="line"/>
      <point x="434" y="-158"/>
      <point x="344" y="-180"/>
      <point x="306" y="-180" type="curve" smooth="yes"/>
      <point x="125" y="-180"/>
      <point x="38" y="-63"/>
      <point x="38" y="113" type="curve" smooth="yes"/>
      <point x="38" y="382"/>
      <point x="272" y="558"/>
      <point x="480" y="558" type="curve" smooth="yes"/>
      <point x="588" y="558"/>
      <point x="713" y="505"/>
      <point x="713" y="344" type="curve" smooth="yes"/>
      <point x="713" y="206"/>
      <point x="627" y="82"/>
      <point x="457" y="-13" type="curve"/>
      <point x="419" y="10"/>
      <point x="404" y="41"/>
      <point x="404" y="89" type="curve" smooth="yes"/>
      <point x="404" y="96"/>
      <point x="408" y="123"/>
    </contour>
    <contour>
      <point x="457" y="351" type="curve"/>
      <point x="449" y="352"/>
      <point x="442" y="352"/>
      <point x="435" y="352" type="curve" smooth="yes"/>
      <point x="330" y="351"/>
      <point x="265" y="240"/>
      <point x="265" y="158" type="curve" smooth="yes"/>
      <point x="265" y="132"/>
      <point x="268" y="105"/>
      <point x="279" y="87" type="curve"/>
      <point x="317" y="111"/>
      <point x="396" y="174"/>
      <point x="424" y="201" type="curve"/>
      <point x="432" y="226"/>
      <point x="456" y="320"/>
    </contour>
  </outline>
</glyph>
<glyph name="A" format="1">
  <advance width="514"/>
  <unicode hex="0041"/>
  <outline>
    <contour>
      <point x="325" y="217" type="curve"/>
      <point x="272" y="215"/>
      <point x="196" y="208"/>
      <point x="149" y="202" type="curve"/>
      <point x="110" y="107"/>
      <point x="96" y="66"/>
      <point x="82" y="4" type="curve"/>
      <point x="62" y="5"/>
      <point x="17" y="-1"/>
      <point x="-8" y="-7" type="curve"/>
      <point x="77" y="137"/>
      <point x="141" y="281"/>
      <point x="210" y="441" type="curve" smooth="yes"/>
      <point x="242" y="513"/>
      <point x="251" y="543"/>
      <point x="261" y="588" type="curve"/>
      <point x="272" y="593"/>
      <point x="280" y="595"/>
      <point x="292" y="598" type="curve"/>
      <point x="360" y="365"/>
      <point x="426" y="172"/>
      <point x="497" y="-2" type="curve"/>
      <point x="455" y="3"/>
      <point x="404" y="1"/>
      <point x="381" y="-2" type="curve"/>
      <point x="370" y="59"/>
      <point x="352" y="128"/>
    </contour>
    <contour>
      <point x="254" y="457" type="curve"/>
      <point x="166" y="246" type="line"/>
      <point x="220" y="245"/>
      <point x="267" y="248"/>
      <point x="315" y="252" type="curve"/>
      <point x="299" y="310"/>
      <point x="285" y="350"/>
      <point x="272" y="393" type="curve" smooth="yes"/>
      <point x="266" y="410"/>
      <point x="259" y="435"/>
    </contour>
  </outline>
</glyph>
<glyph name="B" format="1">
  <advance width="480"/>
  <unicode hex="0042"/>
  <outline>
    <contour>
      <point x="55" y="582" type="curve"/>
      <point x="91" y="578"/>
      <point x="171" y="583"/>
      <point x="217" y="583" type="curve" smooth="yes"/>
      <point x="305" y="584"/>
      <point x="414" y="569"/>
      <point x="414" y="474" type="curve" smooth="yes"/>
      <point x="414" y="431"/>
      <point x="389" y="379"/>
      <point x="309" y="343" type="curve"/>
      <point x="310" y="340" type="line"/>
      <point x="392" y="340"/>
      <point x="455" y="308"/>
      <point x="455" y="217" type="curve" smooth="yes"/>
      <point x="455" y="100"/>
      <point x="317" y="0"/>
      <point x="176" y="-2" type="curve" smooth="yes"/>
      <point x="141" y="-2"/>
      <point x="87" y="-4"/>
      <point x="48" y="-1" type="curve"/>
      <point x="57" y="204"/>
      <point x="59" y="470"/>
    </contour>
    <contour>
      <point x="147" y="543" type="curve"/>
      <point x="142" y="337"/>
      <point x="141" y="227"/>
      <point x="147" y="40" type="curve"/>
      <point x="158" y="37"/>
      <point x="168" y="37"/>
      <point x="180" y="37" type="curve" smooth="yes"/>
      <point x="269" y="38"/>
      <point x="367" y="106"/>
      <point x="364" y="208" type="curve"/>
      <point x="360" y="294"/>
      <point x="300" y="311"/>
      <point x="216" y="308" type="curve"/>
      <point x="212" y="314"/>
      <point x="212" y="326"/>
      <point x="213" y="335" type="curve"/>
      <point x="285" y="356"/>
      <point x="321" y="400"/>
      <point x="321" y="467" type="curve" smooth="yes"/>
      <point x="321" y="516"/>
      <point x="285" y="543"/>
      <point x="224" y="546" type="curve" smooth="yes"/>
      <point x="203" y="547"/>
      <point x="173" y="547"/>
    </contour>
  </outline>
</glyph>
<glyph name="C" format="1">
  <advance width="548"/>
  <unicode hex="0043"/>
  <outline>
    <contour>
      <point x="295" y="-14" type="curve"/>
      <point x="108" y="-11"/>
      <point x="33" y="124"/>
      <point x="33" y="245" type="curve" smooth="yes"/>
      <point x="33" y="422"/>
      <point x="158" y="595"/>
      <point x="372" y="595" type="curve" smooth="yes"/>
      <point x="402" y="595"/>
      <point x="466" y="579"/>
      <point x="496" y="559" type="curve"/>
      <point x="494" y="550"/>
      <point x="485" y="535"/>
      <point x="479" y="530" type="curve"/>
      <point x="445" y="545"/>
      <point x="398" y="553"/>
      <point x="368" y="553" type="curve" smooth="yes"/>
      <point x="201" y="553"/>
      <point x="128" y="400"/>
      <point x="128" y="251" type="curve" smooth="yes"/>
      <point x="128" y="128"/>
      <point x="201" y="43"/>
      <point x="320" y="42" type="curve" smooth="yes"/>
      <point x="369" y="41"/>
      <point x="440" y="53"/>
      <point x="500" y="85" type="curve"/>
      <point x="509" y="77"/>
      <point x="515" y="63"/>
      <point x="517" y="54" type="curve"/>
      <point x="462" y="23"/>
      <point x="362" y="-14"/>
    </contour>
  </outline>
</glyph>
<glyph name="D" format="1">
  <advance width="571"/>
  <unicode hex="0044"/>
  <outline>
    <contour>
      <point x="274" y="582" type="curve" smooth="yes"/>
      <point x="448" y="579"/>
      <point x="543" y="495"/>
      <point x="543" y="379" type="curve" smooth="yes"/>
      <point x="543" y="186"/>
      <point x="390" y="5"/>
      <point x="188" y="1" type="curve" smooth="yes"/>
      <point x="150" y="0"/>
      <point x="99" y="-1"/>
      <point x="48" y="3" type="curve"/>
      <point x="62" y="61"/>
      <point x="71" y="395"/>
      <point x="64" y="583" type="curve"/>
      <point x="106" y="581"/>
      <point x="246" y="582"/>
    </contour>
    <contour>
      <point x="159" y="544" type="curve"/>
      <point x="152" y="394"/>
      <point x="151" y="204"/>
      <point x="156" y="43" type="curve"/>
      <point x="168" y="42"/>
      <point x="179" y="42"/>
      <point x="193" y="42" type="curve" smooth="yes"/>
      <point x="327" y="42"/>
      <point x="446" y="186"/>
      <point x="446" y="335" type="curve" smooth="yes"/>
      <point x="446" y="484"/>
      <point x="377" y="538"/>
      <point x="256" y="544" type="curve" smooth="yes"/>
      <point x="221" y="546"/>
      <point x="182" y="546"/>
    </contour>
  </outline>
</glyph>
<glyph name="E" format="1">
  <advance width="439"/>
  <unicode hex="0045"/>
  <outline>
    <contour>
      <point x="55" y="583" type="curve"/>
      <point x="140" y="580"/>
      <point x="290" y="582"/>
      <point x="404" y="584" type="curve"/>
      <point x="402" y="548" type="line"/>
      <point x="301" y="545"/>
      <point x="249" y="544"/>
      <point x="156" y="540" type="curve"/>
      <point x="152" y="501"/>
      <point x="151" y="373"/>
      <point x="151" y="350" type="curve"/>
      <point x="229" y="349"/>
      <point x="289" y="349"/>
      <point x="365" y="353" type="curve"/>
      <point x="367" y="319" type="line"/>
      <point x="303" y="316"/>
      <point x="217" y="310"/>
      <point x="151" y="305" type="curve"/>
      <point x="150" y="246"/>
      <point x="151" y="109"/>
      <point x="154" y="45" type="curve"/>
      <point x="229" y="41"/>
      <point x="305" y="37"/>
      <point x="422" y="37" type="curve"/>
      <point x="424" y="-2" type="line"/>
      <point x="190" y="2"/>
      <point x="162" y="2"/>
      <point x="48" y="-2" type="curve"/>
      <point x="61" y="84"/>
      <point x="64" y="531"/>
    </contour>
  </outline>
</glyph>
<glyph name="F" format="1">
  <advance width="423"/>
  <unicode hex="0046"/>
  <outline>
    <contour>
      <point x="419" y="582" type="curve"/>
      <point x="415" y="547" type="line"/>
      <point x="315" y="543"/>
      <point x="251" y="543"/>
      <point x="158" y="538" type="curve"/>
      <point x="156" y="514"/>
      <point x="151" y="421"/>
      <point x="152" y="347" type="curve"/>
      <point x="231" y="347"/>
      <point x="286" y="350"/>
      <point x="362" y="354" type="curve"/>
      <point x="363" y="319" type="line"/>
      <point x="339" y="318"/>
      <point x="218" y="310"/>
      <point x="151" y="303" type="curve"/>
      <point x="149" y="245"/>
      <point x="149" y="52"/>
      <point x="158" y="-2" type="curve"/>
      <point x="132" y="2"/>
      <point x="72" y="3"/>
      <point x="48" y="0" type="curve"/>
      <point x="60" y="117"/>
      <point x="62" y="424"/>
      <point x="57" y="583" type="curve"/>
      <point x="141" y="579"/>
      <point x="305" y="579"/>
    </contour>
  </outline>
</glyph>
<glyph name="H" format="1">
  <advance width="621"/>
  <unicode hex="0048"/>
  <outline>
    <contour>
      <point x="59" y="583" type="curve"/>
      <point x="77" y="582"/>
      <point x="141" y="580"/>
      <point x="163" y="583" type="curve"/>
      <point x="155" y="507"/>
      <point x="152" y="390"/>
      <point x="152" y="339" type="curve"/>
      <point x="228" y="340"/>
      <point x="391" y="345"/>
      <point x="473" y="353" type="curve"/>
      <point x="474" y="429"/>
      <point x="474" y="533"/>
      <point x="469" y="583" type="curve"/>
      <point x="495" y="580"/>
      <point x="548" y="579"/>
      <point x="573" y="583" type="curve"/>
      <point x="558" y="456"/>
      <point x="558" y="146"/>
      <point x="568" y="-2" type="curve"/>
      <point x="550" y="-1"/>
      <point x="485" y="1"/>
      <point x="464" y="-2" type="curve"/>
      <point x="471" y="69"/>
      <point x="471" y="246"/>
      <point x="473" y="315" type="curve"/>
      <point x="426" y="314"/>
      <point x="214" y="296"/>
      <point x="151" y="290" type="curve"/>
      <point x="149" y="231"/>
      <point x="146" y="62"/>
      <point x="151" y="-2" type="curve"/>
      <point x="126" y="1"/>
      <point x="72" y="3"/>
      <point x="48" y="0" type="curve"/>
      <point x="62" y="117"/>
      <point x="67" y="424"/>
    </contour>
  </outline>
</glyph>
<glyph name="I" format="1">
  <advance width="205"/>
  <unicode hex="0049"/>
  <outline>
    <contour>
      <point x="55" y="583" type="curve"/>
      <point x="72" y="579"/>
      <point x="135" y="581"/>
      <point x="156" y="583" type="curve"/>
      <point x="141" y="387"/>
      <point x="143" y="146"/>
      <point x="151" y="-2" type="curve"/>
      <point x="125" y="1"/>
      <point x="72" y="3"/>
      <point x="48" y="0" type="curve"/>
      <point x="61" y="133"/>
      <point x="62" y="424"/>
    </contour>
  </outline>
</glyph>
<glyph name="J" format="1">
  <advance width="214"/>
  <unicode hex="004A"/>
  <outline>
    <contour>
      <point x="67" y="583" type="curve"/>
      <point x="84" y="579"/>
      <point x="144" y="581"/>
      <point x="166" y="583" type="curve"/>
      <point x="154" y="441"/>
      <point x="156" y="295"/>
      <point x="156" y="150" type="curve" smooth="yes"/>
      <point x="156" y="-3"/>
      <point x="141" y="-65"/>
      <point x="87" y="-148" type="curve"/>
      <point x="48" y="-206"/>
      <point x="-50" y="-266"/>
      <point x="-144" y="-226" type="curve"/>
      <point x="-141" y="-215"/>
      <point x="-137" y="-202"/>
      <point x="-131" y="-191" type="curve"/>
      <point x="-111" y="-196"/>
      <point x="-98" y="-197"/>
      <point x="-74" y="-197" type="curve" smooth="yes"/>
      <point x="-39" y="-197"/>
      <point x="67" y="-172"/>
      <point x="70" y="133" type="curve" smooth="yes"/>
      <point x="71" y="254"/>
      <point x="71" y="473"/>
    </contour>
  </outline>
</glyph>
<glyph name="K" format="1">
  <advance width="588"/>
  <unicode hex="004B"/>
  <outline>
    <contour>
      <point x="156" y="583" type="curve"/>
      <point x="151" y="517"/>
      <point x="148" y="442"/>
      <point x="148" y="390" type="curve"/>
      <point x="263" y="440"/>
      <point x="444" y="531"/>
      <point x="549" y="601" type="curve"/>
      <point x="534" y="567"/>
      <point x="524" y="529"/>
      <point x="517" y="503" type="curve"/>
      <point x="455" y="479"/>
      <point x="364" y="441"/>
      <point x="327" y="423" type="curve"/>
      <point x="400" y="286"/>
      <point x="504" y="102"/>
      <point x="584" y="-1" type="curve"/>
      <point x="543" y="2"/>
      <point x="482" y="3"/>
      <point x="449" y="-2" type="curve"/>
      <point x="395" y="122"/>
      <point x="301" y="290"/>
      <point x="242" y="390" type="curve"/>
      <point x="205" y="375"/>
      <point x="193" y="370"/>
      <point x="146" y="347" type="curve"/>
      <point x="143" y="215"/>
      <point x="146" y="91"/>
      <point x="151" y="-2" type="curve"/>
      <point x="125" y="1"/>
      <point x="72" y="3"/>
      <point x="48" y="0" type="curve"/>
      <point x="61" y="133"/>
      <point x="62" y="424"/>
      <point x="55" y="583" type="curve"/>
      <point x="72" y="579"/>
      <point x="135" y="581"/>
    </contour>
  </outline>
</glyph>
<glyph name="M" format="1">
  <advance width="828"/>
  <unicode hex="004D"/>
  <outline>
    <contour>
      <point x="10" y="-3" type="curve"/>
      <point x="78" y="138"/>
      <point x="134" y="310"/>
      <point x="179" y="452" type="curve" smooth="yes"/>
      <point x="189" y="483"/>
      <point x="205" y="554"/>
      <point x="205" y="583" type="curve"/>
      <point x="215" y="586"/>
      <point x="223" y="586"/>
      <point x="236" y="592" type="curve"/>
      <point x="256" y="519"/>
      <point x="341" y="314"/>
      <point x="394" y="186" type="curve" smooth="yes"/>
      <point x="403" y="165"/>
      <point x="410" y="146"/>
      <point x="415" y="128" type="curve"/>
      <point x="463" y="221"/>
      <point x="553" y="414"/>
      <point x="569" y="454" type="curve" smooth="yes"/>
      <point x="593" y="515"/>
      <point x="600" y="537"/>
      <point x="609" y="582" type="curve"/>
      <point x="622" y="583"/>
      <point x="631" y="586"/>
      <point x="641" y="589" type="curve"/>
      <point x="672" y="439"/>
      <point x="761" y="68"/>
      <point x="793" y="-2" type="curve"/>
      <point x="767" y="3"/>
      <point x="692" y="1"/>
      <point x="672" y="-2" type="curve"/>
      <point x="661" y="91"/>
      <point x="632" y="236"/>
      <point x="606" y="347" type="curve" smooth="yes"/>
      <point x="601" y="370"/>
      <point x="596" y="394"/>
      <point x="593" y="414" type="curve"/>
      <point x="524" y="270"/>
      <point x="455" y="127"/>
      <point x="413" y="3" type="curve"/>
      <point x="404" y="-2"/>
      <point x="384" y="-9"/>
      <point x="370" y="-17" type="curve"/>
      <point x="306" y="175"/>
      <point x="271" y="246"/>
      <point x="228" y="357" type="curve" smooth="yes"/>
      <point x="221" y="375"/>
      <point x="215" y="395"/>
      <point x="208" y="415" type="curve"/>
      <point x="163" y="268"/>
      <point x="122" y="124"/>
      <point x="97" y="3" type="curve"/>
      <point x="70" y="2"/>
      <point x="41" y="0"/>
    </contour>
  </outline>
</glyph>
<glyph name="N" format="1">
  <advance width="614"/>
  <unicode hex="004E"/>
  <outline>
    <contour>
      <point x="555" y="3" type="curve"/>
      <point x="530" y="-7" type="line"/>
      <point x="396" y="157"/>
      <point x="180" y="349"/>
      <point x="104" y="432" type="curve"/>
      <point x="102" y="298"/>
      <point x="122" y="42"/>
      <point x="129" y="9" type="curve"/>
      <point x="102" y="5"/>
      <point x="79" y="2"/>
      <point x="47" y="-14" type="curve"/>
      <point x="63" y="97"/>
      <point x="67" y="400"/>
      <point x="63" y="582" type="curve"/>
      <point x="72" y="586"/>
      <point x="76" y="587"/>
      <point x="88" y="593" type="curve"/>
      <point x="197" y="451"/>
      <point x="378" y="304"/>
      <point x="506" y="170" type="curve"/>
      <point x="506" y="342"/>
      <point x="500" y="475"/>
      <point x="488" y="575" type="curve"/>
      <point x="509" y="579"/>
      <point x="547" y="587"/>
      <point x="568" y="596" type="curve"/>
      <point x="553" y="558"/>
      <point x="546" y="313"/>
      <point x="548" y="103" type="curve" smooth="yes"/>
      <point x="548" y="76"/>
      <point x="551" y="36"/>
    </contour>
  </outline>
</glyph>
<glyph name="P" format="1">
  <advance width="468"/>
  <unicode hex="0050"/>
  <outline>
    <contour>
      <point x="48" y="-1" type="curve"/>
      <point x="62" y="83"/>
      <point x="61" y="505"/>
      <point x="52" y="583" type="curve"/>
      <point x="90" y="579"/>
      <point x="156" y="583"/>
      <point x="235" y="583" type="curve" smooth="yes"/>
      <point x="358" y="583"/>
      <point x="443" y="568"/>
      <point x="443" y="454" type="curve" smooth="yes"/>
      <point x="443" y="389"/>
      <point x="381" y="322"/>
      <point x="211" y="277" type="curve" smooth="yes"/>
      <point x="208" y="277"/>
      <point x="201" y="305"/>
      <point x="201" y="309" type="curve"/>
      <point x="293" y="337"/>
      <point x="346" y="372"/>
      <point x="346" y="454" type="curve" smooth="yes"/>
      <point x="346" y="521"/>
      <point x="287" y="546"/>
      <point x="231" y="546" type="curve" smooth="yes"/>
      <point x="198" y="546"/>
      <point x="163" y="544"/>
      <point x="146" y="542" type="curve"/>
      <point x="138" y="431"/>
      <point x="151" y="54"/>
      <point x="156" y="-1" type="curve"/>
      <point x="136" y="2"/>
      <point x="72" y="2"/>
    </contour>
  </outline>
</glyph>
<glyph name="Q" format="1">
  <advance width="677"/>
  <unicode hex="0051"/>
  <outline>
    <contour>
      <point x="357" y="594" type="curve" smooth="yes"/>
      <point x="511" y="594"/>
      <point x="625" y="482"/>
      <point x="626" y="315" type="curve" smooth="yes"/>
      <point x="626" y="211"/>
      <point x="577" y="110"/>
      <point x="493" y="45" type="curve" smooth="yes"/>
      <point x="459" y="18"/>
      <point x="415" y="2"/>
      <point x="377" y="-4" type="curve" smooth="yes"/>
      <point x="376" y="-4"/>
      <point x="376" y="-5"/>
      <point x="375" y="-5" type="curve"/>
      <point x="463" y="-57"/>
      <point x="593" y="-111"/>
      <point x="681" y="-131" type="curve"/>
      <point x="631" y="-151"/>
      <point x="594" y="-170"/>
      <point x="564" y="-188" type="curve"/>
      <point x="478" y="-119"/>
      <point x="409" y="-70"/>
      <point x="321" y="-14" type="curve"/>
      <point x="313" y="-15"/>
      <point x="305" y="-16"/>
      <point x="297" y="-16" type="curve" smooth="yes"/>
      <point x="109" y="-16"/>
      <point x="35" y="154"/>
      <point x="35" y="276" type="curve"/>
      <point x="37" y="359"/>
      <point x="79" y="480"/>
      <point x="181" y="543" type="curve" smooth="yes"/>
      <point x="219" y="566"/>
      <point x="300" y="594"/>
    </contour>
    <contour>
      <point x="343" y="548" type="curve" smooth="yes"/>
      <point x="261" y="548"/>
      <point x="132" y="486"/>
      <point x="132" y="278" type="curve" smooth="yes"/>
      <point x="132" y="159"/>
      <point x="200" y="30"/>
      <point x="320" y="30" type="curve" smooth="yes"/>
      <point x="394" y="30"/>
      <point x="530" y="92"/>
      <point x="530" y="311" type="curve" smooth="yes"/>
      <point x="530" y="449"/>
      <point x="449" y="548"/>
    </contour>
  </outline>
</glyph>
<glyph name="R" format="1">
  <advance width="538"/>
  <unicode hex="0052"/>
  <outline>
    <contour>
      <point x="190" y="582" type="curve" smooth="yes"/>
      <point x="294" y="582"/>
      <point x="450" y="591"/>
      <point x="451" y="484" type="curve" smooth="yes"/>
      <point x="451" y="437"/>
      <point x="411" y="380"/>
      <point x="312" y="344" type="curve"/>
      <point x="371" y="239"/>
      <point x="467" y="72"/>
      <point x="538" y="-1" type="curve"/>
      <point x="500" y="2"/>
      <point x="446" y="3"/>
      <point x="411" y="-6" type="curve"/>
      <point x="370" y="66"/>
      <point x="266" y="260"/>
      <point x="206" y="338" type="curve"/>
      <point x="211" y="344"/>
      <point x="217" y="354"/>
      <point x="221" y="355" type="curve" smooth="yes"/>
      <point x="295" y="366"/>
      <point x="350" y="409"/>
      <point x="350" y="467" type="curve" smooth="yes"/>
      <point x="350" y="528"/>
      <point x="288" y="547"/>
      <point x="212" y="546" type="curve" smooth="yes"/>
      <point x="191" y="546"/>
      <point x="169" y="545"/>
      <point x="151" y="543" type="curve"/>
      <point x="143" y="445"/>
      <point x="144" y="189"/>
      <point x="158" y="0" type="curve"/>
      <point x="127" y="3"/>
      <point x="78" y="2"/>
      <point x="48" y="-5" type="curve"/>
      <point x="62" y="108"/>
      <point x="57" y="509"/>
      <point x="49" y="583" type="curve"/>
      <point x="76" y="580"/>
      <point x="156" y="582"/>
    </contour>
  </outline>
</glyph>
<glyph name="T" format="1">
  <advance width="441"/>
  <unicode hex="0054"/>
  <outline>
    <contour>
      <point x="6" y="583" type="curve"/>
      <point x="198" y="578"/>
      <point x="263" y="579"/>
      <point x="435" y="583" type="curve"/>
      <point x="438" y="575"/>
      <point x="437" y="562"/>
      <point x="436" y="551" type="curve"/>
      <point x="368" y="544"/>
      <point x="315" y="542"/>
      <point x="266" y="534" type="curve"/>
      <point x="262" y="441"/>
      <point x="261" y="201"/>
      <point x="272" y="-2" type="curve"/>
      <point x="246" y="2"/>
      <point x="203" y="2"/>
      <point x="166" y="-1" type="curve"/>
      <point x="174" y="46"/>
      <point x="179" y="482"/>
      <point x="175" y="534" type="curve"/>
      <point x="128" y="542"/>
      <point x="87" y="543"/>
      <point x="5" y="549" type="curve"/>
      <point x="3" y="557"/>
      <point x="2" y="571"/>
    </contour>
  </outline>
</glyph>
<glyph name="V" format="1">
  <advance width="538"/>
  <unicode hex="0056"/>
  <outline>
    <contour>
      <point x="26" y="584" type="curve"/>
      <point x="64" y="579"/>
      <point x="106" y="580"/>
      <point x="145" y="585" type="curve"/>
      <point x="167" y="458"/>
      <point x="211" y="337"/>
      <point x="259" y="195" type="curve" smooth="yes"/>
      <point x="266" y="176"/>
      <point x="273" y="154"/>
      <point x="278" y="132" type="curve"/>
      <point x="335" y="257"/>
      <point x="419" y="456"/>
      <point x="457" y="575" type="curve"/>
      <point x="483" y="578"/>
      <point x="519" y="583"/>
      <point x="545" y="594" type="curve"/>
      <point x="511" y="542"/>
      <point x="355" y="205"/>
      <point x="337" y="165" type="curve" smooth="yes"/>
      <point x="318" y="122"/>
      <point x="292" y="55"/>
      <point x="281" y="12" type="curve"/>
      <point x="270" y="-1"/>
      <point x="251" y="-12"/>
      <point x="227" y="-20" type="curve"/>
      <point x="169" y="183"/>
      <point x="108" y="385"/>
    </contour>
  </outline>
</glyph>
<glyph name="W" format="1">
  <advance width="862"/>
  <unicode hex="0057"/>
  <outline>
    <contour>
      <point x="26" y="584" type="curve"/>
      <point x="64" y="579"/>
      <point x="108" y="580"/>
      <point x="147" y="585" type="curve"/>
      <point x="165" y="458"/>
      <point x="184" y="375"/>
      <point x="222" y="228" type="curve" smooth="yes"/>
      <point x="226" y="211"/>
      <point x="239" y="167"/>
      <point x="244" y="146" type="curve"/>
      <point x="302" y="271"/>
      <point x="395" y="457"/>
      <point x="433" y="576" type="curve"/>
      <point x="444" y="583"/>
      <point x="461" y="590"/>
      <point x="480" y="595" type="curve"/>
      <point x="508" y="470"/>
      <point x="543" y="355"/>
      <point x="589" y="215" type="curve" smooth="yes"/>
      <point x="596" y="195"/>
      <point x="604" y="166"/>
      <point x="611" y="145" type="curve"/>
      <point x="668" y="270"/>
      <point x="742" y="456"/>
      <point x="776" y="575" type="curve"/>
      <point x="801" y="578"/>
      <point x="844" y="584"/>
      <point x="870" y="595" type="curve"/>
      <point x="834" y="543"/>
      <point x="683" y="206"/>
      <point x="665" y="165" type="curve"/>
      <point x="628" y="86"/>
      <point x="623" y="64"/>
      <point x="603" y="-2" type="curve"/>
      <point x="594" y="-11"/>
      <point x="580" y="-22"/>
      <point x="563" y="-28" type="curve"/>
      <point x="526" y="112"/>
      <point x="489" y="235"/>
      <point x="452" y="351" type="curve" smooth="yes"/>
      <point x="443" y="380"/>
      <point x="434" y="416"/>
      <point x="427" y="444" type="curve"/>
      <point x="372" y="325"/>
      <point x="296" y="163"/>
      <point x="285" y="136" type="curve"/>
      <point x="266" y="94"/>
      <point x="243" y="42"/>
      <point x="232" y="-1" type="curve"/>
      <point x="216" y="-15"/>
      <point x="204" y="-20"/>
      <point x="187" y="-27" type="curve"/>
      <point x="143" y="178"/>
      <point x="89" y="401"/>
    </contour>
  </outline>
</glyph>
<glyph name="X" format="1">
  <advance width="615"/>
  <unicode hex="0058"/>
  <outline>
    <contour>
      <point x="333" y="375" type="curve"/>
      <point x="397" y="452"/>
      <point x="440" y="516"/>
      <point x="466" y="575" type="curve"/>
      <point x="489" y="576"/>
      <point x="534" y="582"/>
      <point x="573" y="592" type="curve"/>
      <point x="514" y="539"/>
      <point x="405" y="412"/>
      <point x="355" y="345" type="curve"/>
      <point x="424" y="236"/>
      <point x="489" y="114"/>
      <point x="586" y="-1" type="curve"/>
      <point x="561" y="2"/>
      <point x="471" y="2"/>
      <point x="444" y="-1" type="curve"/>
      <point x="408" y="93"/>
      <point x="326" y="225"/>
      <point x="289" y="283" type="curve"/>
      <point x="238" y="216"/>
      <point x="145" y="81"/>
      <point x="111" y="8" type="curve"/>
      <point x="72" y="2"/>
      <point x="35" y="1"/>
      <point x="-15" y="-17" type="curve"/>
      <point x="69" y="66"/>
      <point x="205" y="228"/>
      <point x="268" y="313" type="curve"/>
      <point x="224" y="387"/>
      <point x="90" y="573"/>
      <point x="75" y="583" type="curve"/>
      <point x="99" y="580"/>
      <point x="179" y="577"/>
      <point x="218" y="583" type="curve"/>
      <point x="258" y="501"/>
      <point x="298" y="434"/>
    </contour>
  </outline>
</glyph>
<glyph name="Y" format="1">
  <advance width="479"/>
  <unicode hex="0059"/>
  <outline>
    <contour>
      <point x="5" y="583" type="curve"/>
      <point x="54" y="579"/>
      <point x="95" y="580"/>
      <point x="136" y="583" type="curve"/>
      <point x="166" y="502"/>
      <point x="213" y="423"/>
      <point x="264" y="350" type="curve"/>
      <point x="325" y="430"/>
      <point x="372" y="502"/>
      <point x="408" y="577" type="curve"/>
      <point x="434" y="578"/>
      <point x="464" y="580"/>
      <point x="500" y="588" type="curve"/>
      <point x="404" y="480"/>
      <point x="364" y="426"/>
      <point x="276" y="301" type="curve"/>
      <point x="273" y="161"/>
      <point x="275" y="72"/>
      <point x="285" y="-1" type="curve"/>
      <point x="249" y="2"/>
      <point x="210" y="3"/>
      <point x="180" y="-1" type="curve"/>
      <point x="186" y="62"/>
      <point x="191" y="218"/>
      <point x="186" y="302" type="curve"/>
      <point x="146" y="381"/>
      <point x="48" y="533"/>
    </contour>
  </outline>
</glyph>
<glyph name="Z" format="1">
  <advance width="530"/>
  <unicode hex="005A"/>
  <outline>
    <contour>
      <point x="80" y="587" type="curve"/>
      <point x="208" y="581"/>
      <point x="428" y="578"/>
      <point x="471" y="587" type="curve"/>
      <point x="479" y="579"/>
      <point x="479" y="573"/>
      <point x="479" y="563" type="curve"/>
      <point x="459" y="548"/>
      <point x="437" y="526"/>
      <point x="419" y="502" type="curve" smooth="yes"/>
      <point x="123" y="83" type="line"/>
      <point x="182" y="80"/>
      <point x="420" y="80"/>
      <point x="499" y="97" type="curve"/>
      <point x="490" y="67"/>
      <point x="484" y="19"/>
      <point x="482" y="-6" type="curve"/>
      <point x="287" y="7"/>
      <point x="79" y="3"/>
      <point x="23" y="-6" type="curve"/>
      <point x="18" y="-1"/>
      <point x="14" y="13"/>
      <point x="15" y="20" type="curve"/>
      <point x="33" y="35"/>
      <point x="61" y="64"/>
      <point x="79" y="88" type="curve" smooth="yes"/>
      <point x="175" y="215"/>
      <point x="296" y="389"/>
      <point x="372" y="502" type="curve"/>
      <point x="265" y="506"/>
      <point x="132" y="501"/>
      <point x="67" y="488" type="curve"/>
      <point x="76" y="517"/>
      <point x="78" y="559"/>
    </contour>
  </outline>
</glyph>
<glyph name="bracketleft" format="1">
  <advance width="241"/>
  <unicode hex="005B"/>
  <outline>
    <contour>
      <point x="207" y="-30" type="curve"/>
      <point x="211" y="-37"/>
      <point x="211" y="-55"/>
      <point x="211" y="-64" type="curve"/>
      <point x="145" y="-69"/>
      <point x="87" y="-75"/>
      <point x="27" y="-88" type="curve"/>
      <point x="42" y="31"/>
      <point x="41" y="470"/>
      <point x="33" y="583" type="curve"/>
      <point x="72" y="580"/>
      <point x="165" y="581"/>
      <point x="206" y="583" type="curve"/>
      <point x="207" y="576"/>
      <point x="208" y="558"/>
      <point x="205" y="552" type="curve"/>
      <point x="183" y="551"/>
      <point x="151" y="549"/>
      <point x="130" y="546" type="curve"/>
      <point x="121" y="391"/>
      <point x="120" y="176"/>
      <point x="126" y="-31" type="curve"/>
      <point x="161" y="-32"/>
      <point x="181" y="-32"/>
    </contour>
  </outline>
</glyph>
<glyph name="backslash" format="1">
  <advance width="299"/>
  <unicode hex="005C"/>
  <outline>
    <contour>
      <point x="22" y="600" type="line"/>
      <point x="27" y="604"/>
      <point x="59" y="606"/>
      <point x="68" y="605" type="curve"/>
      <point x="278" y="-42" type="line"/>
      <point x="267" y="-47"/>
      <point x="241" y="-47"/>
      <point x="231" y="-46" type="curve"/>
    </contour>
  </outline>
</glyph>
<glyph name="bracketright" format="1">
  <advance width="242"/>
  <unicode hex="005D"/>
  <outline>
    <contour>
      <point x="215" y="583" type="curve"/>
      <point x="201" y="459"/>
      <point x="200" y="42"/>
      <point x="209" y="-66" type="curve"/>
      <point x="165" y="-68"/>
      <point x="82" y="-79"/>
      <point x="34" y="-88" type="curve"/>
      <point x="31" y="-81"/>
      <point x="29" y="-66"/>
      <point x="30" y="-56" type="curve"/>
      <point x="62" y="-49"/>
      <point x="82" y="-46"/>
      <point x="112" y="-32" type="curve"/>
      <point x="121" y="127"/>
      <point x="116" y="380"/>
      <point x="116" y="543" type="curve"/>
      <point x="96" y="545"/>
      <point x="62" y="547"/>
      <point x="42" y="547" type="curve"/>
      <point x="40" y="557"/>
      <point x="39" y="572"/>
      <point x="41" y="582" type="curve"/>
      <point x="94" y="579"/>
      <point x="159" y="580"/>
    </contour>
  </outline>
</glyph>
<glyph name="underscore" format="1">
  <advance width="529"/>
  <unicode hex="005F"/>
  <outline>
    <contour>
      <point x="5" y="-89" type="curve"/>
      <point x="231" y="-92"/>
      <point x="303" y="-92"/>
      <point x="528" y="-91" type="curve"/>
      <point x="529" y="-102"/>
      <point x="527" y="-124"/>
      <point x="522" y="-134" type="curve"/>
      <point x="296" y="-132"/>
      <point x="226" y="-131"/>
      <point x="2" y="-132" type="curve"/>
      <point x="-2" y="-123"/>
      <point x="2" y="-95"/>
    </contour>
  </outline>
</glyph>
<glyph name="grave" format="1">
  <advance width="416"/>
  <unicode hex="0060"/>
  <outline>
    <contour>
      <point x="140" y="570" type="curve"/>
      <point x="177" y="545"/>
      <point x="250" y="506"/>
      <point x="309" y="479" type="curve"/>
      <point x="308" y="470"/>
      <point x="302" y="459"/>
      <point x="297" y="450" type="curve"/>
      <point x="232" y="470"/>
      <point x="183" y="482"/>
      <point x="114" y="493" type="curve"/>
      <point x="123" y="511"/>
      <point x="137" y="551"/>
    </contour>
  </outline>
</glyph>
<glyph name="b" format="1">
  <advance width="476"/>
  <unicode hex="0062"/>
  <outline>
    <contour>
      <point x="49" y="670" type="curve"/>
      <point x="79" y="677"/>
      <point x="141" y="687"/>
      <point x="163" y="697" type="curve"/>
      <point x="150" y="593"/>
      <point x="149" y="467"/>
      <point x="147" y="352" type="curve"/>
      <point x="195" y="374"/>
      <point x="245" y="396"/>
      <point x="299" y="396" type="curve" smooth="yes"/>
      <point x="382" y="396"/>
      <point x="435" y="347"/>
      <point x="439" y="248" type="curve"/>
      <point x="445" y="133"/>
      <point x="360" y="-11"/>
      <point x="205" y="-11" type="curve" smooth="yes"/>
      <point x="139" y="-11"/>
      <point x="64" y="17"/>
      <point x="47" y="33" type="curve"/>
      <point x="67" y="233"/>
      <point x="69" y="603"/>
    </contour>
    <contour>
      <point x="147" y="48" type="curve"/>
      <point x="170" y="33"/>
      <point x="187" y="29"/>
      <point x="212" y="29" type="curve" smooth="yes"/>
      <point x="317" y="29"/>
      <point x="349" y="141"/>
      <point x="348" y="231" type="curve" smooth="yes"/>
      <point x="347" y="307"/>
      <point x="300" y="340"/>
      <point x="257" y="340" type="curve" smooth="yes"/>
      <point x="216" y="340"/>
      <point x="180" y="330"/>
      <point x="146" y="314" type="curve"/>
      <point x="144" y="261"/>
      <point x="145" y="84"/>
    </contour>
  </outline>
</glyph>
<glyph name="d" format="1">
  <advance width="473"/>
  <unicode hex="0064"/>
  <outline>
    <contour>
      <point x="240" y="396" type="curve" smooth="yes"/>
      <point x="280" y="396"/>
      <point x="300" y="385"/>
      <point x="328" y="380" type="curve"/>
      <point x="329" y="458"/>
      <point x="323" y="629"/>
      <point x="313" y="672" type="curve"/>
      <point x="358" y="676"/>
      <point x="392" y="682"/>
      <point x="427" y="698" type="curve"/>
      <point x="411" y="630"/>
      <point x="404" y="141"/>
      <point x="427" y="48" type="curve"/>
      <point x="367" y="25"/>
      <point x="279" y="-12"/>
      <point x="211" y="-12" type="curve" smooth="yes"/>
      <point x="102" y="-12"/>
      <point x="32" y="42"/>
      <point x="37" y="168" type="curve" smooth="yes"/>
      <point x="42" y="301"/>
      <point x="126" y="396"/>
    </contour>
    <contour>
      <point x="237" y="353" type="curve" smooth="yes"/>
      <point x="187" y="352"/>
      <point x="125" y="288"/>
      <point x="124" y="166" type="curve"/>
      <point x="122" y="67"/>
      <point x="177" y="32"/>
      <point x="223" y="32" type="curve" smooth="yes"/>
      <point x="263" y="32"/>
      <point x="300" y="45"/>
      <point x="324" y="56" type="curve"/>
      <point x="328" y="141"/>
      <point x="328" y="278"/>
      <point x="327" y="340" type="curve"/>
      <point x="300" y="348"/>
      <point x="280" y="354"/>
    </contour>
  </outline>
</glyph>
<glyph name="f" format="1">
  <advance width="255"/>
  <unicode hex="0066"/>
  <outline>
    <contour>
      <point x="39" y="390" type="curve"/>
      <point x="70" y="390" type="line"/>
      <point x="71" y="414"/>
      <point x="71" y="465"/>
      <point x="72" y="510" type="curve" smooth="yes"/>
      <point x="75" y="581"/>
      <point x="155" y="686"/>
      <point x="218" y="692" type="curve" smooth="yes"/>
      <point x="235" y="693"/>
      <point x="258" y="687"/>
      <point x="276" y="679" type="curve"/>
      <point x="274" y="668"/>
      <point x="267" y="652"/>
      <point x="262" y="644" type="curve"/>
      <point x="252" y="648"/>
      <point x="239" y="650"/>
      <point x="226" y="650" type="curve" smooth="yes"/>
      <point x="204" y="650"/>
      <point x="181" y="625"/>
      <point x="172" y="598" type="curve" smooth="yes"/>
      <point x="158" y="558"/>
      <point x="152" y="543"/>
      <point x="153" y="390" type="curve"/>
      <point x="196" y="388"/>
      <point x="230" y="390"/>
      <point x="259" y="392" type="curve"/>
      <point x="259" y="380"/>
      <point x="256" y="353"/>
      <point x="253" y="349" type="curve"/>
      <point x="221" y="352"/>
      <point x="199" y="352"/>
      <point x="154" y="352" type="curve"/>
      <point x="153" y="283"/>
      <point x="155" y="52"/>
      <point x="169" y="-2" type="curve"/>
      <point x="145" y="2"/>
      <point x="83" y="1"/>
      <point x="61" y="-2" type="curve"/>
      <point x="72" y="119"/>
      <point x="71" y="236"/>
      <point x="71" y="352" type="curve"/>
      <point x="37" y="352" type="line"/>
      <point x="37" y="362"/>
      <point x="37" y="377"/>
    </contour>
  </outline>
</glyph>
<glyph name="i" format="1">
  <advance width="203"/>
  <unicode hex="0069"/>
  <outline>
    <contour>
      <point x="109" y="591" type="curve" smooth="yes"/>
      <point x="145" y="591"/>
      <point x="153" y="569"/>
      <point x="153" y="558" type="curve" smooth="yes"/>
      <point x="153" y="538"/>
      <point x="126" y="515"/>
      <point x="93" y="515" type="curve" smooth="yes"/>
      <point x="68" y="515"/>
      <point x="51" y="525"/>
      <point x="51" y="549" type="curve" smooth="yes"/>
      <point x="51" y="567"/>
      <point x="72" y="591"/>
    </contour>
    <contour>
      <point x="49" y="0" type="curve"/>
      <point x="60" y="92"/>
      <point x="59" y="297"/>
      <point x="48" y="377" type="curve"/>
      <point x="77" y="379"/>
      <point x="121" y="387"/>
      <point x="147" y="394" type="curve"/>
      <point x="137" y="330"/>
      <point x="141" y="74"/>
      <point x="155" y="-2" type="curve"/>
      <point x="129" y="6"/>
      <point x="62" y="1"/>
    </contour>
  </outline>
</glyph>
<glyph name="j" format="1">
  <advance width="204"/>
  <unicode hex="006A"/>
  <outline>
    <contour>
      <point x="142" y="45" type="curve" smooth="yes"/>
      <point x="142" y="-100"/>
      <point x="121" y="-159"/>
      <point x="59" y="-227" type="curve" smooth="yes"/>
      <point x="24" y="-266"/>
      <point x="-38" y="-281"/>
      <point x="-81" y="-267" type="curve"/>
      <point x="-81" y="-258"/>
      <point x="-81" y="-242"/>
      <point x="-79" y="-233" type="curve"/>
      <point x="39" y="-233"/>
      <point x="55" y="-100"/>
      <point x="57" y="-20" type="curve"/>
      <point x="61" y="86"/>
      <point x="59" y="318"/>
      <point x="49" y="383" type="curve"/>
      <point x="72" y="384"/>
      <point x="117" y="389"/>
      <point x="147" y="399" type="curve"/>
      <point x="143" y="263"/>
      <point x="142" y="136"/>
    </contour>
    <contour>
      <point x="109" y="593" type="curve" smooth="yes"/>
      <point x="145" y="593"/>
      <point x="153" y="571"/>
      <point x="153" y="559" type="curve" smooth="yes"/>
      <point x="153" y="540"/>
      <point x="126" y="516"/>
      <point x="93" y="516" type="curve" smooth="yes"/>
      <point x="68" y="516"/>
      <point x="51" y="527"/>
      <point x="51" y="551" type="curve" smooth="yes"/>
      <point x="51" y="568"/>
      <point x="72" y="593"/>
    </contour>
  </outline>
</glyph>
<glyph name="l" format="1">
  <advance width="209"/>
  <unicode hex="006C"/>
  <outline>
    <contour>
      <point x="54" y="-3" type="curve"/>
      <point x="66" y="90"/>
      <point x="62" y="606"/>
      <point x="48" y="672" type="curve"/>
      <point x="76" y="674"/>
      <point x="124" y="687"/>
      <point x="153" y="700" type="curve"/>
      <point x="136" y="524"/>
      <point x="146" y="63"/>
      <point x="161" y="-2" type="curve"/>
      <point x="127" y="2"/>
      <point x="96" y="3"/>
    </contour>
  </outline>
</glyph>
<glyph name="m" format="1">
  <advance width="704"/>
  <unicode hex="006D"/>
  <outline>
    <contour>
      <point x="560" y="-2" type="curve"/>
      <point x="560" y="57"/>
      <point x="554" y="210"/>
      <point x="551" y="236" type="curve" smooth="yes"/>
      <point x="539" y="328"/>
      <point x="505" y="339"/>
      <point x="479" y="339" type="curve" smooth="yes"/>
      <point x="449" y="339"/>
      <point x="417" y="324"/>
      <point x="386" y="310" type="curve"/>
      <point x="393" y="290"/>
      <point x="395" y="244"/>
      <point x="395" y="220" type="curve"/>
      <point x="397" y="183"/>
      <point x="400" y="89"/>
      <point x="408" y="-1" type="curve"/>
      <point x="380" y="2"/>
      <point x="328" y="2"/>
      <point x="308" y="-1" type="curve"/>
      <point x="311" y="95"/>
      <point x="309" y="224"/>
      <point x="305" y="270" type="curve" smooth="yes"/>
      <point x="300" y="335"/>
      <point x="261" y="342"/>
      <point x="233" y="342" type="curve" smooth="yes"/>
      <point x="206" y="342"/>
      <point x="182" y="335"/>
      <point x="149" y="324" type="curve"/>
      <point x="145" y="248"/>
      <point x="145" y="130"/>
      <point x="151" y="-2" type="curve"/>
      <point x="124" y="2"/>
      <point x="79" y="5"/>
      <point x="48" y="-2" type="curve"/>
      <point x="61" y="120"/>
      <point x="60" y="295"/>
      <point x="52" y="387" type="curve"/>
      <point x="76" y="390"/>
      <point x="124" y="394"/>
      <point x="154" y="401" type="curve"/>
      <point x="151" y="385"/>
      <point x="150" y="375"/>
      <point x="149" y="361" type="curve"/>
      <point x="186" y="378"/>
      <point x="232" y="396"/>
      <point x="272" y="396" type="curve" smooth="yes"/>
      <point x="320" y="396"/>
      <point x="358" y="378"/>
      <point x="375" y="346" type="curve"/>
      <point x="419" y="370"/>
      <point x="471" y="397"/>
      <point x="509" y="397" type="curve" smooth="yes"/>
      <point x="577" y="397"/>
      <point x="637" y="364"/>
      <point x="645" y="197" type="curve"/>
      <point x="647" y="128"/>
      <point x="653" y="27"/>
      <point x="659" y="-1" type="curve"/>
      <point x="630" y="2"/>
      <point x="589" y="4"/>
    </contour>
  </outline>
</glyph>
<glyph name="o" format="1">
  <advance width="466"/>
  <unicode hex="006F"/>
  <outline>
    <contour>
      <point x="244" y="391" type="curve" smooth="yes"/>
      <point x="369" y="391"/>
      <point x="429" y="307"/>
      <point x="429" y="201" type="curve" smooth="yes"/>
      <point x="429" y="148"/>
      <point x="406" y="74"/>
      <point x="358" y="36" type="curve" smooth="yes"/>
      <point x="332" y="16"/>
      <point x="258" y="-10"/>
      <point x="213" y="-10" type="curve" smooth="yes"/>
      <point x="89" y="-10"/>
      <point x="34" y="97"/>
      <point x="36" y="173" type="curve"/>
      <point x="36" y="243"/>
      <point x="69" y="311"/>
      <point x="113" y="344" type="curve" smooth="yes"/>
      <point x="139" y="364"/>
      <point x="210" y="391"/>
    </contour>
    <contour>
      <point x="233" y="344" type="curve" smooth="yes"/>
      <point x="196" y="344"/>
      <point x="124" y="315"/>
      <point x="124" y="181" type="curve" smooth="yes"/>
      <point x="124" y="117"/>
      <point x="154" y="37"/>
      <point x="228" y="37" type="curve" smooth="yes"/>
      <point x="301" y="37"/>
      <point x="345" y="93"/>
      <point x="341" y="200" type="curve" smooth="yes"/>
      <point x="338" y="307"/>
      <point x="276" y="344"/>
    </contour>
  </outline>
</glyph>
<glyph name="p" format="1">
  <advance width="463"/>
  <unicode hex="0070"/>
  <outline>
    <contour>
      <point x="45" y="-277" type="curve"/>
      <point x="61" y="-146"/>
      <point x="64" y="285"/>
      <point x="55" y="377" type="curve"/>
      <point x="76" y="382"/>
      <point x="121" y="389"/>
      <point x="146" y="398" type="curve"/>
      <point x="146" y="367" type="line"/>
      <point x="181" y="382"/>
      <point x="220" y="396"/>
      <point x="261" y="396" type="curve" smooth="yes"/>
      <point x="385" y="395"/>
      <point x="433" y="320"/>
      <point x="430" y="223" type="curve" smooth="yes"/>
      <point x="425" y="86"/>
      <point x="323" y="-8"/>
      <point x="202" y="-8" type="curve" smooth="yes"/>
      <point x="177" y="-8"/>
      <point x="164" y="-5"/>
      <point x="143" y="0" type="curve"/>
      <point x="146" y="-136"/>
      <point x="149" y="-217"/>
      <point x="163" y="-266" type="curve"/>
      <point x="134" y="-266"/>
      <point x="65" y="-274"/>
    </contour>
    <contour>
      <point x="144" y="40" type="curve"/>
      <point x="162" y="35"/>
      <point x="180" y="33"/>
      <point x="201" y="33" type="curve" smooth="yes"/>
      <point x="261" y="33"/>
      <point x="338" y="75"/>
      <point x="338" y="221" type="curve" smooth="yes"/>
      <point x="338" y="293"/>
      <point x="308" y="348"/>
      <point x="236" y="348" type="curve" smooth="yes"/>
      <point x="211" y="348"/>
      <point x="173" y="341"/>
      <point x="146" y="330" type="curve"/>
      <point x="141" y="259"/>
      <point x="144" y="82"/>
    </contour>
  </outline>
</glyph>
<glyph name="q" format="1">
  <advance width="465"/>
  <unicode hex="0071"/>
  <outline>
    <contour>
      <point x="306" y="-277" type="curve"/>
      <point x="316" y="-242"/>
      <point x="318" y="-1"/>
      <point x="316" y="27" type="curve"/>
      <point x="278" y="8"/>
      <point x="236" y="-6"/>
      <point x="194" y="-6" type="curve" smooth="yes"/>
      <point x="61" y="-6"/>
      <point x="36" y="97"/>
      <point x="35" y="144" type="curve"/>
      <point x="35" y="325"/>
      <point x="169" y="395"/>
      <point x="246" y="395" type="curve" smooth="yes"/>
      <point x="263" y="395"/>
      <point x="290" y="391"/>
      <point x="312" y="383" type="curve"/>
      <point x="333" y="386"/>
      <point x="381" y="394"/>
      <point x="401" y="400" type="curve"/>
      <point x="398" y="367"/>
      <point x="399" y="215"/>
      <point x="400" y="62" type="curve"/>
      <point x="400" y="-142"/>
      <point x="407" y="-232"/>
      <point x="424" y="-266" type="curve"/>
      <point x="409" y="-266"/>
      <point x="338" y="-272"/>
    </contour>
    <contour>
      <point x="313" y="343" type="curve"/>
      <point x="283" y="352"/>
      <point x="262" y="354"/>
      <point x="239" y="353" type="curve" smooth="yes"/>
      <point x="213" y="352"/>
      <point x="122" y="322"/>
      <point x="122" y="161" type="curve" smooth="yes"/>
      <point x="122" y="118"/>
      <point x="140" y="45"/>
      <point x="228" y="44" type="curve" smooth="yes"/>
      <point x="254" y="44"/>
      <point x="290" y="54"/>
      <point x="316" y="66" type="curve"/>
      <point x="318" y="132"/>
      <point x="315" y="318"/>
    </contour>
  </outline>
</glyph>
<glyph name="r" format="1">
  <advance width="275"/>
  <unicode hex="0072"/>
  <outline>
    <contour>
      <point x="140" y="397" type="curve"/>
      <point x="138" y="379"/>
      <point x="134" y="343"/>
      <point x="134" y="290" type="curve"/>
      <point x="137" y="289" type="line"/>
      <point x="163" y="360"/>
      <point x="181" y="381"/>
      <point x="253" y="408" type="curve"/>
      <point x="258" y="403"/>
      <point x="265" y="387"/>
      <point x="265" y="377" type="curve"/>
      <point x="197" y="330"/>
      <point x="145" y="272"/>
      <point x="140" y="158" type="curve" smooth="yes"/>
      <point x="138" y="118"/>
      <point x="140" y="85"/>
      <point x="145" y="-1" type="curve"/>
      <point x="123" y="1"/>
      <point x="81" y="2"/>
      <point x="50" y="-2" type="curve"/>
      <point x="59" y="95"/>
      <point x="60" y="294"/>
      <point x="48" y="385" type="curve"/>
      <point x="63" y="386"/>
      <point x="127" y="393"/>
    </contour>
  </outline>
</glyph>
<glyph name="s" format="1">
  <advance width="259"/>
  <unicode hex="0073"/>
  <outline>
    <contour>
      <point x="32" y="-3" type="curve"/>
      <point x="31" y="7"/>
      <point x="32" y="25"/>
      <point x="35" y="32" type="curve"/>
      <point x="96" y="23"/>
      <point x="134" y="52"/>
      <point x="134" y="93" type="curve" smooth="yes"/>
      <point x="134" y="124"/>
      <point x="115" y="153"/>
      <point x="94" y="181" type="curve" smooth="yes"/>
      <point x="66" y="218"/>
      <point x="52" y="242"/>
      <point x="52" y="270" type="curve" smooth="yes"/>
      <point x="52" y="314"/>
      <point x="96" y="369"/>
      <point x="171" y="405" type="curve"/>
      <point x="178" y="400"/>
      <point x="187" y="385"/>
      <point x="189" y="378" type="curve"/>
      <point x="143" y="345"/>
      <point x="131" y="325"/>
      <point x="131" y="295" type="curve" smooth="yes"/>
      <point x="131" y="270"/>
      <point x="154" y="242"/>
      <point x="170" y="223" type="curve" smooth="yes"/>
      <point x="208" y="176"/>
      <point x="222" y="140"/>
      <point x="222" y="111" type="curve" smooth="yes"/>
      <point x="222" y="62"/>
      <point x="191" y="-7"/>
      <point x="84" y="-7" type="curve" smooth="yes"/>
      <point x="74" y="-7"/>
      <point x="41" y="-7"/>
    </contour>
  </outline>
</glyph>
<glyph name="t" format="1">
  <advance width="308"/>
  <unicode hex="0074"/>
  <outline>
    <contour>
      <point x="133" y="542" type="curve"/>
      <point x="140" y="543"/>
      <point x="153" y="541"/>
      <point x="161" y="538" type="curve"/>
      <point x="156" y="512"/>
      <point x="150" y="425"/>
      <point x="150" y="390" type="curve"/>
      <point x="169" y="390"/>
      <point x="251" y="389"/>
      <point x="282" y="392" type="curve"/>
      <point x="281" y="380"/>
      <point x="280" y="365"/>
      <point x="273" y="349" type="curve"/>
      <point x="241" y="352"/>
      <point x="175" y="352"/>
      <point x="149" y="352" type="curve"/>
      <point x="147" y="315"/>
      <point x="147" y="166"/>
      <point x="150" y="125" type="curve" smooth="yes"/>
      <point x="154" y="62"/>
      <point x="165" y="46"/>
      <point x="193" y="46" type="curve" smooth="yes"/>
      <point x="212" y="46"/>
      <point x="240" y="50"/>
      <point x="269" y="55" type="curve"/>
      <point x="272" y="47"/>
      <point x="275" y="33"/>
      <point x="275" y="23" type="curve"/>
      <point x="231" y="10"/>
      <point x="147" y="-7"/>
      <point x="124" y="-7" type="curve" smooth="yes"/>
      <point x="80" y="-7"/>
      <point x="65" y="15"/>
      <point x="64" y="103" type="curve" smooth="yes"/>
      <point x="63" y="153"/>
      <point x="67" y="282"/>
      <point x="67" y="352" type="curve"/>
      <point x="32" y="352" type="line"/>
      <point x="32" y="366"/>
      <point x="32" y="379"/>
      <point x="34" y="390" type="curve"/>
      <point x="72" y="390" type="line"/>
      <point x="93" y="428"/>
      <point x="123" y="503"/>
    </contour>
  </outline>
</glyph>
<glyph name="v" format="1">
  <advance width="407"/>
  <unicode hex="0076"/>
  <outline>
    <contour>
      <point x="139" y="392" type="curve"/>
      <point x="139" y="345"/>
      <point x="177" y="227"/>
      <point x="200" y="151" type="curve" smooth="yes"/>
      <point x="204" y="139"/>
      <point x="208" y="127"/>
      <point x="210" y="114" type="curve"/>
      <point x="268" y="229"/>
      <point x="312" y="337"/>
      <point x="320" y="381" type="curve"/>
      <point x="341" y="383"/>
      <point x="378" y="390"/>
      <point x="407" y="402" type="curve"/>
      <point x="340" y="293"/>
      <point x="289" y="199"/>
      <point x="244" y="103" type="curve" smooth="yes"/>
      <point x="230" y="72"/>
      <point x="209" y="28"/>
      <point x="204" y="2" type="curve"/>
      <point x="192" y="-6"/>
      <point x="178" y="-11"/>
      <point x="163" y="-14" type="curve"/>
      <point x="127" y="129"/>
      <point x="45" y="362"/>
      <point x="20" y="391" type="curve"/>
      <point x="45" y="386"/>
      <point x="119" y="390"/>
    </contour>
  </outline>
</glyph>
<glyph name="w" format="1">
  <advance width="633"/>
  <unicode hex="0077"/>
  <outline>
    <contour>
      <point x="21" y="391" type="curve"/>
      <point x="45" y="386"/>
      <point x="124" y="389"/>
      <point x="144" y="392" type="curve"/>
      <point x="145" y="340"/>
      <point x="175" y="230"/>
      <point x="199" y="145" type="curve" smooth="yes"/>
      <point x="202" y="135"/>
      <point x="205" y="126"/>
      <point x="206" y="116" type="curve"/>
      <point x="265" y="231"/>
      <point x="309" y="344"/>
      <point x="317" y="388" type="curve"/>
      <point x="324" y="391"/>
      <point x="353" y="398"/>
      <point x="362" y="400" type="curve"/>
      <point x="377" y="335"/>
      <point x="405" y="250"/>
      <point x="438" y="154" type="curve" smooth="yes"/>
      <point x="441" y="144"/>
      <point x="446" y="126"/>
      <point x="449" y="118" type="curve"/>
      <point x="507" y="233"/>
      <point x="537" y="338"/>
      <point x="544" y="382" type="curve"/>
      <point x="565" y="385"/>
      <point x="604" y="390"/>
      <point x="633" y="402" type="curve"/>
      <point x="568" y="289"/>
      <point x="529" y="203"/>
      <point x="485" y="107" type="curve" smooth="yes"/>
      <point x="471" y="76"/>
      <point x="451" y="28"/>
      <point x="446" y="2" type="curve"/>
      <point x="434" y="-5"/>
      <point x="417" y="-10"/>
      <point x="402" y="-13" type="curve"/>
      <point x="375" y="74"/>
      <point x="350" y="144"/>
      <point x="329" y="201" type="curve" smooth="yes"/>
      <point x="322" y="219"/>
      <point x="313" y="241"/>
      <point x="309" y="255" type="curve"/>
      <point x="278" y="191"/>
      <point x="272" y="178"/>
      <point x="239" y="105" type="curve" smooth="yes"/>
      <point x="223" y="68"/>
      <point x="207" y="27"/>
      <point x="201" y="1" type="curve"/>
      <point x="190" y="-7"/>
      <point x="169" y="-11"/>
      <point x="154" y="-14" type="curve"/>
      <point x="117" y="129"/>
      <point x="46" y="362"/>
    </contour>
  </outline>
</glyph>
<glyph name="x" format="1">
  <advance width="457"/>
  <unicode hex="0078"/>
  <outline>
    <contour>
      <point x="436" y="397" type="curve"/>
      <point x="437" y="392" type="line"/>
      <point x="376" y="342"/>
      <point x="315" y="275"/>
      <point x="277" y="231" type="curve"/>
      <point x="327" y="142"/>
      <point x="357" y="93"/>
      <point x="440" y="-2" type="curve"/>
      <point x="412" y="2"/>
      <point x="325" y="2"/>
      <point x="305" y="-1" type="curve"/>
      <point x="270" y="72"/>
      <point x="244" y="124"/>
      <point x="215" y="170" type="curve"/>
      <point x="158" y="100"/>
      <point x="135" y="68"/>
      <point x="98" y="2" type="curve"/>
      <point x="69" y="-2"/>
      <point x="30" y="-4"/>
      <point x="1" y="-11" type="curve"/>
      <point x="0" y="-7" type="line"/>
      <point x="57" y="46"/>
      <point x="139" y="135"/>
      <point x="194" y="205" type="curve"/>
      <point x="150" y="280"/>
      <point x="117" y="333"/>
      <point x="65" y="390" type="curve"/>
      <point x="103" y="387"/>
      <point x="170" y="385"/>
      <point x="204" y="391" type="curve"/>
      <point x="212" y="347"/>
      <point x="238" y="293"/>
      <point x="257" y="263" type="curve"/>
      <point x="300" y="310"/>
      <point x="338" y="357"/>
      <point x="350" y="383" type="curve"/>
      <point x="370" y="385"/>
      <point x="415" y="391"/>
    </contour>
  </outline>
</glyph>
<glyph name="braceleft" format="1">
  <advance width="270"/>
  <unicode hex="007B"/>
  <outline>
    <contour>
      <point x="239" y="-87" type="curve"/>
      <point x="151" y="-17"/>
      <point x="103" y="7"/>
      <point x="102" y="100" type="curve" smooth="yes"/>
      <point x="101" y="141"/>
      <point x="102" y="151"/>
      <point x="99" y="178" type="curve" smooth="yes"/>
      <point x="92" y="235"/>
      <point x="85" y="267"/>
      <point x="40" y="287" type="curve"/>
      <point x="40" y="297"/>
      <point x="39" y="306"/>
      <point x="43" y="316" type="curve"/>
      <point x="82" y="328"/>
      <point x="99" y="360"/>
      <point x="105" y="420" type="curve" smooth="yes"/>
      <point x="107" y="436"/>
      <point x="108" y="465"/>
      <point x="109" y="485" type="curve" smooth="yes"/>
      <point x="113" y="550"/>
      <point x="149" y="562"/>
      <point x="233" y="623" type="curve"/>
      <point x="240" y="617"/>
      <point x="245" y="601"/>
      <point x="246" y="592" type="curve"/>
      <point x="225" y="571"/>
      <point x="199" y="553"/>
      <point x="194" y="508" type="curve" smooth="yes"/>
      <point x="192" y="490"/>
      <point x="191" y="467"/>
      <point x="190" y="434" type="curve"/>
      <point x="186" y="373"/>
      <point x="151" y="346"/>
      <point x="87" y="301" type="curve"/>
      <point x="151" y="256"/>
      <point x="171" y="248"/>
      <point x="182" y="163" type="curve" smooth="yes"/>
      <point x="184" y="147"/>
      <point x="186" y="120"/>
      <point x="186" y="101" type="curve"/>
      <point x="191" y="17"/>
      <point x="213" y="-14"/>
      <point x="253" y="-58" type="curve"/>
      <point x="251" y="-67"/>
      <point x="246" y="-81"/>
    </contour>
  </outline>
</glyph>
<glyph name="bar" format="1">
  <advance width="242"/>
  <unicode hex="007C"/>
  <outline>
    <contour>
      <point x="144" y="602" type="curve"/>
      <point x="142" y="376"/>
      <point x="142" y="140"/>
      <point x="143" y="-85" type="curve"/>
      <point x="132" y="-88"/>
      <point x="109" y="-94"/>
      <point x="98" y="-92" type="curve"/>
      <point x="99" y="134"/>
      <point x="101" y="376"/>
      <point x="100" y="601" type="curve"/>
      <point x="109" y="604"/>
      <point x="139" y="604"/>
    </contour>
  </outline>
</glyph>
<glyph name="braceright" format="1">
  <advance width="279"/>
  <unicode hex="007D"/>
  <outline>
    <contour>
      <point x="36" y="598" type="curve"/>
      <point x="37" y="603"/>
      <point x="47" y="621"/>
      <point x="55" y="623" type="curve"/>
      <point x="127" y="575"/>
      <point x="176" y="548"/>
      <point x="176" y="479" type="curve" smooth="yes"/>
      <point x="176" y="459"/>
      <point x="177" y="427"/>
      <point x="181" y="409" type="curve" smooth="yes"/>
      <point x="189" y="361"/>
      <point x="196" y="331"/>
      <point x="239" y="311" type="curve"/>
      <point x="240" y="306"/>
      <point x="240" y="298"/>
      <point x="238" y="289" type="curve"/>
      <point x="198" y="265"/>
      <point x="182" y="228"/>
      <point x="176" y="167" type="curve"/>
      <point x="171" y="93" type="line" smooth="yes"/>
      <point x="166" y="7"/>
      <point x="113" y="-27"/>
      <point x="43" y="-83" type="curve"/>
      <point x="36" y="-82"/>
      <point x="25" y="-65"/>
      <point x="23" y="-59" type="curve"/>
      <point x="46" y="-37"/>
      <point x="75" y="-7"/>
      <point x="82" y="43" type="curve" smooth="yes"/>
      <point x="85" y="69"/>
      <point x="91" y="133"/>
      <point x="93" y="158" type="curve" smooth="yes"/>
      <point x="100" y="240"/>
      <point x="144" y="267"/>
      <point x="195" y="300" type="curve"/>
      <point x="126" y="344"/>
      <point x="99" y="360"/>
      <point x="92" y="431" type="curve" smooth="yes"/>
      <point x="91" y="450"/>
      <point x="91" y="479"/>
      <point x="89" y="497" type="curve" smooth="yes"/>
      <point x="83" y="558"/>
      <point x="69" y="568"/>
    </contour>
  </outline>
</glyph>
<glyph name="exclamdown" format="1">
  <advance width="195"/>
  <unicode hex="00A1"/>
  <outline>
    <contour>
      <point x="79" y="221" type="curve"/>
      <point x="113" y="225" type="line"/>
      <point x="115" y="85"/>
      <point x="136" y="-151"/>
      <point x="142" y="-199" type="curve"/>
      <point x="116" y="-201"/>
      <point x="69" y="-203"/>
      <point x="39" y="-209" type="curve"/>
      <point x="51" y="-126"/>
      <point x="76" y="150"/>
    </contour>
    <contour>
      <point x="87" y="304" type="curve" smooth="yes"/>
      <point x="47" y="304"/>
      <point x="39" y="328"/>
      <point x="39" y="342" type="curve" smooth="yes"/>
      <point x="39" y="363"/>
      <point x="69" y="389"/>
      <point x="105" y="389" type="curve" smooth="yes"/>
      <point x="132" y="389"/>
      <point x="152" y="377"/>
      <point x="152" y="351" type="curve" smooth="yes"/>
      <point x="152" y="331"/>
      <point x="129" y="304"/>
    </contour>
  </outline>
</glyph>
<glyph name="cent" format="1">
  <advance width="377"/>
  <unicode hex="00A2"/>
  <outline>
    <contour>
      <point x="334" y="378" type="curve"/>
      <point x="331" y="369"/>
      <point x="326" y="353"/>
      <point x="319" y="346" type="curve"/>
      <point x="308" y="350"/>
      <point x="278" y="355"/>
      <point x="259" y="355" type="curve" smooth="yes"/>
      <point x="194" y="355"/>
      <point x="120" y="302"/>
      <point x="120" y="169" type="curve" smooth="yes"/>
      <point x="120" y="119"/>
      <point x="147" y="37"/>
      <point x="221" y="37" type="curve" smooth="yes"/>
      <point x="269" y="37"/>
      <point x="297" y="42"/>
      <point x="345" y="57" type="curve"/>
      <point x="351" y="48"/>
      <point x="354" y="35"/>
      <point x="356" y="25" type="curve"/>
      <point x="313" y="10"/>
      <point x="280" y="0"/>
      <point x="242" y="-5" type="curve"/>
      <point x="239" y="-32"/>
      <point x="236" y="-96"/>
      <point x="236" y="-111" type="curve"/>
      <point x="230" y="-113"/>
      <point x="211" y="-114"/>
      <point x="203" y="-112" type="curve"/>
      <point x="199" y="-7" type="line"/>
      <point x="189" y="-7" type="line" smooth="yes"/>
      <point x="98" y="-7"/>
      <point x="35" y="53"/>
      <point x="35" y="166" type="curve" smooth="yes"/>
      <point x="35" y="283"/>
      <point x="108" y="365"/>
      <point x="204" y="388" type="curve"/>
      <point x="206" y="418"/>
      <point x="208" y="474"/>
      <point x="208" y="491" type="curve"/>
      <point x="218" y="494"/>
      <point x="237" y="493"/>
      <point x="243" y="492" type="curve"/>
      <point x="243" y="475"/>
      <point x="245" y="417"/>
      <point x="246" y="395" type="curve"/>
      <point x="259" y="395" type="line" smooth="yes"/>
      <point x="284" y="395"/>
      <point x="313" y="387"/>
    </contour>
  </outline>
</glyph>
<glyph name="sterling" format="1">
  <advance width="400"/>
  <unicode hex="00A3"/>
  <outline>
    <contour>
      <point x="319" y="561" type="curve"/>
      <point x="317" y="552"/>
      <point x="311" y="539"/>
      <point x="306" y="534" type="curve"/>
      <point x="297" y="539"/>
      <point x="251" y="547"/>
      <point x="226" y="547" type="curve" smooth="yes"/>
      <point x="183" y="547"/>
      <point x="156" y="515"/>
      <point x="158" y="444" type="curve" smooth="yes"/>
      <point x="159" y="400"/>
      <point x="166" y="375"/>
      <point x="175" y="344" type="curve"/>
      <point x="208" y="344"/>
      <point x="270" y="345"/>
      <point x="312" y="346" type="curve"/>
      <point x="312" y="333"/>
      <point x="310" y="320"/>
      <point x="305" y="308" type="curve"/>
      <point x="272" y="310"/>
      <point x="222" y="310"/>
      <point x="184" y="309" type="curve"/>
      <point x="202" y="241"/>
      <point x="184" y="175"/>
      <point x="132" y="82" type="curve"/>
      <point x="211" y="82"/>
      <point x="292" y="82"/>
      <point x="377" y="92" type="curve"/>
      <point x="366" y="68"/>
      <point x="358" y="34"/>
      <point x="351" y="-2" type="curve"/>
      <point x="320" y="2"/>
      <point x="84" y="4"/>
      <point x="16" y="-5" type="curve"/>
      <point x="27" y="25"/>
      <point x="37" y="68"/>
      <point x="40" y="86" type="curve"/>
      <point x="86" y="84"/>
      <point x="79" y="84"/>
      <point x="99" y="84" type="curve"/>
      <point x="140" y="180"/>
      <point x="131" y="244"/>
      <point x="104" y="309" type="curve"/>
      <point x="86" y="309"/>
      <point x="69" y="308"/>
      <point x="53" y="307" type="curve"/>
      <point x="52" y="319"/>
      <point x="52" y="334"/>
      <point x="55" y="345" type="curve"/>
      <point x="72" y="344"/>
      <point x="82" y="343"/>
      <point x="93" y="344" type="curve"/>
      <point x="77" y="384"/>
      <point x="69" y="416"/>
      <point x="69" y="449" type="curve" smooth="yes"/>
      <point x="69" y="525"/>
      <point x="124" y="592"/>
      <point x="224" y="592" type="curve" smooth="yes"/>
      <point x="245" y="592"/>
      <point x="289" y="581"/>
    </contour>
  </outline>
</glyph>
<glyph name="currency" format="1">
  <advance width="416"/>
  <unicode hex="00A4"/>
  <outline>
    <contour>
      <point x="71" y="477" type="curve" smooth="yes"/>
      <point x="71" y="499"/>
      <point x="77" y="520"/>
      <point x="91" y="538" type="curve"/>
      <point x="78" y="553"/>
      <point x="65" y="565"/>
      <point x="49" y="578" type="curve"/>
      <point x="52" y="587"/>
      <point x="67" y="603"/>
      <point x="77" y="608" type="curve"/>
      <point x="93" y="594"/>
      <point x="106" y="581"/>
      <point x="123" y="571" type="curve"/>
      <point x="141" y="584"/>
      <point x="162" y="590"/>
      <point x="186" y="590" type="curve" smooth="yes"/>
      <point x="211" y="590"/>
      <point x="234" y="584"/>
      <point x="253" y="569" type="curve"/>
      <point x="270" y="581"/>
      <point x="283" y="592"/>
      <point x="298" y="607" type="curve"/>
      <point x="307" y="603"/>
      <point x="321" y="589"/>
      <point x="325" y="579" type="curve"/>
      <point x="311" y="564"/>
      <point x="296" y="550"/>
      <point x="283" y="534" type="curve"/>
      <point x="293" y="518"/>
      <point x="298" y="499"/>
      <point x="298" y="477" type="curve" smooth="yes"/>
      <point x="298" y="453"/>
      <point x="290" y="431"/>
      <point x="276" y="413" type="curve"/>
      <point x="288" y="397"/>
      <point x="301" y="386"/>
      <point x="316" y="372" type="curve"/>
      <point x="313" y="363"/>
      <point x="299" y="348"/>
      <point x="289" y="343" type="curve"/>
      <point x="273" y="356"/>
      <point x="259" y="370"/>
      <point x="242" y="381" type="curve"/>
      <point x="225" y="370"/>
      <point x="206" y="365"/>
      <point x="185" y="365" type="curve" smooth="yes"/>
      <point x="160" y="365"/>
      <point x="139" y="369"/>
      <point x="121" y="381" type="curve"/>
      <point x="105" y="369"/>
      <point x="92" y="356"/>
      <point x="78" y="341" type="curve"/>
      <point x="69" y="345"/>
      <point x="54" y="358"/>
      <point x="49" y="368" type="curve"/>
      <point x="62" y="383"/>
      <point x="77" y="397"/>
      <point x="87" y="412" type="curve"/>
      <point x="77" y="430"/>
      <point x="71" y="450"/>
    </contour>
    <contour>
      <point x="113" y="476" type="curve" smooth="yes"/>
      <point x="113" y="437"/>
      <point x="141" y="405"/>
      <point x="184" y="405" type="curve" smooth="yes"/>
      <point x="223" y="405"/>
      <point x="255" y="437"/>
      <point x="255" y="476" type="curve" smooth="yes"/>
      <point x="255" y="518"/>
      <point x="223" y="548"/>
      <point x="184" y="548" type="curve" smooth="yes"/>
      <point x="144" y="548"/>
      <point x="113" y="516"/>
    </contour>
  </outline>
</glyph>
<glyph name="yen" format="1">
  <advance width="459"/>
  <unicode hex="00A5"/>
  <outline>
    <contour>
      <point x="5" y="583" type="curve"/>
      <point x="54" y="579"/>
      <point x="95" y="580"/>
      <point x="136" y="583" type="curve"/>
      <point x="166" y="502"/>
      <point x="213" y="423"/>
      <point x="264" y="350" type="curve"/>
      <point x="325" y="430"/>
      <point x="372" y="502"/>
      <point x="408" y="577" type="curve"/>
      <point x="434" y="578"/>
      <point x="464" y="580"/>
      <point x="500" y="588" type="curve"/>
      <point x="404" y="481"/>
      <point x="364" y="427"/>
      <point x="278" y="304" type="curve"/>
      <point x="329" y="304"/>
      <point x="373" y="305"/>
      <point x="386" y="305" type="curve"/>
      <point x="387" y="294"/>
      <point x="385" y="278"/>
      <point x="380" y="268" type="curve"/>
      <point x="275" y="270" type="line"/>
      <point x="275" y="216" type="line"/>
      <point x="327" y="216"/>
      <point x="373" y="217"/>
      <point x="386" y="217" type="curve"/>
      <point x="387" y="206"/>
      <point x="385" y="191"/>
      <point x="380" y="181" type="curve"/>
      <point x="275" y="182" type="line"/>
      <point x="275" y="107"/>
      <point x="278" y="49"/>
      <point x="285" y="-1" type="curve"/>
      <point x="249" y="2"/>
      <point x="210" y="3"/>
      <point x="180" y="-1" type="curve"/>
      <point x="184" y="38"/>
      <point x="187" y="112"/>
      <point x="188" y="183" type="curve"/>
      <point x="145" y="184"/>
      <point x="105" y="184"/>
      <point x="84" y="183" type="curve"/>
      <point x="81" y="191"/>
      <point x="85" y="213"/>
      <point x="87" y="219" type="curve"/>
      <point x="105" y="217"/>
      <point x="144" y="216"/>
      <point x="189" y="216" type="curve"/>
      <point x="189" y="235"/>
      <point x="188" y="254"/>
      <point x="188" y="271" type="curve"/>
      <point x="84" y="271" type="line"/>
      <point x="81" y="279"/>
      <point x="85" y="301"/>
      <point x="87" y="307" type="curve"/>
      <point x="105" y="305"/>
      <point x="143" y="304"/>
      <point x="186" y="304" type="curve"/>
      <point x="145" y="383"/>
      <point x="48" y="533"/>
    </contour>
  </outline>
</glyph>
<glyph name="section" format="1">
  <advance width="409"/>
  <unicode hex="00A7"/>
  <outline>
    <contour>
      <point x="60" y="-267" type="curve"/>
      <point x="57" y="-257"/>
      <point x="58" y="-232"/>
      <point x="63" y="-221" type="curve"/>
      <point x="72" y="-223"/>
      <point x="89" y="-224"/>
      <point x="103" y="-224" type="curve" smooth="yes"/>
      <point x="164" y="-224"/>
      <point x="217" y="-175"/>
      <point x="217" y="-106" type="curve" smooth="yes"/>
      <point x="217" y="-45"/>
      <point x="162" y="16"/>
      <point x="109" y="78" type="curve" smooth="yes"/>
      <point x="55" y="140"/>
      <point x="33" y="188"/>
      <point x="32" y="235" type="curve" smooth="yes"/>
      <point x="32" y="277"/>
      <point x="47" y="318"/>
      <point x="77" y="367" type="curve"/>
      <point x="121" y="443"/>
      <point x="175" y="517"/>
      <point x="244" y="601" type="curve"/>
      <point x="256" y="594"/>
      <point x="269" y="581"/>
      <point x="275" y="572" type="curve"/>
      <point x="225" y="514"/>
      <point x="195" y="464"/>
      <point x="196" y="433" type="curve"/>
      <point x="196" y="385"/>
      <point x="239" y="338"/>
      <point x="271" y="307" type="curve" smooth="yes"/>
      <point x="332" y="249"/>
      <point x="367" y="182"/>
      <point x="367" y="119" type="curve" smooth="yes"/>
      <point x="367" y="74"/>
      <point x="360" y="-3"/>
      <point x="304" y="-104" type="curve" smooth="yes"/>
      <point x="219" y="-258"/>
      <point x="154" y="-271"/>
      <point x="98" y="-271" type="curve" smooth="yes"/>
      <point x="88" y="-271"/>
      <point x="72" y="-270"/>
    </contour>
    <contour>
      <point x="308" y="63" type="curve" smooth="yes"/>
      <point x="308" y="136"/>
      <point x="241" y="211"/>
      <point x="193" y="261" type="curve" smooth="yes"/>
      <point x="162" y="293"/>
      <point x="134" y="325"/>
      <point x="131" y="368" type="curve"/>
      <point x="107" y="331"/>
      <point x="96" y="304"/>
      <point x="96" y="270" type="curve" smooth="yes"/>
      <point x="96" y="227"/>
      <point x="139" y="175"/>
      <point x="179" y="131" type="curve" smooth="yes"/>
      <point x="234" y="71"/>
      <point x="281" y="14"/>
      <point x="288" y="-34" type="curve"/>
      <point x="305" y="-1"/>
      <point x="308" y="25"/>
    </contour>
  </outline>
</glyph>
<glyph name="dieresis" format="1">
  <advance width="416"/>
  <unicode hex="00A8"/>
  <outline>
    <contour>
      <point x="134" y="527" type="curve" smooth="yes"/>
      <point x="162" y="527"/>
      <point x="176" y="514"/>
      <point x="176" y="496" type="curve" smooth="yes"/>
      <point x="176" y="474"/>
      <point x="145" y="461"/>
      <point x="120" y="461" type="curve" smooth="yes"/>
      <point x="102" y="461"/>
      <point x="85" y="472"/>
      <point x="85" y="487" type="curve" smooth="yes"/>
      <point x="85" y="509"/>
      <point x="110" y="527"/>
    </contour>
    <contour>
      <point x="284" y="527" type="curve" smooth="yes"/>
      <point x="312" y="527"/>
      <point x="325" y="514"/>
      <point x="325" y="496" type="curve" smooth="yes"/>
      <point x="325" y="474"/>
      <point x="295" y="461"/>
      <point x="270" y="461" type="curve" smooth="yes"/>
      <point x="251" y="461"/>
      <point x="235" y="472"/>
      <point x="235" y="487" type="curve" smooth="yes"/>
      <point x="235" y="509"/>
      <point x="260" y="527"/>
    </contour>
  </outline>
</glyph>
<glyph name="ordfeminine" format="1">
  <advance width="360"/>
  <unicode hex="00AA"/>
  <outline>
    <contour>
      <point x="68" y="567" type="curve"/>
      <point x="124" y="586"/>
      <point x="174" y="591"/>
      <point x="214" y="591" type="curve" smooth="yes"/>
      <point x="254" y="591"/>
      <point x="312" y="579"/>
      <point x="311" y="524" type="curve" smooth="yes"/>
      <point x="310" y="478"/>
      <point x="310" y="345"/>
      <point x="312" y="295" type="curve" smooth="yes"/>
      <point x="312" y="281"/>
      <point x="312" y="259"/>
      <point x="318" y="237" type="curve"/>
      <point x="287" y="240"/>
      <point x="264" y="240"/>
      <point x="232" y="235" type="curve"/>
      <point x="231" y="245"/>
      <point x="231" y="263"/>
      <point x="231" y="270" type="curve"/>
      <point x="185" y="251"/>
      <point x="140" y="230"/>
      <point x="115" y="230" type="curve" smooth="yes"/>
      <point x="84" y="230"/>
      <point x="64" y="233"/>
      <point x="46" y="268" type="curve" smooth="yes"/>
      <point x="40" y="279"/>
      <point x="34" y="323"/>
      <point x="36" y="340" type="curve" smooth="yes"/>
      <point x="43" y="388"/>
      <point x="89" y="413"/>
      <point x="127" y="422" type="curve" smooth="yes"/>
      <point x="162" y="431"/>
      <point x="194" y="437"/>
      <point x="231" y="443" type="curve"/>
      <point x="233" y="464"/>
      <point x="232" y="496"/>
      <point x="230" y="513" type="curve" smooth="yes"/>
      <point x="226" y="543"/>
      <point x="186" y="546"/>
      <point x="151" y="546" type="curve" smooth="yes"/>
      <point x="122" y="546"/>
      <point x="86" y="538"/>
      <point x="74" y="534" type="curve"/>
      <point x="70" y="539"/>
      <point x="68" y="556"/>
    </contour>
    <contour>
      <point x="164" y="285" type="curve" smooth="yes"/>
      <point x="178" y="285"/>
      <point x="208" y="295"/>
      <point x="230" y="304" type="curve"/>
      <point x="229" y="338"/>
      <point x="230" y="380"/>
      <point x="231" y="408" type="curve"/>
      <point x="199" y="403"/>
      <point x="179" y="399"/>
      <point x="156" y="391" type="curve" smooth="yes"/>
      <point x="122" y="378"/>
      <point x="114" y="343"/>
      <point x="117" y="320" type="curve" smooth="yes"/>
      <point x="121" y="287"/>
      <point x="135" y="283"/>
    </contour>
  </outline>
</glyph>
<glyph name="guillemotleft" format="1">
  <advance width="355"/>
  <unicode hex="00AB"/>
  <outline>
    <contour>
      <point x="164" y="58" type="curve"/>
      <point x="160" y="53"/>
      <point x="140" y="45"/>
      <point x="131" y="44" type="curve"/>
      <point x="109" y="86"/>
      <point x="74" y="136"/>
      <point x="33" y="188" type="curve"/>
      <point x="64" y="227"/>
      <point x="111" y="291"/>
      <point x="135" y="334" type="curve"/>
      <point x="142" y="333"/>
      <point x="158" y="328"/>
      <point x="168" y="321" type="curve"/>
      <point x="146" y="272"/>
      <point x="133" y="231"/>
      <point x="123" y="189" type="curve"/>
      <point x="132" y="148"/>
      <point x="142" y="110"/>
    </contour>
    <contour>
      <point x="310" y="58" type="curve"/>
      <point x="307" y="53"/>
      <point x="287" y="45"/>
      <point x="278" y="44" type="curve"/>
      <point x="256" y="86"/>
      <point x="221" y="136"/>
      <point x="180" y="188" type="curve"/>
      <point x="211" y="227"/>
      <point x="258" y="291"/>
      <point x="282" y="334" type="curve"/>
      <point x="289" y="333"/>
      <point x="306" y="328"/>
      <point x="315" y="321" type="curve"/>
      <point x="293" y="272"/>
      <point x="280" y="231"/>
      <point x="270" y="189" type="curve"/>
      <point x="278" y="148"/>
      <point x="289" y="110"/>
    </contour>
  </outline>
</glyph>
<glyph name="logicalnot" format="1">
  <advance width="416"/>
  <unicode hex="00AC"/>
  <outline>
    <contour>
      <point x="38" y="275" type="curve"/>
      <point x="139" y="273"/>
      <point x="280" y="274"/>
      <point x="355" y="275" type="curve"/>
      <point x="353" y="223"/>
      <point x="353" y="174"/>
      <point x="354" y="124" type="curve"/>
      <point x="343" y="120"/>
      <point x="324" y="120"/>
      <point x="312" y="120" type="curve"/>
      <point x="313" y="160"/>
      <point x="314" y="195"/>
      <point x="314" y="233" type="curve"/>
      <point x="226" y="235"/>
      <point x="149" y="236"/>
      <point x="35" y="235" type="curve"/>
      <point x="32" y="243"/>
      <point x="36" y="270"/>
    </contour>
  </outline>
</glyph>
<glyph name="uni00AD" format="1">
  <advance width="0"/>
  <unicode hex="00AD"/>
  <outline>
    <contour>
      <point x="-85" y="271" type="curve"/>
      <point x="-55" y="274"/>
      <point x="63" y="292"/>
      <point x="84" y="297" type="curve"/>
      <point x="87" y="285"/>
      <point x="90" y="263"/>
      <point x="84" y="244" type="curve"/>
      <point x="60" y="242"/>
      <point x="-55" y="226"/>
      <point x="-83" y="220" type="curve"/>
      <point x="-86" y="230"/>
      <point x="-86" y="260"/>
    </contour>
  </outline>
</glyph>
<glyph name="registered" format="1">
  <advance width="712"/>
  <unicode hex="00AE"/>
  <outline>
    <contour>
      <point x="23" y="269" type="curve" smooth="yes"/>
      <point x="23" y="453"/>
      <point x="172" y="602"/>
      <point x="356" y="602" type="curve" smooth="yes"/>
      <point x="540" y="602"/>
      <point x="689" y="453"/>
      <point x="689" y="269" type="curve" smooth="yes"/>
      <point x="689" y="85"/>
      <point x="540" y="-64"/>
      <point x="356" y="-64" type="curve" smooth="yes"/>
      <point x="172" y="-64"/>
      <point x="23" y="85"/>
    </contour>
    <contour>
      <point x="67" y="268" type="curve" smooth="yes"/>
      <point x="67" y="110"/>
      <point x="198" y="-24"/>
      <point x="356" y="-24" type="curve" smooth="yes"/>
      <point x="429" y="-24"/>
      <point x="495" y="3"/>
      <point x="546" y="48" type="curve"/>
      <point x="521" y="49"/>
      <point x="481" y="50"/>
      <point x="464" y="44" type="curve"/>
      <point x="430" y="117"/>
      <point x="370" y="233"/>
      <point x="318" y="305" type="curve"/>
      <point x="322" y="310"/>
      <point x="327" y="318"/>
      <point x="330" y="318" type="curve" smooth="yes"/>
      <point x="391" y="327"/>
      <point x="432" y="364"/>
      <point x="432" y="403" type="curve" smooth="yes"/>
      <point x="432" y="440"/>
      <point x="392" y="451"/>
      <point x="344" y="452" type="curve"/>
      <point x="291" y="452" type="line"/>
      <point x="285" y="377"/>
      <point x="288" y="191"/>
      <point x="294" y="48" type="curve"/>
      <point x="270" y="51"/>
      <point x="231" y="52"/>
      <point x="207" y="42" type="curve"/>
      <point x="219" y="128"/>
      <point x="214" y="436"/>
      <point x="210" y="492" type="curve"/>
      <point x="230" y="489"/>
      <point x="320" y="491"/>
      <point x="345" y="491" type="curve" smooth="yes"/>
      <point x="405" y="491"/>
      <point x="517" y="494"/>
      <point x="516" y="414" type="curve" smooth="yes"/>
      <point x="516" y="377"/>
      <point x="481" y="335"/>
      <point x="408" y="307" type="curve"/>
      <point x="448" y="231"/>
      <point x="493" y="151"/>
      <point x="561" y="60" type="curve"/>
      <point x="615" y="114"/>
      <point x="648" y="188"/>
      <point x="648" y="268" type="curve" smooth="yes"/>
      <point x="648" y="429"/>
      <point x="517" y="563"/>
      <point x="356" y="563" type="curve" smooth="yes"/>
      <point x="198" y="563"/>
      <point x="67" y="429"/>
    </contour>
  </outline>
</glyph>
<glyph name="macron" format="1">
  <advance width="416"/>
  <unicode hex="00AF"/>
  <outline>
    <contour>
      <point x="92" y="506" type="curve"/>
      <point x="193" y="504"/>
      <point x="250" y="504"/>
      <point x="325" y="505" type="curve"/>
      <point x="325" y="494"/>
      <point x="324" y="474"/>
      <point x="319" y="464" type="curve"/>
      <point x="222" y="466"/>
      <point x="214" y="467"/>
      <point x="89" y="466" type="curve"/>
      <point x="86" y="474"/>
      <point x="90" y="501"/>
    </contour>
  </outline>
</glyph>
<glyph name="degree" format="1">
  <advance width="416"/>
  <unicode hex="00B0"/>
  <outline>
    <contour>
      <point x="66" y="477" type="curve" smooth="yes"/>
      <point x="66" y="539"/>
      <point x="123" y="597"/>
      <point x="186" y="597" type="curve" smooth="yes"/>
      <point x="252" y="597"/>
      <point x="305" y="553"/>
      <point x="305" y="477" type="curve" smooth="yes"/>
      <point x="305" y="414"/>
      <point x="248" y="358"/>
      <point x="185" y="358" type="curve" smooth="yes"/>
      <point x="119" y="358"/>
      <point x="66" y="403"/>
    </contour>
    <contour>
      <point x="110" y="476" type="curve" smooth="yes"/>
      <point x="110" y="434"/>
      <point x="139" y="400"/>
      <point x="185" y="400" type="curve" smooth="yes"/>
      <point x="227" y="400"/>
      <point x="260" y="434"/>
      <point x="260" y="476" type="curve" smooth="yes"/>
      <point x="260" y="521"/>
      <point x="227" y="553"/>
      <point x="185" y="553" type="curve" smooth="yes"/>
      <point x="143" y="553"/>
      <point x="110" y="519"/>
    </contour>
  </outline>
</glyph>
<glyph name="plusminus" format="1">
  <advance width="416"/>
  <unicode hex="00B1"/>
  <outline>
    <contour>
      <point x="38" y="71" type="curve"/>
      <point x="82" y="69"/>
      <point x="125" y="69"/>
      <point x="175" y="68" type="curve"/>
      <point x="176" y="111"/>
      <point x="177" y="148"/>
      <point x="177" y="191" type="curve"/>
      <point x="131" y="192"/>
      <point x="90" y="192"/>
      <point x="35" y="191" type="curve"/>
      <point x="32" y="200"/>
      <point x="36" y="226"/>
      <point x="38" y="232" type="curve"/>
      <point x="82" y="231"/>
      <point x="127" y="230"/>
      <point x="177" y="230" type="curve"/>
      <point x="178" y="280"/>
      <point x="178" y="317"/>
      <point x="177" y="365" type="curve"/>
      <point x="185" y="367"/>
      <point x="214" y="367"/>
      <point x="220" y="366" type="curve"/>
      <point x="218" y="317"/>
      <point x="218" y="280"/>
      <point x="218" y="230" type="curve"/>
      <point x="271" y="229"/>
      <point x="319" y="229"/>
      <point x="354" y="231" type="curve"/>
      <point x="355" y="220"/>
      <point x="353" y="199"/>
      <point x="348" y="189" type="curve"/>
      <point x="303" y="191"/>
      <point x="265" y="191"/>
      <point x="218" y="191" type="curve"/>
      <point x="218" y="68" type="line"/>
      <point x="272" y="68"/>
      <point x="319" y="68"/>
      <point x="354" y="69" type="curve"/>
      <point x="355" y="58"/>
      <point x="353" y="37"/>
      <point x="348" y="27" type="curve"/>
      <point x="251" y="29"/>
      <point x="160" y="30"/>
      <point x="35" y="29" type="curve"/>
      <point x="32" y="37"/>
      <point x="36" y="65"/>
    </contour>
  </outline>
</glyph>
<glyph name="twosuperior" format="1">
  <advance width="285"/>
  <unicode hex="00B2"/>
  <outline>
    <contour>
      <point x="48" y="553" type="curve"/>
      <point x="79" y="569"/>
      <point x="123" y="591"/>
      <point x="167" y="591" type="curve" smooth="yes"/>
      <point x="216" y="591"/>
      <point x="235" y="553"/>
      <point x="235" y="518" type="curve" smooth="yes"/>
      <point x="235" y="473"/>
      <point x="202" y="428"/>
      <point x="179" y="395" type="curve" smooth="yes"/>
      <point x="175" y="390"/>
      <point x="133" y="341"/>
      <point x="107" y="309" type="curve"/>
      <point x="140" y="303"/>
      <point x="246" y="307"/>
      <point x="256" y="309" type="curve"/>
      <point x="246" y="287"/>
      <point x="239" y="258"/>
      <point x="235" y="235" type="curve"/>
      <point x="195" y="239"/>
      <point x="99" y="242"/>
      <point x="33" y="237" type="curve"/>
      <point x="30" y="242"/>
      <point x="29" y="253"/>
      <point x="28" y="258" type="curve"/>
      <point x="86" y="319"/>
      <point x="161" y="418"/>
      <point x="161" y="498" type="curve" smooth="yes"/>
      <point x="161" y="526"/>
      <point x="143" y="538"/>
      <point x="116" y="538" type="curve" smooth="yes"/>
      <point x="91" y="538"/>
      <point x="79" y="533"/>
      <point x="58" y="527" type="curve"/>
      <point x="52" y="532"/>
      <point x="50" y="546"/>
    </contour>
  </outline>
</glyph>
<glyph name="threesuperior" format="1">
  <advance width="260"/>
  <unicode hex="00B3"/>
  <outline>
    <contour>
      <point x="45" y="569" type="curve"/>
      <point x="58" y="576"/>
      <point x="105" y="593"/>
      <point x="132" y="593" type="curve" smooth="yes"/>
      <point x="191" y="593"/>
      <point x="211" y="562"/>
      <point x="211" y="531" type="curve" smooth="yes"/>
      <point x="211" y="505"/>
      <point x="189" y="469"/>
      <point x="141" y="449" type="curve"/>
      <point x="197" y="448"/>
      <point x="233" y="419"/>
      <point x="233" y="367" type="curve" smooth="yes"/>
      <point x="233" y="263"/>
      <point x="102" y="216"/>
      <point x="29" y="222" type="curve"/>
      <point x="29" y="227"/>
      <point x="29" y="250"/>
      <point x="31" y="256" type="curve"/>
      <point x="97" y="256"/>
      <point x="156" y="286"/>
      <point x="156" y="365" type="curve" smooth="yes"/>
      <point x="156" y="408"/>
      <point x="134" y="423"/>
      <point x="83" y="414" type="curve"/>
      <point x="78" y="419"/>
      <point x="76" y="437"/>
      <point x="75" y="443" type="curve"/>
      <point x="102" y="451"/>
      <point x="135" y="472"/>
      <point x="135" y="518" type="curve" smooth="yes"/>
      <point x="135" y="544"/>
      <point x="112" y="548"/>
      <point x="95" y="548" type="curve" smooth="yes"/>
      <point x="74" y="548"/>
      <point x="66" y="546"/>
      <point x="52" y="542" type="curve"/>
      <point x="50" y="546"/>
      <point x="46" y="563"/>
    </contour>
  </outline>
</glyph>
<glyph name="acute" format="1">
  <advance width="416"/>
  <unicode hex="00B4"/>
  <outline>
    <contour>
      <point x="320" y="570" type="curve"/>
      <point x="322" y="552"/>
      <point x="339" y="510"/>
      <point x="348" y="492" type="curve"/>
      <point x="279" y="482"/>
      <point x="228" y="473"/>
      <point x="163" y="454" type="curve"/>
      <point x="158" y="463"/>
      <point x="153" y="475"/>
      <point x="152" y="483" type="curve"/>
      <point x="211" y="509"/>
      <point x="277" y="541"/>
    </contour>
  </outline>
</glyph>
<glyph name="mu" format="1">
  <advance width="476"/>
  <unicode hex="00B5"/>
  <unicode hex="03bc"/>
  <outline>
    <contour>
      <point x="151" y="397" type="curve"/>
      <point x="142" y="328"/>
      <point x="138" y="266"/>
      <point x="139" y="196" type="curve" smooth="yes"/>
      <point x="141" y="98"/>
      <point x="156" y="56"/>
      <point x="213" y="56" type="curve" smooth="yes"/>
      <point x="250" y="56"/>
      <point x="291" y="66"/>
      <point x="328" y="76" type="curve"/>
      <point x="332" y="114"/>
      <point x="332" y="314"/>
      <point x="323" y="383" type="curve"/>
      <point x="340" y="382"/>
      <point x="397" y="390"/>
      <point x="424" y="396" type="curve"/>
      <point x="412" y="307"/>
      <point x="414" y="43"/>
      <point x="428" y="5" type="curve"/>
      <point x="399" y="5"/>
      <point x="363" y="0"/>
      <point x="331" y="-5" type="curve"/>
      <point x="328" y="11"/>
      <point x="329" y="22"/>
      <point x="329" y="36" type="curve"/>
      <point x="281" y="16"/>
      <point x="218" y="-7"/>
      <point x="155" y="-7" type="curve" smooth="yes"/>
      <point x="128" y="-7"/>
      <point x="102" y="1"/>
      <point x="88" y="13" type="curve"/>
      <point x="95" y="-107"/>
      <point x="113" y="-233"/>
      <point x="122" y="-268" type="curve"/>
      <point x="96" y="-270"/>
      <point x="49" y="-273"/>
      <point x="19" y="-278" type="curve"/>
      <point x="39" y="-177"/>
      <point x="52" y="68"/>
      <point x="53" y="151" type="curve" smooth="yes"/>
      <point x="55" y="256"/>
      <point x="52" y="352"/>
      <point x="48" y="385" type="curve"/>
      <point x="79" y="386"/>
      <point x="127" y="390"/>
    </contour>
  </outline>
</glyph>
<glyph name="paragraph" format="1">
  <advance width="513"/>
  <unicode hex="00B6"/>
  <outline>
    <contour>
      <point x="222" y="329" type="curve"/>
      <point x="226" y="323"/>
      <point x="227" y="307"/>
      <point x="228" y="297" type="curve"/>
      <point x="192" y="286"/>
      <point x="165" y="283"/>
      <point x="146" y="283" type="curve" smooth="yes"/>
      <point x="55" y="283"/>
      <point x="25" y="330"/>
      <point x="25" y="395" type="curve" smooth="yes"/>
      <point x="25" y="457"/>
      <point x="87" y="585"/>
      <point x="308" y="584" type="curve" smooth="yes"/>
      <point x="342" y="584"/>
      <point x="396" y="584"/>
      <point x="464" y="578" type="curve"/>
      <point x="448" y="509"/>
      <point x="449" y="146"/>
      <point x="454" y="-2" type="curve"/>
      <point x="428" y="1"/>
      <point x="382" y="3"/>
      <point x="358" y="0" type="curve"/>
      <point x="365" y="123"/>
      <point x="366" y="378"/>
      <point x="364" y="541" type="curve"/>
      <point x="348" y="544"/>
      <point x="335" y="543"/>
      <point x="320" y="543" type="curve"/>
      <point x="315" y="344"/>
      <point x="313" y="103"/>
      <point x="315" y="-2" type="curve"/>
      <point x="289" y="2"/>
      <point x="293" y="2"/>
      <point x="267" y="-1" type="curve"/>
      <point x="275" y="205"/>
      <point x="279" y="356"/>
      <point x="273" y="543" type="curve"/>
      <point x="172" y="541"/>
      <point x="116" y="476"/>
      <point x="116" y="397" type="curve" smooth="yes"/>
      <point x="116" y="344"/>
      <point x="145" y="325"/>
      <point x="179" y="325" type="curve" smooth="yes"/>
      <point x="191" y="325"/>
      <point x="207" y="325"/>
    </contour>
  </outline>
</glyph>
<glyph name="periodcentered" format="1">
  <advance width="164"/>
  <unicode hex="00B7"/>
  <outline>
    <contour>
      <point x="91" y="338" type="curve" smooth="yes"/>
      <point x="131" y="338"/>
      <point x="139" y="313"/>
      <point x="139" y="300" type="curve" smooth="yes"/>
      <point x="139" y="285"/>
      <point x="121" y="253"/>
      <point x="72" y="253" type="curve" smooth="yes"/>
      <point x="46" y="253"/>
      <point x="26" y="266"/>
      <point x="26" y="292" type="curve" smooth="yes"/>
      <point x="26" y="311"/>
      <point x="49" y="338"/>
    </contour>
  </outline>
</glyph>
<glyph name="cedilla" format="1">
  <advance width="416"/>
  <unicode hex="00B8"/>
  <outline>
    <contour>
      <point x="132" y="-114" type="curve"/>
      <point x="149" y="-85"/>
      <point x="176" y="-21"/>
      <point x="189" y="12" type="curve"/>
      <point x="224" y="2" type="line"/>
      <point x="213" y="-19"/>
      <point x="203" y="-45"/>
      <point x="196" y="-68" type="curve"/>
      <point x="217" y="-83"/>
      <point x="239" y="-102"/>
      <point x="239" y="-141" type="curve" smooth="yes"/>
      <point x="239" y="-161"/>
      <point x="218" y="-216"/>
      <point x="176" y="-266" type="curve"/>
      <point x="169" y="-264"/>
      <point x="155" y="-256"/>
      <point x="150" y="-251" type="curve"/>
      <point x="167" y="-223"/>
      <point x="180" y="-197"/>
      <point x="180" y="-169" type="curve" smooth="yes"/>
      <point x="180" y="-152"/>
      <point x="164" y="-134"/>
    </contour>
  </outline>
</glyph>
<glyph name="onesuperior" format="1">
  <advance width="242"/>
  <unicode hex="00B9"/>
  <outline>
    <contour>
      <point x="175" y="591" type="curve"/>
      <point x="180" y="589"/>
      <point x="186" y="588"/>
      <point x="190" y="586" type="curve"/>
      <point x="182" y="539"/>
      <point x="186" y="296"/>
      <point x="191" y="233" type="curve"/>
      <point x="174" y="236"/>
      <point x="117" y="236"/>
      <point x="98" y="234" type="curve"/>
      <point x="108" y="290"/>
      <point x="111" y="477"/>
      <point x="105" y="527" type="curve"/>
      <point x="77" y="526"/>
      <point x="56" y="524"/>
      <point x="30" y="520" type="curve"/>
      <point x="28" y="524"/>
      <point x="27" y="541"/>
      <point x="26" y="545" type="curve"/>
      <point x="72" y="558"/>
      <point x="140" y="577"/>
    </contour>
  </outline>
</glyph>
<glyph name="ordmasculine" format="1">
  <advance width="419"/>
  <unicode hex="00BA"/>
  <outline>
    <contour>
      <point x="224" y="593" type="curve" smooth="yes"/>
      <point x="337" y="593"/>
      <point x="393" y="516"/>
      <point x="393" y="420" type="curve" smooth="yes"/>
      <point x="393" y="372"/>
      <point x="372" y="304"/>
      <point x="328" y="270" type="curve" smooth="yes"/>
      <point x="304" y="252"/>
      <point x="237" y="228"/>
      <point x="196" y="228" type="curve" smooth="yes"/>
      <point x="84" y="228"/>
      <point x="33" y="325"/>
      <point x="35" y="394" type="curve"/>
      <point x="35" y="458"/>
      <point x="65" y="520"/>
      <point x="105" y="550" type="curve" smooth="yes"/>
      <point x="129" y="568"/>
      <point x="193" y="593"/>
    </contour>
    <contour>
      <point x="214" y="548" type="curve" smooth="yes"/>
      <point x="181" y="548"/>
      <point x="118" y="524"/>
      <point x="118" y="402" type="curve" smooth="yes"/>
      <point x="118" y="344"/>
      <point x="143" y="272"/>
      <point x="210" y="272" type="curve" smooth="yes"/>
      <point x="276" y="272"/>
      <point x="313" y="322"/>
      <point x="309" y="419" type="curve"/>
      <point x="307" y="516"/>
      <point x="253" y="548"/>
    </contour>
  </outline>
</glyph>
<glyph name="guillemotright" format="1">
  <advance width="355"/>
  <unicode hex="00BB"/>
  <outline>
    <contour>
      <point x="44" y="321" type="curve"/>
      <point x="47" y="326"/>
      <point x="68" y="334"/>
      <point x="77" y="335" type="curve"/>
      <point x="99" y="293"/>
      <point x="134" y="243"/>
      <point x="174" y="191" type="curve"/>
      <point x="144" y="152"/>
      <point x="97" y="88"/>
      <point x="73" y="45" type="curve"/>
      <point x="65" y="48"/>
      <point x="46" y="51"/>
      <point x="40" y="58" type="curve"/>
      <point x="62" y="107"/>
      <point x="74" y="149"/>
      <point x="84" y="190" type="curve"/>
      <point x="76" y="231"/>
      <point x="66" y="269"/>
    </contour>
    <contour>
      <point x="191" y="321" type="curve"/>
      <point x="194" y="326"/>
      <point x="215" y="334"/>
      <point x="224" y="335" type="curve"/>
      <point x="246" y="293"/>
      <point x="281" y="243"/>
      <point x="321" y="191" type="curve"/>
      <point x="291" y="152"/>
      <point x="244" y="88"/>
      <point x="220" y="45" type="curve"/>
      <point x="212" y="48"/>
      <point x="193" y="51"/>
      <point x="187" y="58" type="curve"/>
      <point x="208" y="107"/>
      <point x="221" y="149"/>
      <point x="231" y="190" type="curve"/>
      <point x="223" y="231"/>
      <point x="213" y="269"/>
    </contour>
  </outline>
</glyph>
<glyph name="onequarter" format="1">
  <advance width="602"/>
  <unicode hex="00BC"/>
  <outline>
    <contour>
      <point x="469" y="-1" type="curve"/>
      <point x="475" y="27"/>
      <point x="477" y="47"/>
      <point x="476" y="90" type="curve"/>
      <point x="474" y="90"/>
      <point x="371" y="92"/>
      <point x="337" y="90" type="curve"/>
      <point x="333" y="92"/>
      <point x="324" y="116"/>
      <point x="323" y="125" type="curve"/>
      <point x="370" y="188"/>
      <point x="452" y="314"/>
      <point x="485" y="364" type="curve"/>
      <point x="489" y="362"/>
      <point x="513" y="354"/>
      <point x="516" y="350" type="curve"/>
      <point x="474" y="288"/>
      <point x="418" y="192"/>
      <point x="379" y="127" type="curve"/>
      <point x="418" y="126"/>
      <point x="445" y="127"/>
      <point x="476" y="126" type="curve"/>
      <point x="477" y="143"/>
      <point x="477" y="171"/>
      <point x="475" y="221" type="curve"/>
      <point x="498" y="224"/>
      <point x="541" y="239"/>
      <point x="557" y="246" type="curve"/>
      <point x="552" y="206"/>
      <point x="550" y="186"/>
      <point x="550" y="127" type="curve"/>
      <point x="575" y="127" type="line"/>
      <point x="577" y="118"/>
      <point x="577" y="97"/>
      <point x="574" y="89" type="curve"/>
      <point x="560" y="89"/>
      <point x="555" y="90"/>
      <point x="549" y="89" type="curve"/>
      <point x="549" y="69"/>
      <point x="551" y="30"/>
      <point x="556" y="0" type="curve"/>
      <point x="541" y="2"/>
      <point x="488" y="2"/>
    </contour>
    <contour>
      <point x="528" y="581" type="curve"/>
      <point x="93" y="-13" type="line"/>
      <point x="82" y="-10"/>
      <point x="63" y="-4"/>
      <point x="54" y="5" type="curve"/>
      <point x="489" y="600" type="line"/>
      <point x="499" y="598"/>
      <point x="524" y="587"/>
    </contour>
    <contour>
      <point x="171" y="592" type="curve"/>
      <point x="176" y="590"/>
      <point x="182" y="589"/>
      <point x="186" y="587" type="curve"/>
      <point x="179" y="541"/>
      <point x="182" y="303"/>
      <point x="186" y="241" type="curve"/>
      <point x="170" y="245"/>
      <point x="116" y="245"/>
      <point x="97" y="242" type="curve"/>
      <point x="107" y="298"/>
      <point x="109" y="480"/>
      <point x="104" y="529" type="curve"/>
      <point x="77" y="529"/>
      <point x="57" y="526"/>
      <point x="31" y="523" type="curve"/>
      <point x="29" y="526"/>
      <point x="28" y="543"/>
      <point x="27" y="547" type="curve"/>
      <point x="72" y="559"/>
      <point x="137" y="578"/>
    </contour>
  </outline>
</glyph>
<glyph name="onehalf" format="1">
  <advance width="585"/>
  <unicode hex="00BD"/>
  <outline>
    <contour>
      <point x="469" y="-1" type="curve"/>
      <point x="475" y="27"/>
      <point x="477" y="47"/>
      <point x="476" y="90" type="curve"/>
      <point x="474" y="90"/>
      <point x="371" y="92"/>
      <point x="337" y="90" type="curve"/>
      <point x="333" y="92"/>
      <point x="324" y="116"/>
      <point x="323" y="125" type="curve"/>
      <point x="370" y="188"/>
      <point x="452" y="314"/>
      <point x="485" y="364" type="curve"/>
      <point x="489" y="362"/>
      <point x="513" y="354"/>
      <point x="516" y="350" type="curve"/>
      <point x="474" y="288"/>
      <point x="418" y="192"/>
      <point x="379" y="127" type="curve"/>
      <point x="418" y="126"/>
      <point x="445" y="127"/>
      <point x="476" y="126" type="curve"/>
      <point x="477" y="143"/>
      <point x="477" y="171"/>
      <point x="475" y="221" type="curve"/>
      <point x="498" y="224"/>
      <point x="541" y="239"/>
      <point x="557" y="246" type="curve"/>
      <point x="552" y="206"/>
      <point x="550" y="186"/>
      <point x="550" y="127" type="curve"/>
      <point x="575" y="127" type="line"/>
      <point x="577" y="118"/>
      <point x="577" y="97"/>
      <point x="574" y="89" type="curve"/>
      <point x="560" y="89"/>
      <point x="555" y="90"/>
      <point x="549" y="89" type="curve"/>
      <point x="549" y="69"/>
      <point x="551" y="30"/>
      <point x="556" y="0" type="curve"/>
      <point x="541" y="2"/>
      <point x="488" y="2"/>
    </contour>
    <contour>
      <point x="45" y="570" type="curve"/>
      <point x="58" y="577"/>
      <point x="105" y="593"/>
      <point x="132" y="593" type="curve" smooth="yes"/>
      <point x="192" y="593"/>
      <point x="211" y="563"/>
      <point x="211" y="533" type="curve" smooth="yes"/>
      <point x="211" y="508"/>
      <point x="189" y="472"/>
      <point x="141" y="452" type="curve"/>
      <point x="197" y="452"/>
      <point x="233" y="423"/>
      <point x="233" y="372" type="curve" smooth="yes"/>
      <point x="233" y="270"/>
      <point x="101" y="223"/>
      <point x="28" y="230" type="curve"/>
      <point x="28" y="234"/>
      <point x="28" y="256"/>
      <point x="30" y="262" type="curve"/>
      <point x="97" y="263"/>
      <point x="156" y="293"/>
      <point x="156" y="370" type="curve" smooth="yes"/>
      <point x="156" y="412"/>
      <point x="134" y="427"/>
      <point x="83" y="418" type="curve"/>
      <point x="78" y="423"/>
      <point x="75" y="441"/>
      <point x="74" y="447" type="curve"/>
      <point x="101" y="454"/>
      <point x="135" y="475"/>
      <point x="135" y="520" type="curve" smooth="yes"/>
      <point x="135" y="546"/>
      <point x="112" y="550"/>
      <point x="95" y="550" type="curve" smooth="yes"/>
      <point x="73" y="550"/>
      <point x="65" y="547"/>
      <point x="52" y="544" type="curve"/>
      <point x="50" y="547"/>
      <point x="45" y="564"/>
    </contour>
    <contour>
      <point x="528" y="581" type="curve"/>
      <point x="93" y="-13" type="line"/>
      <point x="82" y="-10"/>
      <point x="63" y="-4"/>
      <point x="54" y="5" type="curve"/>
      <point x="489" y="600" type="line"/>
      <point x="499" y="598"/>
      <point x="524" y="587"/>
    </contour>
  </outline>
</glyph>
<glyph name="threequarters" format="1">
  <advance width="606"/>
  <unicode hex="00BE"/>
  <outline>
    <contour>
      <point x="171" y="592" type="curve"/>
      <point x="176" y="590"/>
      <point x="182" y="589"/>
      <point x="186" y="587" type="curve"/>
      <point x="179" y="541"/>
      <point x="182" y="303"/>
      <point x="186" y="241" type="curve"/>
      <point x="170" y="245"/>
      <point x="116" y="245"/>
      <point x="97" y="242" type="curve"/>
      <point x="107" y="298"/>
      <point x="109" y="480"/>
      <point x="104" y="529" type="curve"/>
      <point x="77" y="529"/>
      <point x="57" y="526"/>
      <point x="31" y="523" type="curve"/>
      <point x="29" y="526"/>
      <point x="28" y="543"/>
      <point x="27" y="547" type="curve"/>
      <point x="72" y="559"/>
      <point x="137" y="578"/>
    </contour>
    <contour>
      <point x="386" y="306" type="curve"/>
      <point x="417" y="323"/>
      <point x="460" y="343"/>
      <point x="504" y="343" type="curve" smooth="yes"/>
      <point x="552" y="343"/>
      <point x="571" y="306"/>
      <point x="571" y="272" type="curve" smooth="yes"/>
      <point x="571" y="228"/>
      <point x="538" y="185"/>
      <point x="516" y="153" type="curve"/>
      <point x="511" y="148"/>
      <point x="470" y="100"/>
      <point x="444" y="69" type="curve"/>
      <point x="477" y="64"/>
      <point x="583" y="67"/>
      <point x="592" y="69" type="curve"/>
      <point x="582" y="48"/>
      <point x="575" y="20"/>
      <point x="571" y="-3" type="curve"/>
      <point x="531" y="2"/>
      <point x="436" y="5"/>
      <point x="371" y="0" type="curve"/>
      <point x="367" y="5"/>
      <point x="367" y="15"/>
      <point x="366" y="20" type="curve"/>
      <point x="423" y="79"/>
      <point x="498" y="176"/>
      <point x="498" y="253" type="curve" smooth="yes"/>
      <point x="498" y="280"/>
      <point x="479" y="292"/>
      <point x="453" y="292" type="curve" smooth="yes"/>
      <point x="428" y="292"/>
      <point x="417" y="287"/>
      <point x="396" y="281" type="curve"/>
      <point x="390" y="286"/>
      <point x="387" y="300"/>
    </contour>
    <contour>
      <point x="528" y="581" type="curve"/>
      <point x="93" y="-13" type="line"/>
      <point x="82" y="-10"/>
      <point x="63" y="-4"/>
      <point x="54" y="5" type="curve"/>
      <point x="489" y="600" type="line"/>
      <point x="499" y="598"/>
      <point x="524" y="587"/>
    </contour>
  </outline>
</glyph>
<glyph name="questiondown" format="1">
  <advance width="262"/>
  <unicode hex="00BF"/>
  <outline>
    <contour>
      <point x="161" y="231" type="curve"/>
      <point x="181" y="188"/>
      <point x="194" y="156"/>
      <point x="194" y="119" type="curve"/>
      <point x="192" y="50"/>
      <point x="121" y="1"/>
      <point x="121" y="-70" type="curve" smooth="yes"/>
      <point x="121" y="-120"/>
      <point x="151" y="-156"/>
      <point x="194" y="-191" type="curve"/>
      <point x="188" y="-201"/>
      <point x="182" y="-211"/>
      <point x="173" y="-219" type="curve"/>
      <point x="97" y="-162"/>
      <point x="38" y="-103"/>
      <point x="38" y="-39" type="curve" smooth="yes"/>
      <point x="38" y="46"/>
      <point x="136" y="105"/>
      <point x="137" y="181" type="curve" smooth="yes"/>
      <point x="137" y="192"/>
      <point x="134" y="207"/>
      <point x="129" y="223" type="curve"/>
      <point x="139" y="227"/>
      <point x="151" y="230"/>
    </contour>
    <contour>
      <point x="134" y="307" type="curve" smooth="yes"/>
      <point x="94" y="307"/>
      <point x="86" y="333"/>
      <point x="86" y="346" type="curve" smooth="yes"/>
      <point x="86" y="360"/>
      <point x="104" y="392"/>
      <point x="152" y="392" type="curve" smooth="yes"/>
      <point x="179" y="392"/>
      <point x="199" y="380"/>
      <point x="199" y="354" type="curve" smooth="yes"/>
      <point x="199" y="334"/>
      <point x="176" y="307"/>
    </contour>
  </outline>
</glyph>
<glyph name="Acircumflex" format="1">
  <advance width="514"/>
  <unicode hex="00C2"/>
  <outline>
    <contour>
      <point x="325" y="217" type="curve"/>
      <point x="272" y="215"/>
      <point x="196" y="208"/>
      <point x="149" y="202" type="curve"/>
      <point x="110" y="107"/>
      <point x="96" y="66"/>
      <point x="82" y="4" type="curve"/>
      <point x="62" y="5"/>
      <point x="17" y="-1"/>
      <point x="-8" y="-7" type="curve"/>
      <point x="77" y="137"/>
      <point x="141" y="281"/>
      <point x="210" y="441" type="curve" smooth="yes"/>
      <point x="242" y="513"/>
      <point x="251" y="543"/>
      <point x="261" y="588" type="curve"/>
      <point x="272" y="593"/>
      <point x="280" y="595"/>
      <point x="292" y="598" type="curve"/>
      <point x="360" y="365"/>
      <point x="426" y="172"/>
      <point x="497" y="-2" type="curve"/>
      <point x="455" y="3"/>
      <point x="404" y="1"/>
      <point x="381" y="-2" type="curve"/>
      <point x="370" y="59"/>
      <point x="352" y="128"/>
    </contour>
    <contour>
      <point x="254" y="457" type="curve"/>
      <point x="166" y="246" type="line"/>
      <point x="220" y="245"/>
      <point x="267" y="248"/>
      <point x="315" y="252" type="curve"/>
      <point x="299" y="310"/>
      <point x="285" y="350"/>
      <point x="272" y="393" type="curve" smooth="yes"/>
      <point x="266" y="410"/>
      <point x="259" y="435"/>
    </contour>
    <contour>
      <point x="181" y="632" type="curve"/>
      <point x="176" y="636"/>
      <point x="168" y="649"/>
      <point x="167" y="658" type="curve"/>
      <point x="201" y="678"/>
      <point x="232" y="703"/>
      <point x="281" y="738" type="curve"/>
      <point x="314" y="710"/>
      <point x="347" y="681"/>
      <point x="381" y="660" type="curve"/>
      <point x="378" y="652"/>
      <point x="372" y="639"/>
      <point x="366" y="634" type="curve"/>
      <point x="328" y="651"/>
      <point x="312" y="657"/>
      <point x="279" y="668" type="curve"/>
      <point x="246" y="659"/>
      <point x="210" y="646"/>
    </contour>
  </outline>
</glyph>
<glyph name="Atilde" format="1">
  <advance width="514"/>
  <unicode hex="00C3"/>
  <outline>
    <contour>
      <point x="325" y="217" type="curve"/>
      <point x="272" y="215"/>
      <point x="196" y="208"/>
      <point x="149" y="202" type="curve"/>
      <point x="110" y="107"/>
      <point x="96" y="66"/>
      <point x="82" y="4" type="curve"/>
      <point x="62" y="5"/>
      <point x="17" y="-1"/>
      <point x="-8" y="-7" type="curve"/>
      <point x="77" y="137"/>
      <point x="141" y="281"/>
      <point x="210" y="441" type="curve" smooth="yes"/>
      <point x="242" y="513"/>
      <point x="251" y="543"/>
      <point x="261" y="588" type="curve"/>
      <point x="272" y="593"/>
      <point x="280" y="595"/>
      <point x="292" y="598" type="curve"/>
      <point x="360" y="365"/>
      <point x="426" y="172"/>
      <point x="497" y="-2" type="curve"/>
      <point x="455" y="3"/>
      <point x="404" y="1"/>
      <point x="381" y="-2" type="curve"/>
      <point x="370" y="59"/>
      <point x="352" y="128"/>
    </contour>
    <contour>
      <point x="254" y="457" type="curve"/>
      <point x="166" y="246" type="line"/>
      <point x="220" y="245"/>
      <point x="267" y="248"/>
      <point x="315" y="252" type="curve"/>
      <point x="299" y="310"/>
      <point x="285" y="350"/>
      <point x="272" y="393" type="curve" smooth="yes"/>
      <point x="266" y="410"/>
      <point x="259" y="435"/>
    </contour>
    <contour>
      <point x="312" y="637" type="curve" smooth="yes"/>
      <point x="295" y="637"/>
      <point x="258" y="655"/>
      <point x="242" y="655" type="curve" smooth="yes"/>
      <point x="218" y="655"/>
      <point x="200" y="648"/>
      <point x="177" y="633" type="curve"/>
      <point x="170" y="639"/>
      <point x="163" y="651"/>
      <point x="162" y="659" type="curve"/>
      <point x="187" y="684"/>
      <point x="237" y="722"/>
      <point x="258" y="722" type="curve" smooth="yes"/>
      <point x="282" y="722"/>
      <point x="311" y="704"/>
      <point x="332" y="704" type="curve" smooth="yes"/>
      <point x="356" y="704"/>
      <point x="373" y="713"/>
      <point x="394" y="724" type="curve"/>
      <point x="401" y="719"/>
      <point x="408" y="707"/>
      <point x="410" y="699" type="curve"/>
      <point x="379" y="668"/>
      <point x="332" y="637"/>
    </contour>
  </outline>
</glyph>
<glyph name="Adieresis" format="1">
  <advance width="514"/>
  <unicode hex="00C4"/>
  <outline>
    <contour>
      <point x="325" y="217" type="curve"/>
      <point x="272" y="215"/>
      <point x="196" y="208"/>
      <point x="149" y="202" type="curve"/>
      <point x="110" y="107"/>
      <point x="96" y="66"/>
      <point x="82" y="4" type="curve"/>
      <point x="62" y="5"/>
      <point x="17" y="-1"/>
      <point x="-8" y="-7" type="curve"/>
      <point x="77" y="137"/>
      <point x="141" y="281"/>
      <point x="210" y="441" type="curve" smooth="yes"/>
      <point x="242" y="513"/>
      <point x="251" y="543"/>
      <point x="261" y="588" type="curve"/>
      <point x="272" y="593"/>
      <point x="280" y="595"/>
      <point x="292" y="598" type="curve"/>
      <point x="360" y="365"/>
      <point x="426" y="172"/>
      <point x="497" y="-2" type="curve"/>
      <point x="455" y="3"/>
      <point x="404" y="1"/>
      <point x="381" y="-2" type="curve"/>
      <point x="370" y="59"/>
      <point x="352" y="128"/>
    </contour>
    <contour>
      <point x="254" y="457" type="curve"/>
      <point x="166" y="246" type="line"/>
      <point x="220" y="245"/>
      <point x="267" y="248"/>
      <point x="315" y="252" type="curve"/>
      <point x="299" y="310"/>
      <point x="285" y="350"/>
      <point x="272" y="393" type="curve" smooth="yes"/>
      <point x="266" y="410"/>
      <point x="259" y="435"/>
    </contour>
    <contour>
      <point x="214" y="718" type="curve" smooth="yes"/>
      <point x="242" y="718"/>
      <point x="256" y="705"/>
      <point x="256" y="687" type="curve" smooth="yes"/>
      <point x="256" y="665"/>
      <point x="225" y="652"/>
      <point x="200" y="652" type="curve" smooth="yes"/>
      <point x="182" y="652"/>
      <point x="165" y="663"/>
      <point x="165" y="678" type="curve" smooth="yes"/>
      <point x="165" y="700"/>
      <point x="190" y="718"/>
    </contour>
    <contour>
      <point x="364" y="718" type="curve" smooth="yes"/>
      <point x="392" y="718"/>
      <point x="405" y="705"/>
      <point x="405" y="687" type="curve" smooth="yes"/>
      <point x="405" y="665"/>
      <point x="375" y="652"/>
      <point x="350" y="652" type="curve" smooth="yes"/>
      <point x="331" y="652"/>
      <point x="315" y="663"/>
      <point x="315" y="678" type="curve" smooth="yes"/>
      <point x="315" y="700"/>
      <point x="340" y="718"/>
    </contour>
  </outline>
</glyph>
<glyph name="Aring" format="1">
  <advance width="514"/>
  <unicode hex="00C5"/>
  <outline>
    <contour>
      <point x="290" y="740" type="curve" smooth="yes"/>
      <point x="334" y="740"/>
      <point x="375" y="722"/>
      <point x="375" y="688" type="curve" smooth="yes"/>
      <point x="375" y="641"/>
      <point x="316" y="616"/>
      <point x="270" y="617" type="curve"/>
      <point x="226" y="619"/>
      <point x="190" y="639"/>
      <point x="190" y="673" type="curve" smooth="yes"/>
      <point x="190" y="710"/>
      <point x="236" y="740"/>
    </contour>
    <contour>
      <point x="285" y="713" type="curve" smooth="yes"/>
      <point x="259" y="713"/>
      <point x="244" y="696"/>
      <point x="244" y="677" type="curve" smooth="yes"/>
      <point x="244" y="659"/>
      <point x="256" y="646"/>
      <point x="277" y="646" type="curve" smooth="yes"/>
      <point x="306" y="646"/>
      <point x="320" y="661"/>
      <point x="320" y="685" type="curve" smooth="yes"/>
      <point x="320" y="701"/>
      <point x="304" y="713"/>
    </contour>
    <contour>
      <point x="325" y="217" type="curve"/>
      <point x="272" y="215"/>
      <point x="196" y="208"/>
      <point x="149" y="202" type="curve"/>
      <point x="110" y="107"/>
      <point x="96" y="66"/>
      <point x="82" y="4" type="curve"/>
      <point x="62" y="5"/>
      <point x="17" y="-1"/>
      <point x="-8" y="-7" type="curve"/>
      <point x="77" y="137"/>
      <point x="141" y="281"/>
      <point x="210" y="441" type="curve" smooth="yes"/>
      <point x="242" y="513"/>
      <point x="251" y="543"/>
      <point x="261" y="588" type="curve"/>
      <point x="272" y="593"/>
      <point x="280" y="595"/>
      <point x="292" y="598" type="curve"/>
      <point x="360" y="365"/>
      <point x="426" y="172"/>
      <point x="497" y="-2" type="curve"/>
      <point x="455" y="3"/>
      <point x="404" y="1"/>
      <point x="381" y="-2" type="curve"/>
      <point x="370" y="59"/>
      <point x="352" y="128"/>
    </contour>
    <contour>
      <point x="254" y="457" type="curve"/>
      <point x="166" y="246" type="line"/>
      <point x="220" y="245"/>
      <point x="267" y="248"/>
      <point x="315" y="252" type="curve"/>
      <point x="299" y="310"/>
      <point x="285" y="350"/>
      <point x="272" y="393" type="curve" smooth="yes"/>
      <point x="266" y="410"/>
      <point x="259" y="435"/>
    </contour>
  </outline>
</glyph>
<glyph name="AE" format="1">
  <advance width="775"/>
  <unicode hex="00C6"/>
  <outline>
    <contour>
      <point x="218" y="226" type="curve"/>
      <point x="162" y="131"/>
      <point x="128" y="67"/>
      <point x="100" y="4" type="curve"/>
      <point x="80" y="5"/>
      <point x="22" y="-1"/>
      <point x="-4" y="-7" type="curve"/>
      <point x="93" y="113"/>
      <point x="305" y="424"/>
      <point x="398" y="586" type="curve"/>
      <point x="492" y="581"/>
      <point x="643" y="582"/>
      <point x="756" y="584" type="curve"/>
      <point x="753" y="548" type="line"/>
      <point x="653" y="545"/>
      <point x="600" y="544"/>
      <point x="508" y="540" type="curve"/>
      <point x="504" y="501"/>
      <point x="503" y="373"/>
      <point x="503" y="350" type="curve"/>
      <point x="580" y="349"/>
      <point x="640" y="349"/>
      <point x="717" y="353" type="curve"/>
      <point x="718" y="319" type="line"/>
      <point x="654" y="316"/>
      <point x="568" y="310"/>
      <point x="502" y="305" type="curve"/>
      <point x="501" y="246"/>
      <point x="503" y="109"/>
      <point x="505" y="45" type="curve"/>
      <point x="580" y="41"/>
      <point x="656" y="37"/>
      <point x="773" y="37" type="curve"/>
      <point x="776" y="-2" type="line"/>
      <point x="541" y="2"/>
      <point x="514" y="2"/>
      <point x="400" y="-2" type="curve"/>
      <point x="404" y="35"/>
      <point x="408" y="132"/>
      <point x="410" y="241" type="curve"/>
      <point x="349" y="238"/>
      <point x="257" y="230"/>
    </contour>
    <contour>
      <point x="248" y="273" type="curve"/>
      <point x="291" y="272"/>
      <point x="359" y="276"/>
      <point x="411" y="280" type="curve"/>
      <point x="412" y="374"/>
      <point x="412" y="470"/>
      <point x="409" y="529" type="curve"/>
      <point x="361" y="457"/>
      <point x="314" y="381"/>
    </contour>
  </outline>
</glyph>
<glyph name="Ccedilla" format="1">
  <advance width="548"/>
  <unicode hex="00C7"/>
  <outline>
    <contour>
      <point x="228" y="-114" type="curve"/>
      <point x="241" y="-92"/>
      <point x="261" y="-47"/>
      <point x="275" y="-13" type="curve"/>
      <point x="103" y="-1"/>
      <point x="33" y="128"/>
      <point x="33" y="245" type="curve" smooth="yes"/>
      <point x="33" y="422"/>
      <point x="158" y="595"/>
      <point x="372" y="595" type="curve" smooth="yes"/>
      <point x="402" y="595"/>
      <point x="466" y="579"/>
      <point x="496" y="559" type="curve"/>
      <point x="494" y="550"/>
      <point x="485" y="535"/>
      <point x="479" y="530" type="curve"/>
      <point x="445" y="545"/>
      <point x="398" y="553"/>
      <point x="368" y="553" type="curve" smooth="yes"/>
      <point x="201" y="553"/>
      <point x="128" y="400"/>
      <point x="128" y="251" type="curve" smooth="yes"/>
      <point x="128" y="128"/>
      <point x="201" y="43"/>
      <point x="320" y="42" type="curve" smooth="yes"/>
      <point x="369" y="41"/>
      <point x="440" y="53"/>
      <point x="500" y="85" type="curve"/>
      <point x="509" y="77"/>
      <point x="515" y="63"/>
      <point x="517" y="54" type="curve"/>
      <point x="467" y="26"/>
      <point x="378" y="-8"/>
      <point x="312" y="-13" type="curve"/>
      <point x="304" y="-30"/>
      <point x="298" y="-50"/>
      <point x="292" y="-68" type="curve"/>
      <point x="313" y="-83"/>
      <point x="335" y="-102"/>
      <point x="335" y="-141" type="curve" smooth="yes"/>
      <point x="335" y="-161"/>
      <point x="314" y="-216"/>
      <point x="271" y="-266" type="curve"/>
      <point x="264" y="-264"/>
      <point x="251" y="-256"/>
      <point x="246" y="-251" type="curve"/>
      <point x="263" y="-223"/>
      <point x="275" y="-197"/>
      <point x="275" y="-169" type="curve" smooth="yes"/>
      <point x="275" y="-152"/>
      <point x="260" y="-134"/>
    </contour>
  </outline>
</glyph>
<glyph name="Egrave" format="1">
  <advance width="439"/>
  <unicode hex="00C8"/>
  <outline>
    <contour>
      <point x="55" y="583" type="curve"/>
      <point x="140" y="580"/>
      <point x="290" y="582"/>
      <point x="404" y="584" type="curve"/>
      <point x="402" y="548" type="line"/>
      <point x="301" y="545"/>
      <point x="249" y="544"/>
      <point x="156" y="540" type="curve"/>
      <point x="152" y="501"/>
      <point x="151" y="373"/>
      <point x="151" y="350" type="curve"/>
      <point x="229" y="349"/>
      <point x="289" y="349"/>
      <point x="365" y="353" type="curve"/>
      <point x="367" y="319" type="line"/>
      <point x="303" y="316"/>
      <point x="217" y="310"/>
      <point x="151" y="305" type="curve"/>
      <point x="150" y="246"/>
      <point x="151" y="109"/>
      <point x="154" y="45" type="curve"/>
      <point x="229" y="41"/>
      <point x="305" y="37"/>
      <point x="422" y="37" type="curve"/>
      <point x="424" y="-2" type="line"/>
      <point x="190" y="2"/>
      <point x="162" y="2"/>
      <point x="48" y="-2" type="curve"/>
      <point x="61" y="84"/>
      <point x="64" y="531"/>
    </contour>
    <contour>
      <point x="173" y="748" type="curve"/>
      <point x="210" y="723"/>
      <point x="283" y="684"/>
      <point x="342" y="657" type="curve"/>
      <point x="341" y="648"/>
      <point x="335" y="637"/>
      <point x="330" y="628" type="curve"/>
      <point x="265" y="648"/>
      <point x="216" y="660"/>
      <point x="147" y="671" type="curve"/>
      <point x="156" y="689"/>
      <point x="170" y="729"/>
    </contour>
  </outline>
</glyph>
<glyph name="Ecircumflex" format="1">
  <advance width="439"/>
  <unicode hex="00CA"/>
  <outline>
    <contour>
      <point x="55" y="583" type="curve"/>
      <point x="140" y="580"/>
      <point x="290" y="582"/>
      <point x="404" y="584" type="curve"/>
      <point x="402" y="548" type="line"/>
      <point x="301" y="545"/>
      <point x="249" y="544"/>
      <point x="156" y="540" type="curve"/>
      <point x="152" y="501"/>
      <point x="151" y="373"/>
      <point x="151" y="350" type="curve"/>
      <point x="229" y="349"/>
      <point x="289" y="349"/>
      <point x="365" y="353" type="curve"/>
      <point x="367" y="319" type="line"/>
      <point x="303" y="316"/>
      <point x="217" y="310"/>
      <point x="151" y="305" type="curve"/>
      <point x="150" y="246"/>
      <point x="151" y="109"/>
      <point x="154" y="45" type="curve"/>
      <point x="229" y="41"/>
      <point x="305" y="37"/>
      <point x="422" y="37" type="curve"/>
      <point x="424" y="-2" type="line"/>
      <point x="190" y="2"/>
      <point x="162" y="2"/>
      <point x="48" y="-2" type="curve"/>
      <point x="61" y="84"/>
      <point x="64" y="531"/>
    </contour>
    <contour>
      <point x="147" y="633" type="curve"/>
      <point x="142" y="637"/>
      <point x="134" y="650"/>
      <point x="133" y="659" type="curve"/>
      <point x="167" y="679"/>
      <point x="198" y="704"/>
      <point x="247" y="739" type="curve"/>
      <point x="280" y="711"/>
      <point x="313" y="682"/>
      <point x="347" y="661" type="curve"/>
      <point x="344" y="653"/>
      <point x="338" y="640"/>
      <point x="332" y="635" type="curve"/>
      <point x="294" y="652"/>
      <point x="278" y="658"/>
      <point x="245" y="669" type="curve"/>
      <point x="212" y="660"/>
      <point x="176" y="647"/>
    </contour>
  </outline>
</glyph>
<glyph name="Igrave" format="1">
  <advance width="205"/>
  <unicode hex="00CC"/>
  <outline>
    <contour>
      <point x="55" y="583" type="curve"/>
      <point x="72" y="579"/>
      <point x="135" y="581"/>
      <point x="156" y="583" type="curve"/>
      <point x="141" y="387"/>
      <point x="143" y="146"/>
      <point x="151" y="-2" type="curve"/>
      <point x="125" y="1"/>
      <point x="72" y="3"/>
      <point x="48" y="0" type="curve"/>
      <point x="61" y="133"/>
      <point x="62" y="424"/>
    </contour>
    <contour>
      <point x="30" y="748" type="curve"/>
      <point x="67" y="723"/>
      <point x="140" y="684"/>
      <point x="199" y="657" type="curve"/>
      <point x="198" y="648"/>
      <point x="192" y="637"/>
      <point x="187" y="628" type="curve"/>
      <point x="122" y="648"/>
      <point x="73" y="660"/>
      <point x="4" y="671" type="curve"/>
      <point x="13" y="689"/>
      <point x="27" y="729"/>
    </contour>
  </outline>
</glyph>
<glyph name="Iacute" format="1">
  <advance width="205"/>
  <unicode hex="00CD"/>
  <outline>
    <contour>
      <point x="55" y="583" type="curve"/>
      <point x="72" y="579"/>
      <point x="135" y="581"/>
      <point x="156" y="583" type="curve"/>
      <point x="141" y="387"/>
      <point x="143" y="146"/>
      <point x="151" y="-2" type="curve"/>
      <point x="125" y="1"/>
      <point x="72" y="3"/>
      <point x="48" y="0" type="curve"/>
      <point x="61" y="133"/>
      <point x="62" y="424"/>
    </contour>
    <contour>
      <point x="183" y="749" type="curve"/>
      <point x="185" y="731"/>
      <point x="202" y="689"/>
      <point x="211" y="671" type="curve"/>
      <point x="142" y="661"/>
      <point x="91" y="652"/>
      <point x="26" y="633" type="curve"/>
      <point x="21" y="642"/>
      <point x="16" y="654"/>
      <point x="15" y="662" type="curve"/>
      <point x="74" y="688"/>
      <point x="140" y="720"/>
    </contour>
  </outline>
</glyph>
<glyph name="Icircumflex" format="1">
  <advance width="205"/>
  <unicode hex="00CE"/>
  <outline>
    <contour>
      <point x="55" y="583" type="curve"/>
      <point x="72" y="579"/>
      <point x="135" y="581"/>
      <point x="156" y="583" type="curve"/>
      <point x="141" y="387"/>
      <point x="143" y="146"/>
      <point x="151" y="-2" type="curve"/>
      <point x="125" y="1"/>
      <point x="72" y="3"/>
      <point x="48" y="0" type="curve"/>
      <point x="61" y="133"/>
      <point x="62" y="424"/>
    </contour>
    <contour>
      <point x="10" y="632" type="curve"/>
      <point x="5" y="636"/>
      <point x="-3" y="649"/>
      <point x="-4" y="658" type="curve"/>
      <point x="30" y="678"/>
      <point x="61" y="703"/>
      <point x="110" y="738" type="curve"/>
      <point x="143" y="710"/>
      <point x="176" y="681"/>
      <point x="210" y="660" type="curve"/>
      <point x="207" y="652"/>
      <point x="201" y="639"/>
      <point x="195" y="634" type="curve"/>
      <point x="157" y="651"/>
      <point x="141" y="657"/>
      <point x="108" y="668" type="curve"/>
      <point x="75" y="659"/>
      <point x="39" y="646"/>
    </contour>
  </outline>
</glyph>
<glyph name="Idieresis" format="1">
  <advance width="205"/>
  <unicode hex="00CF"/>
  <outline>
    <contour>
      <point x="35" y="705" type="curve" smooth="yes"/>
      <point x="60" y="705"/>
      <point x="72" y="693"/>
      <point x="72" y="677" type="curve" smooth="yes"/>
      <point x="72" y="658"/>
      <point x="45" y="645"/>
      <point x="22" y="645" type="curve" smooth="yes"/>
      <point x="5" y="645"/>
      <point x="-10" y="655"/>
      <point x="-10" y="669" type="curve" smooth="yes"/>
      <point x="-10" y="688"/>
      <point x="13" y="705"/>
    </contour>
    <contour>
      <point x="170" y="705" type="curve" smooth="yes"/>
      <point x="195" y="705"/>
      <point x="207" y="693"/>
      <point x="207" y="677" type="curve" smooth="yes"/>
      <point x="207" y="658"/>
      <point x="180" y="645"/>
      <point x="156" y="645" type="curve" smooth="yes"/>
      <point x="140" y="645"/>
      <point x="125" y="655"/>
      <point x="125" y="669" type="curve" smooth="yes"/>
      <point x="125" y="688"/>
      <point x="148" y="705"/>
    </contour>
    <contour>
      <point x="55" y="583" type="curve"/>
      <point x="72" y="579"/>
      <point x="135" y="581"/>
      <point x="156" y="583" type="curve"/>
      <point x="141" y="387"/>
      <point x="143" y="146"/>
      <point x="151" y="-2" type="curve"/>
      <point x="125" y="1"/>
      <point x="72" y="3"/>
      <point x="48" y="0" type="curve"/>
      <point x="61" y="133"/>
      <point x="62" y="424"/>
    </contour>
  </outline>
</glyph>
<glyph name="Ntilde" format="1">
  <advance width="614"/>
  <unicode hex="00D1"/>
  <outline>
    <contour>
      <point x="555" y="3" type="curve"/>
      <point x="530" y="-7" type="line"/>
      <point x="396" y="157"/>
      <point x="180" y="349"/>
      <point x="104" y="432" type="curve"/>
      <point x="102" y="298"/>
      <point x="122" y="42"/>
      <point x="129" y="9" type="curve"/>
      <point x="102" y="5"/>
      <point x="79" y="2"/>
      <point x="47" y="-14" type="curve"/>
      <point x="63" y="97"/>
      <point x="67" y="400"/>
      <point x="63" y="582" type="curve"/>
      <point x="72" y="586"/>
      <point x="76" y="587"/>
      <point x="88" y="593" type="curve"/>
      <point x="197" y="451"/>
      <point x="378" y="304"/>
      <point x="506" y="170" type="curve"/>
      <point x="506" y="342"/>
      <point x="500" y="475"/>
      <point x="488" y="575" type="curve"/>
      <point x="509" y="579"/>
      <point x="547" y="587"/>
      <point x="568" y="596" type="curve"/>
      <point x="553" y="558"/>
      <point x="546" y="313"/>
      <point x="548" y="103" type="curve" smooth="yes"/>
      <point x="548" y="76"/>
      <point x="551" y="36"/>
    </contour>
    <contour>
      <point x="348" y="637" type="curve" smooth="yes"/>
      <point x="331" y="637"/>
      <point x="294" y="655"/>
      <point x="278" y="655" type="curve" smooth="yes"/>
      <point x="254" y="655"/>
      <point x="236" y="648"/>
      <point x="213" y="633" type="curve"/>
      <point x="206" y="639"/>
      <point x="199" y="651"/>
      <point x="198" y="659" type="curve"/>
      <point x="223" y="684"/>
      <point x="273" y="722"/>
      <point x="294" y="722" type="curve" smooth="yes"/>
      <point x="318" y="722"/>
      <point x="347" y="704"/>
      <point x="368" y="704" type="curve" smooth="yes"/>
      <point x="392" y="704"/>
      <point x="409" y="713"/>
      <point x="430" y="724" type="curve"/>
      <point x="437" y="719"/>
      <point x="444" y="707"/>
      <point x="446" y="699" type="curve"/>
      <point x="415" y="668"/>
      <point x="368" y="637"/>
    </contour>
  </outline>
</glyph>
<glyph name="Ocircumflex" format="1">
  <advance width="662"/>
  <unicode hex="00D4"/>
  <outline>
    <contour>
      <point x="357" y="594" type="curve" smooth="yes"/>
      <point x="511" y="594"/>
      <point x="625" y="482"/>
      <point x="626" y="315" type="curve" smooth="yes"/>
      <point x="626" y="211"/>
      <point x="577" y="110"/>
      <point x="493" y="45" type="curve" smooth="yes"/>
      <point x="452" y="13"/>
      <point x="365" y="-17"/>
      <point x="302" y="-17" type="curve" smooth="yes"/>
      <point x="102" y="-17"/>
      <point x="35" y="150"/>
      <point x="35" y="276" type="curve"/>
      <point x="37" y="359"/>
      <point x="79" y="480"/>
      <point x="181" y="543" type="curve" smooth="yes"/>
      <point x="219" y="566"/>
      <point x="300" y="594"/>
    </contour>
    <contour>
      <point x="343" y="548" type="curve" smooth="yes"/>
      <point x="261" y="548"/>
      <point x="132" y="486"/>
      <point x="132" y="278" type="curve" smooth="yes"/>
      <point x="132" y="159"/>
      <point x="200" y="30"/>
      <point x="320" y="30" type="curve" smooth="yes"/>
      <point x="394" y="30"/>
      <point x="530" y="92"/>
      <point x="530" y="311" type="curve" smooth="yes"/>
      <point x="530" y="449"/>
      <point x="449" y="548"/>
    </contour>
    <contour>
      <point x="253" y="632" type="curve"/>
      <point x="248" y="636"/>
      <point x="240" y="649"/>
      <point x="239" y="658" type="curve"/>
      <point x="273" y="678"/>
      <point x="304" y="703"/>
      <point x="353" y="738" type="curve"/>
      <point x="386" y="710"/>
      <point x="419" y="681"/>
      <point x="453" y="660" type="curve"/>
      <point x="450" y="652"/>
      <point x="444" y="639"/>
      <point x="438" y="634" type="curve"/>
      <point x="400" y="651"/>
      <point x="384" y="657"/>
      <point x="351" y="668" type="curve"/>
      <point x="318" y="659"/>
      <point x="282" y="646"/>
    </contour>
  </outline>
</glyph>
<glyph name="Otilde" format="1">
  <advance width="662"/>
  <unicode hex="00D5"/>
  <outline>
    <contour>
      <point x="357" y="594" type="curve" smooth="yes"/>
      <point x="511" y="594"/>
      <point x="625" y="482"/>
      <point x="626" y="315" type="curve" smooth="yes"/>
      <point x="626" y="211"/>
      <point x="577" y="110"/>
      <point x="493" y="45" type="curve" smooth="yes"/>
      <point x="452" y="13"/>
      <point x="365" y="-17"/>
      <point x="302" y="-17" type="curve" smooth="yes"/>
      <point x="102" y="-17"/>
      <point x="35" y="150"/>
      <point x="35" y="276" type="curve"/>
      <point x="37" y="359"/>
      <point x="79" y="480"/>
      <point x="181" y="543" type="curve" smooth="yes"/>
      <point x="219" y="566"/>
      <point x="300" y="594"/>
    </contour>
    <contour>
      <point x="343" y="548" type="curve" smooth="yes"/>
      <point x="261" y="548"/>
      <point x="132" y="486"/>
      <point x="132" y="278" type="curve" smooth="yes"/>
      <point x="132" y="159"/>
      <point x="200" y="30"/>
      <point x="320" y="30" type="curve" smooth="yes"/>
      <point x="394" y="30"/>
      <point x="530" y="92"/>
      <point x="530" y="311" type="curve" smooth="yes"/>
      <point x="530" y="449"/>
      <point x="449" y="548"/>
    </contour>
    <contour>
      <point x="378" y="637" type="curve" smooth="yes"/>
      <point x="361" y="637"/>
      <point x="324" y="655"/>
      <point x="308" y="655" type="curve" smooth="yes"/>
      <point x="284" y="655"/>
      <point x="266" y="648"/>
      <point x="243" y="633" type="curve"/>
      <point x="236" y="639"/>
      <point x="229" y="651"/>
      <point x="228" y="659" type="curve"/>
      <point x="253" y="684"/>
      <point x="303" y="722"/>
      <point x="324" y="722" type="curve" smooth="yes"/>
      <point x="348" y="722"/>
      <point x="377" y="704"/>
      <point x="398" y="704" type="curve" smooth="yes"/>
      <point x="422" y="704"/>
      <point x="439" y="713"/>
      <point x="460" y="724" type="curve"/>
      <point x="467" y="719"/>
      <point x="474" y="707"/>
      <point x="476" y="699" type="curve"/>
      <point x="445" y="668"/>
      <point x="398" y="637"/>
    </contour>
  </outline>
</glyph>
<glyph name="Odieresis" format="1">
  <advance width="662"/>
  <unicode hex="00D6"/>
  <outline>
    <contour>
      <point x="357" y="594" type="curve" smooth="yes"/>
      <point x="511" y="594"/>
      <point x="625" y="482"/>
      <point x="626" y="315" type="curve" smooth="yes"/>
      <point x="626" y="211"/>
      <point x="577" y="110"/>
      <point x="493" y="45" type="curve" smooth="yes"/>
      <point x="452" y="13"/>
      <point x="365" y="-17"/>
      <point x="302" y="-17" type="curve" smooth="yes"/>
      <point x="102" y="-17"/>
      <point x="35" y="150"/>
      <point x="35" y="276" type="curve"/>
      <point x="37" y="359"/>
      <point x="79" y="480"/>
      <point x="181" y="543" type="curve" smooth="yes"/>
      <point x="219" y="566"/>
      <point x="300" y="594"/>
    </contour>
    <contour>
      <point x="343" y="548" type="curve" smooth="yes"/>
      <point x="261" y="548"/>
      <point x="132" y="486"/>
      <point x="132" y="278" type="curve" smooth="yes"/>
      <point x="132" y="159"/>
      <point x="200" y="30"/>
      <point x="320" y="30" type="curve" smooth="yes"/>
      <point x="394" y="30"/>
      <point x="530" y="92"/>
      <point x="530" y="311" type="curve" smooth="yes"/>
      <point x="530" y="449"/>
      <point x="449" y="548"/>
    </contour>
    <contour>
      <point x="272" y="713" type="curve" smooth="yes"/>
      <point x="300" y="713"/>
      <point x="314" y="700"/>
      <point x="314" y="682" type="curve" smooth="yes"/>
      <point x="314" y="660"/>
      <point x="283" y="647"/>
      <point x="258" y="647" type="curve" smooth="yes"/>
      <point x="240" y="647"/>
      <point x="223" y="658"/>
      <point x="223" y="673" type="curve" smooth="yes"/>
      <point x="223" y="695"/>
      <point x="248" y="713"/>
    </contour>
    <contour>
      <point x="422" y="713" type="curve" smooth="yes"/>
      <point x="450" y="713"/>
      <point x="463" y="700"/>
      <point x="463" y="682" type="curve" smooth="yes"/>
      <point x="463" y="660"/>
      <point x="433" y="647"/>
      <point x="408" y="647" type="curve" smooth="yes"/>
      <point x="389" y="647"/>
      <point x="373" y="658"/>
      <point x="373" y="673" type="curve" smooth="yes"/>
      <point x="373" y="695"/>
      <point x="398" y="713"/>
    </contour>
  </outline>
</glyph>
<glyph name="multiply" format="1">
  <advance width="416"/>
  <unicode hex="00D7"/>
  <outline>
    <contour>
      <point x="85" y="364" type="curve"/>
      <point x="213" y="229" type="line"/>
      <point x="342" y="363" type="line"/>
      <point x="351" y="355"/>
      <point x="365" y="339"/>
      <point x="368" y="330" type="curve"/>
      <point x="335" y="298"/>
      <point x="273" y="236"/>
      <point x="240" y="202" type="curve"/>
      <point x="372" y="71" type="line"/>
      <point x="365" y="62"/>
      <point x="352" y="46"/>
      <point x="343" y="38" type="curve"/>
      <point x="211" y="174" type="line"/>
      <point x="177" y="142"/>
      <point x="116" y="79"/>
      <point x="77" y="39" type="curve"/>
      <point x="70" y="43"/>
      <point x="54" y="65"/>
      <point x="51" y="71" type="curve"/>
      <point x="84" y="101"/>
      <point x="148" y="166"/>
      <point x="184" y="201" type="curve"/>
      <point x="56" y="333" type="line"/>
      <point x="60" y="340"/>
      <point x="81" y="361"/>
    </contour>
  </outline>
</glyph>
<glyph name="Oslash" format="1">
  <advance width="662"/>
  <unicode hex="00D8"/>
  <outline>
    <contour>
      <point x="357" y="594" type="curve" smooth="yes"/>
      <point x="385" y="594"/>
      <point x="413" y="590"/>
      <point x="438" y="583" type="curve"/>
      <point x="462" y="634" type="line"/>
      <point x="471" y="633"/>
      <point x="493" y="629"/>
      <point x="502" y="623" type="curve"/>
      <point x="476" y="568" type="line"/>
      <point x="566" y="526"/>
      <point x="625" y="435"/>
      <point x="626" y="315" type="curve" smooth="yes"/>
      <point x="626" y="211"/>
      <point x="577" y="110"/>
      <point x="493" y="45" type="curve" smooth="yes"/>
      <point x="452" y="13"/>
      <point x="365" y="-17"/>
      <point x="302" y="-17" type="curve" smooth="yes"/>
      <point x="266" y="-17"/>
      <point x="235" y="-12"/>
      <point x="207" y="-2" type="curve"/>
      <point x="179" y="-63" type="line"/>
      <point x="169" y="-61"/>
      <point x="150" y="-57"/>
      <point x="139" y="-49" type="curve"/>
      <point x="169" y="14" type="line"/>
      <point x="71" y="69"/>
      <point x="35" y="184"/>
      <point x="35" y="276" type="curve"/>
      <point x="37" y="359"/>
      <point x="79" y="480"/>
      <point x="181" y="543" type="curve" smooth="yes"/>
      <point x="219" y="566"/>
      <point x="300" y="594"/>
    </contour>
    <contour>
      <point x="530" y="311" type="curve" smooth="yes"/>
      <point x="530" y="397"/>
      <point x="498" y="469"/>
      <point x="448" y="510" type="curve"/>
      <point x="235" y="55" type="line"/>
      <point x="259" y="39"/>
      <point x="288" y="30"/>
      <point x="320" y="30" type="curve" smooth="yes"/>
      <point x="394" y="30"/>
      <point x="530" y="92"/>
    </contour>
    <contour>
      <point x="343" y="548" type="curve" smooth="yes"/>
      <point x="261" y="548"/>
      <point x="132" y="486"/>
      <point x="132" y="278" type="curve" smooth="yes"/>
      <point x="132" y="206"/>
      <point x="156" y="132"/>
      <point x="201" y="83" type="curve"/>
      <point x="414" y="532" type="line"/>
      <point x="392" y="543"/>
      <point x="368" y="548"/>
    </contour>
  </outline>
</glyph>
<glyph name="Ugrave" format="1">
  <advance width="579"/>
  <unicode hex="00D9"/>
  <outline>
    <contour>
      <point x="35" y="582" type="curve"/>
      <point x="72" y="580"/>
      <point x="114" y="580"/>
      <point x="143" y="584" type="curve"/>
      <point x="137" y="454"/>
      <point x="146" y="305"/>
      <point x="164" y="182" type="curve" smooth="yes"/>
      <point x="180" y="77"/>
      <point x="236" y="38"/>
      <point x="295" y="38" type="curve" smooth="yes"/>
      <point x="399" y="38"/>
      <point x="444" y="123"/>
      <point x="457" y="192" type="curve" smooth="yes"/>
      <point x="477" y="302"/>
      <point x="479" y="494"/>
      <point x="471" y="573" type="curve"/>
      <point x="499" y="578"/>
      <point x="529" y="588"/>
      <point x="554" y="601" type="curve"/>
      <point x="538" y="487"/>
      <point x="524" y="327"/>
      <point x="506" y="215" type="curve" smooth="yes"/>
      <point x="486" y="86"/>
      <point x="422" y="-14"/>
      <point x="284" y="-14" type="curve" smooth="yes"/>
      <point x="154" y="-14"/>
      <point x="92" y="48"/>
      <point x="70" y="204" type="curve" smooth="yes"/>
      <point x="52" y="337"/>
      <point x="52" y="468"/>
    </contour>
    <contour>
      <point x="224" y="748" type="curve"/>
      <point x="261" y="723"/>
      <point x="334" y="684"/>
      <point x="393" y="657" type="curve"/>
      <point x="392" y="648"/>
      <point x="386" y="637"/>
      <point x="381" y="628" type="curve"/>
      <point x="316" y="648"/>
      <point x="267" y="660"/>
      <point x="198" y="671" type="curve"/>
      <point x="207" y="689"/>
      <point x="221" y="729"/>
    </contour>
  </outline>
</glyph>
<glyph name="Uacute" format="1">
  <advance width="579"/>
  <unicode hex="00DA"/>
  <outline>
    <contour>
      <point x="35" y="582" type="curve"/>
      <point x="72" y="580"/>
      <point x="114" y="580"/>
      <point x="143" y="584" type="curve"/>
      <point x="137" y="454"/>
      <point x="146" y="305"/>
      <point x="164" y="182" type="curve" smooth="yes"/>
      <point x="180" y="77"/>
      <point x="236" y="38"/>
      <point x="295" y="38" type="curve" smooth="yes"/>
      <point x="399" y="38"/>
      <point x="444" y="123"/>
      <point x="457" y="192" type="curve" smooth="yes"/>
      <point x="477" y="302"/>
      <point x="479" y="494"/>
      <point x="471" y="573" type="curve"/>
      <point x="499" y="578"/>
      <point x="529" y="588"/>
      <point x="554" y="601" type="curve"/>
      <point x="538" y="487"/>
      <point x="524" y="327"/>
      <point x="506" y="215" type="curve" smooth="yes"/>
      <point x="486" y="86"/>
      <point x="422" y="-14"/>
      <point x="284" y="-14" type="curve" smooth="yes"/>
      <point x="154" y="-14"/>
      <point x="92" y="48"/>
      <point x="70" y="204" type="curve" smooth="yes"/>
      <point x="52" y="337"/>
      <point x="52" y="468"/>
    </contour>
    <contour>
      <point x="387" y="749" type="curve"/>
      <point x="389" y="731"/>
      <point x="406" y="689"/>
      <point x="415" y="671" type="curve"/>
      <point x="346" y="661"/>
      <point x="295" y="652"/>
      <point x="230" y="633" type="curve"/>
      <point x="225" y="642"/>
      <point x="220" y="654"/>
      <point x="219" y="662" type="curve"/>
      <point x="278" y="688"/>
      <point x="344" y="720"/>
    </contour>
  </outline>
</glyph>
<glyph name="Ucircumflex" format="1">
  <advance width="579"/>
  <unicode hex="00DB"/>
  <outline>
    <contour>
      <point x="35" y="582" type="curve"/>
      <point x="72" y="580"/>
      <point x="114" y="580"/>
      <point x="143" y="584" type="curve"/>
      <point x="137" y="454"/>
      <point x="146" y="305"/>
      <point x="164" y="182" type="curve" smooth="yes"/>
      <point x="180" y="77"/>
      <point x="236" y="38"/>
      <point x="295" y="38" type="curve" smooth="yes"/>
      <point x="399" y="38"/>
      <point x="444" y="123"/>
      <point x="457" y="192" type="curve" smooth="yes"/>
      <point x="477" y="302"/>
      <point x="479" y="494"/>
      <point x="471" y="573" type="curve"/>
      <point x="499" y="578"/>
      <point x="529" y="588"/>
      <point x="554" y="601" type="curve"/>
      <point x="538" y="487"/>
      <point x="524" y="327"/>
      <point x="506" y="215" type="curve" smooth="yes"/>
      <point x="486" y="86"/>
      <point x="422" y="-14"/>
      <point x="284" y="-14" type="curve" smooth="yes"/>
      <point x="154" y="-14"/>
      <point x="92" y="48"/>
      <point x="70" y="204" type="curve" smooth="yes"/>
      <point x="52" y="337"/>
      <point x="52" y="468"/>
    </contour>
    <contour>
      <point x="217" y="632" type="curve"/>
      <point x="212" y="636"/>
      <point x="204" y="649"/>
      <point x="203" y="658" type="curve"/>
      <point x="237" y="678"/>
      <point x="268" y="703"/>
      <point x="317" y="738" type="curve"/>
      <point x="350" y="710"/>
      <point x="383" y="681"/>
      <point x="417" y="660" type="curve"/>
      <point x="414" y="652"/>
      <point x="408" y="639"/>
      <point x="402" y="634" type="curve"/>
      <point x="364" y="651"/>
      <point x="348" y="657"/>
      <point x="315" y="668" type="curve"/>
      <point x="282" y="659"/>
      <point x="246" y="646"/>
    </contour>
  </outline>
</glyph>
<glyph name="Yacute" format="1">
  <advance width="479"/>
  <unicode hex="00DD"/>
  <outline>
    <contour>
      <point x="5" y="583" type="curve"/>
      <point x="54" y="579"/>
      <point x="95" y="580"/>
      <point x="136" y="583" type="curve"/>
      <point x="166" y="502"/>
      <point x="213" y="423"/>
      <point x="264" y="350" type="curve"/>
      <point x="325" y="430"/>
      <point x="372" y="502"/>
      <point x="408" y="577" type="curve"/>
      <point x="434" y="578"/>
      <point x="464" y="580"/>
      <point x="500" y="588" type="curve"/>
      <point x="404" y="480"/>
      <point x="364" y="426"/>
      <point x="276" y="301" type="curve"/>
      <point x="273" y="161"/>
      <point x="275" y="72"/>
      <point x="285" y="-1" type="curve"/>
      <point x="249" y="2"/>
      <point x="210" y="3"/>
      <point x="180" y="-1" type="curve"/>
      <point x="186" y="62"/>
      <point x="191" y="218"/>
      <point x="186" y="302" type="curve"/>
      <point x="146" y="381"/>
      <point x="48" y="533"/>
    </contour>
    <contour>
      <point x="347" y="749" type="curve"/>
      <point x="349" y="731"/>
      <point x="366" y="689"/>
      <point x="375" y="671" type="curve"/>
      <point x="306" y="661"/>
      <point x="255" y="652"/>
      <point x="190" y="633" type="curve"/>
      <point x="185" y="642"/>
      <point x="180" y="654"/>
      <point x="179" y="662" type="curve"/>
      <point x="238" y="688"/>
      <point x="304" y="720"/>
    </contour>
  </outline>
</glyph>
<glyph name="Thorn" format="1">
  <advance width="469"/>
  <unicode hex="00DE"/>
  <outline>
    <contour>
      <point x="55" y="583" type="curve"/>
      <point x="72" y="579"/>
      <point x="135" y="581"/>
      <point x="156" y="583" type="curve"/>
      <point x="153" y="542"/>
      <point x="150" y="499"/>
      <point x="148" y="456" type="curve"/>
      <point x="174" y="457"/>
      <point x="204" y="457"/>
      <point x="236" y="457" type="curve" smooth="yes"/>
      <point x="359" y="457"/>
      <point x="444" y="443"/>
      <point x="444" y="329" type="curve" smooth="yes"/>
      <point x="444" y="263"/>
      <point x="382" y="196"/>
      <point x="213" y="151" type="curve"/>
      <point x="209" y="151"/>
      <point x="203" y="180"/>
      <point x="203" y="183" type="curve"/>
      <point x="294" y="211"/>
      <point x="347" y="246"/>
      <point x="347" y="329" type="curve" smooth="yes"/>
      <point x="347" y="395"/>
      <point x="288" y="420"/>
      <point x="232" y="420" type="curve" smooth="yes"/>
      <point x="199" y="420"/>
      <point x="164" y="419"/>
      <point x="147" y="416" type="curve"/>
      <point x="141" y="251"/>
      <point x="145" y="102"/>
      <point x="151" y="-2" type="curve"/>
      <point x="125" y="1"/>
      <point x="72" y="3"/>
      <point x="48" y="0" type="curve"/>
      <point x="61" y="133"/>
      <point x="62" y="424"/>
    </contour>
  </outline>
</glyph>
<glyph name="germandbls" format="1">
  <advance width="446"/>
  <unicode hex="00DF"/>
  <outline>
    <contour>
      <point x="39" y="390" type="curve"/>
      <point x="70" y="390" type="line"/>
      <point x="71" y="414"/>
      <point x="71" y="465"/>
      <point x="72" y="510" type="curve" smooth="yes"/>
      <point x="74" y="581"/>
      <point x="146" y="692"/>
      <point x="242" y="692" type="curve" smooth="yes"/>
      <point x="353" y="692"/>
      <point x="375" y="604"/>
      <point x="375" y="563" type="curve" smooth="yes"/>
      <point x="375" y="528"/>
      <point x="361" y="481"/>
      <point x="324" y="428" type="curve" smooth="yes"/>
      <point x="300" y="393"/>
      <point x="288" y="369"/>
      <point x="289" y="337" type="curve" smooth="yes"/>
      <point x="289" y="311"/>
      <point x="320" y="269"/>
      <point x="341" y="244" type="curve" smooth="yes"/>
      <point x="380" y="198"/>
      <point x="409" y="144"/>
      <point x="409" y="114" type="curve" smooth="yes"/>
      <point x="409" y="66"/>
      <point x="378" y="-7"/>
      <point x="271" y="-7" type="curve" smooth="yes"/>
      <point x="262" y="-7"/>
      <point x="228" y="-7"/>
      <point x="219" y="-3" type="curve"/>
      <point x="218" y="7"/>
      <point x="220" y="25"/>
      <point x="222" y="32" type="curve"/>
      <point x="283" y="23"/>
      <point x="322" y="56"/>
      <point x="322" y="97" type="curve" smooth="yes"/>
      <point x="322" y="128"/>
      <point x="285" y="174"/>
      <point x="264" y="202" type="curve" smooth="yes"/>
      <point x="236" y="239"/>
      <point x="215" y="270"/>
      <point x="215" y="299" type="curve" smooth="yes"/>
      <point x="215" y="344"/>
      <point x="231" y="371"/>
      <point x="269" y="430" type="curve" smooth="yes"/>
      <point x="287" y="458"/>
      <point x="295" y="497"/>
      <point x="295" y="538" type="curve" smooth="yes"/>
      <point x="295" y="600"/>
      <point x="259" y="632"/>
      <point x="227" y="632" type="curve" smooth="yes"/>
      <point x="201" y="632"/>
      <point x="177" y="623"/>
      <point x="169" y="604" type="curve" smooth="yes"/>
      <point x="152" y="563"/>
      <point x="152" y="543"/>
      <point x="153" y="390" type="curve" smooth="yes"/>
      <point x="153" y="283"/>
      <point x="155" y="52"/>
      <point x="169" y="-2" type="curve"/>
      <point x="145" y="2"/>
      <point x="83" y="1"/>
      <point x="61" y="-2" type="curve"/>
      <point x="72" y="119"/>
      <point x="71" y="236"/>
      <point x="71" y="352" type="curve"/>
      <point x="37" y="352" type="line"/>
      <point x="37" y="362"/>
      <point x="37" y="377"/>
    </contour>
  </outline>
</glyph>
<glyph name="agrave" format="1">
  <advance width="392"/>
  <unicode hex="00E0"/>
  <outline>
    <contour>
      <point x="66" y="368" type="curve"/>
      <point x="129" y="390"/>
      <point x="186" y="396"/>
      <point x="230" y="396" type="curve" smooth="yes"/>
      <point x="275" y="396"/>
      <point x="338" y="382"/>
      <point x="336" y="320" type="curve" smooth="yes"/>
      <point x="335" y="268"/>
      <point x="335" y="119"/>
      <point x="337" y="64" type="curve" smooth="yes"/>
      <point x="338" y="48"/>
      <point x="338" y="23"/>
      <point x="344" y="-1" type="curve"/>
      <point x="309" y="2"/>
      <point x="287" y="2"/>
      <point x="251" y="-4" type="curve"/>
      <point x="250" y="7"/>
      <point x="250" y="27"/>
      <point x="250" y="36" type="curve"/>
      <point x="198" y="14"/>
      <point x="147" y="-9"/>
      <point x="119" y="-9" type="curve" smooth="yes"/>
      <point x="84" y="-9"/>
      <point x="62" y="-6"/>
      <point x="41" y="33" type="curve" smooth="yes"/>
      <point x="35" y="46"/>
      <point x="28" y="94"/>
      <point x="31" y="114" type="curve" smooth="yes"/>
      <point x="38" y="168"/>
      <point x="90" y="193"/>
      <point x="132" y="203" type="curve" smooth="yes"/>
      <point x="172" y="213"/>
      <point x="208" y="221"/>
      <point x="250" y="227" type="curve"/>
      <point x="252" y="250"/>
      <point x="251" y="291"/>
      <point x="249" y="310" type="curve" smooth="yes"/>
      <point x="245" y="345"/>
      <point x="198" y="348"/>
      <point x="159" y="348" type="curve" smooth="yes"/>
      <point x="127" y="348"/>
      <point x="87" y="338"/>
      <point x="72" y="334" type="curve"/>
      <point x="68" y="339"/>
      <point x="66" y="356"/>
    </contour>
    <contour>
      <point x="174" y="50" type="curve" smooth="yes"/>
      <point x="189" y="50"/>
      <point x="224" y="61"/>
      <point x="249" y="72" type="curve"/>
      <point x="248" y="109"/>
      <point x="249" y="158"/>
      <point x="250" y="191" type="curve"/>
      <point x="214" y="184"/>
      <point x="191" y="180"/>
      <point x="166" y="171" type="curve" smooth="yes"/>
      <point x="127" y="157"/>
      <point x="115" y="118"/>
      <point x="118" y="92" type="curve" smooth="yes"/>
      <point x="122" y="54"/>
      <point x="141" y="48"/>
    </contour>
    <contour>
      <point x="127" y="570" type="curve"/>
      <point x="164" y="545"/>
      <point x="237" y="506"/>
      <point x="296" y="479" type="curve"/>
      <point x="295" y="470"/>
      <point x="289" y="459"/>
      <point x="284" y="450" type="curve"/>
      <point x="219" y="470"/>
      <point x="170" y="482"/>
      <point x="101" y="493" type="curve"/>
      <point x="110" y="511"/>
      <point x="124" y="551"/>
    </contour>
  </outline>
</glyph>
<glyph name="ae" format="1">
  <advance width="618"/>
  <unicode hex="00E6"/>
  <outline>
    <contour>
      <point x="336" y="199" type="curve" smooth="yes"/>
      <point x="334" y="132"/>
      <point x="354" y="34"/>
      <point x="445" y="34" type="curve" smooth="yes"/>
      <point x="500" y="34"/>
      <point x="523" y="40"/>
      <point x="573" y="58" type="curve"/>
      <point x="578" y="51"/>
      <point x="583" y="35"/>
      <point x="584" y="30" type="curve"/>
      <point x="536" y="11"/>
      <point x="479" y="-10"/>
      <point x="417" y="-10" type="curve" smooth="yes"/>
      <point x="360" y="-10"/>
      <point x="315" y="11"/>
      <point x="286" y="47" type="curve"/>
      <point x="234" y="20"/>
      <point x="171" y="-9"/>
      <point x="127" y="-9" type="curve"/>
      <point x="92" y="-10"/>
      <point x="61" y="-6"/>
      <point x="41" y="33" type="curve" smooth="yes"/>
      <point x="34" y="47"/>
      <point x="28" y="94"/>
      <point x="31" y="114" type="curve" smooth="yes"/>
      <point x="38" y="168"/>
      <point x="90" y="193"/>
      <point x="132" y="203" type="curve" smooth="yes"/>
      <point x="172" y="213"/>
      <point x="210" y="221"/>
      <point x="251" y="227" type="curve"/>
      <point x="255" y="251"/>
      <point x="254" y="291"/>
      <point x="251" y="310" type="curve" smooth="yes"/>
      <point x="245" y="345"/>
      <point x="198" y="348"/>
      <point x="159" y="348" type="curve" smooth="yes"/>
      <point x="127" y="348"/>
      <point x="87" y="338"/>
      <point x="72" y="334" type="curve"/>
      <point x="68" y="339"/>
      <point x="66" y="356"/>
      <point x="66" y="368" type="curve"/>
      <point x="129" y="390"/>
      <point x="186" y="396"/>
      <point x="230" y="396" type="curve" smooth="yes"/>
      <point x="266" y="396"/>
      <point x="315" y="387"/>
      <point x="331" y="350" type="curve"/>
      <point x="369" y="383"/>
      <point x="413" y="397"/>
      <point x="445" y="397" type="curve" smooth="yes"/>
      <point x="518" y="397"/>
      <point x="551" y="383"/>
      <point x="564" y="360" type="curve" smooth="yes"/>
      <point x="581" y="332"/>
      <point x="580" y="283"/>
      <point x="553" y="255" type="curve" smooth="yes"/>
      <point x="532" y="234"/>
      <point x="492" y="225"/>
      <point x="413" y="225" type="curve" smooth="yes"/>
      <point x="389" y="225"/>
      <point x="364" y="226"/>
      <point x="340" y="230" type="curve"/>
      <point x="338" y="221"/>
      <point x="337" y="210"/>
    </contour>
    <contour>
      <point x="250" y="191" type="curve"/>
      <point x="214" y="184"/>
      <point x="191" y="180"/>
      <point x="166" y="171" type="curve" smooth="yes"/>
      <point x="127" y="157"/>
      <point x="115" y="118"/>
      <point x="118" y="92" type="curve" smooth="yes"/>
      <point x="122" y="54"/>
      <point x="141" y="48"/>
      <point x="174" y="50" type="curve" smooth="yes"/>
      <point x="198" y="51"/>
      <point x="240" y="64"/>
      <point x="268" y="76" type="curve"/>
      <point x="250" y="114"/>
      <point x="249" y="152"/>
    </contour>
    <contour>
      <point x="412" y="260" type="curve" smooth="yes"/>
      <point x="437" y="260"/>
      <point x="459" y="265"/>
      <point x="473" y="279" type="curve" smooth="yes"/>
      <point x="487" y="294"/>
      <point x="491" y="324"/>
      <point x="476" y="342" type="curve" smooth="yes"/>
      <point x="467" y="352"/>
      <point x="452" y="356"/>
      <point x="433" y="356" type="curve" smooth="yes"/>
      <point x="388" y="356"/>
      <point x="353" y="305"/>
      <point x="347" y="266" type="curve"/>
      <point x="362" y="262"/>
      <point x="378" y="260"/>
    </contour>
  </outline>
</glyph>
<glyph name="ccedilla" format="1">
  <advance width="387"/>
  <unicode hex="00E7"/>
  <outline>
    <contour>
      <point x="132" y="-114" type="curve"/>
      <point x="146" y="-90"/>
      <point x="167" y="-42"/>
      <point x="181" y="-7" type="curve"/>
      <point x="95" y="-4"/>
      <point x="35" y="56"/>
      <point x="35" y="166" type="curve" smooth="yes"/>
      <point x="35" y="304"/>
      <point x="137" y="395"/>
      <point x="259" y="395" type="curve" smooth="yes"/>
      <point x="284" y="395"/>
      <point x="313" y="387"/>
      <point x="334" y="378" type="curve"/>
      <point x="331" y="369"/>
      <point x="326" y="353"/>
      <point x="319" y="346" type="curve"/>
      <point x="308" y="350"/>
      <point x="278" y="355"/>
      <point x="259" y="355" type="curve" smooth="yes"/>
      <point x="194" y="355"/>
      <point x="120" y="302"/>
      <point x="120" y="169" type="curve" smooth="yes"/>
      <point x="120" y="119"/>
      <point x="147" y="37"/>
      <point x="221" y="37" type="curve" smooth="yes"/>
      <point x="269" y="37"/>
      <point x="297" y="42"/>
      <point x="345" y="57" type="curve"/>
      <point x="351" y="48"/>
      <point x="354" y="35"/>
      <point x="356" y="25" type="curve"/>
      <point x="305" y="7"/>
      <point x="267" y="-3"/>
      <point x="220" y="-7" type="curve"/>
      <point x="211" y="-25"/>
      <point x="202" y="-47"/>
      <point x="196" y="-68" type="curve"/>
      <point x="217" y="-83"/>
      <point x="239" y="-102"/>
      <point x="239" y="-141" type="curve" smooth="yes"/>
      <point x="239" y="-161"/>
      <point x="218" y="-216"/>
      <point x="176" y="-266" type="curve"/>
      <point x="169" y="-264"/>
      <point x="155" y="-256"/>
      <point x="150" y="-251" type="curve"/>
      <point x="167" y="-223"/>
      <point x="180" y="-197"/>
      <point x="180" y="-169" type="curve" smooth="yes"/>
      <point x="180" y="-152"/>
      <point x="164" y="-134"/>
    </contour>
  </outline>
</glyph>
